<svg width="1133" height="280" viewBox="0 0 1133 280" fill="none" xmlns="http://www.w3.org/2000/svg">
<g clip-path="url(#clip0_745_321)">
<rect width="1133" height="280" rx="32" fill="url(#paint0_linear_745_321)"/>
<path opacity="0.0144928" d="M1047.21 239.493L1103.77 137.616C1106.71 132.316 1107.44 126.069 1105.8 120.233L1056.96 -53.6315C1055.67 -58.2211 1052.99 -62.2967 1049.28 -65.2946L929.644 -162.054C922.923 -167.49 913.722 -168.698 905.826 -165.183L815.821 -125.11C807.924 -121.594 802.666 -113.948 802.208 -105.316L794.061 48.3373C793.809 53.0979 795.042 57.8193 797.59 61.8484L894.116 214.482C897.356 219.605 902.487 223.242 908.395 224.602L1021.95 250.744C1031.93 253.043 1042.24 248.455 1047.21 239.493Z" stroke="url(#paint1_linear_745_321)" stroke-opacity="0.5" stroke-width="4"/>
<path opacity="0.0289855" d="M1027.5 245.176L1088.98 147.286C1092.2 142.145 1093.27 135.936 1091.94 130.013L1052.74 -44.449C1051.69 -49.1143 1049.21 -53.3369 1045.65 -56.5294L932.181 -158.299C925.754 -164.063 916.641 -165.742 908.582 -162.649L817.225 -127.58C809.166 -124.486 803.517 -117.14 802.598 -108.557L786.368 43.0015C785.858 47.756 786.844 52.5509 789.186 56.7192L876.793 212.599C879.768 217.891 884.714 221.793 890.553 223.453L1001.74 255.067C1011.57 257.864 1022.07 253.833 1027.5 245.176Z" stroke="url(#paint2_linear_745_321)" stroke-opacity="0.5" stroke-width="4"/>
<path opacity="0.0434783" d="M1007.74 250.238L1073.86 156.568C1077.37 151.601 1078.77 145.448 1077.75 139.453L1048.12 -35.0768C1047.32 -39.8054 1045.06 -44.1647 1041.65 -47.5448L934.538 -153.948C928.422 -160.023 919.421 -162.168 911.222 -159.504L818.788 -129.471C810.588 -126.806 804.567 -119.781 803.19 -111.27L779.074 37.7725C778.308 42.5072 779.041 47.3629 781.171 51.6602L859.786 210.275C862.486 215.722 867.233 219.879 872.989 221.836L981.544 258.749C991.197 262.031 1001.86 258.567 1007.74 250.238Z" stroke="url(#paint3_linear_745_321)" stroke-opacity="0.5" stroke-width="4"/>
<path opacity="0.057971" d="M987.951 254.684L1058.46 165.449C1062.24 160.671 1063.96 154.591 1063.26 148.543L1043.1 -25.5369C1042.54 -30.3161 1040.51 -34.8013 1037.27 -38.3613L936.685 -149.014C930.894 -155.385 922.03 -157.988 913.713 -155.76L820.476 -130.777C812.159 -128.549 805.784 -121.862 803.954 -113.449L772.171 32.6717C771.149 37.3728 771.626 42.2763 773.537 46.6919L843.114 207.531C845.532 213.12 850.067 217.521 855.725 219.771L961.406 261.796C970.854 265.553 981.647 262.661 987.951 254.684Z" stroke="url(#paint4_linear_745_321)" stroke-opacity="0.5" stroke-width="4"/>
<path opacity="0.0724638" d="M968.175 258.517L1042.79 173.916C1046.82 169.343 1048.87 163.354 1048.49 157.268L1037.67 -15.8531C1037.36 -20.6699 1035.56 -25.2698 1032.5 -29.0017L938.591 -143.517C933.139 -150.165 924.434 -153.218 916.024 -151.43L822.256 -131.499C813.846 -129.711 807.135 -123.382 804.859 -115.091L765.65 27.7181C764.372 32.3721 764.591 37.3101 766.275 41.8329L826.799 204.39C828.927 210.105 833.238 214.741 838.783 217.279L941.354 264.218C950.574 268.437 961.469 266.121 968.175 258.517Z" stroke="url(#paint5_linear_745_321)" stroke-opacity="0.5" stroke-width="4"/>
<path opacity="0.0869565" d="M948.445 261.744L1026.87 181.96C1031.15 177.604 1033.52 171.724 1033.46 165.617L1031.82 -6.04921C1031.77 -10.8905 1030.2 -15.5937 1027.32 -19.4889L940.227 -137.474C935.128 -144.381 926.605 -147.874 918.125 -146.53L824.097 -131.638C815.617 -130.295 808.591 -124.34 805.876 -116.194L759.5 22.9304C757.969 27.5235 757.926 32.4826 759.378 37.1013L810.862 200.873C812.693 206.7 816.767 211.559 822.185 214.378L921.425 266.024C930.393 270.692 941.358 268.955 948.445 261.744Z" stroke="url(#paint6_linear_745_321)" stroke-opacity="0.5" stroke-width="4"/>
<path opacity="0.101449" d="M928.793 264.375L1010.73 189.57C1015.25 185.446 1017.93 179.692 1018.2 173.58L1025.55 3.85197C1025.76 -1.00067 1024.43 -5.7953 1021.75 -9.84473L941.564 -130.904C936.83 -138.053 928.512 -141.974 919.985 -141.077L825.966 -131.196C817.439 -130.299 810.118 -124.735 806.973 -116.758L753.708 18.3276C751.927 22.8462 751.621 27.8129 752.836 32.5158L795.318 197.006C796.848 202.929 800.674 207.998 805.95 211.093L901.648 267.228C910.344 272.329 921.348 271.172 928.793 264.375Z" stroke="url(#paint7_linear_745_321)" stroke-opacity="0.5" stroke-width="4"/>
<path opacity="0.115942" d="M909.25 266.419L994.395 196.74C999.136 192.86 1002.13 187.248 1002.72 181.15L1018.87 13.8259C1019.34 8.97534 1018.25 4.10148 1015.77 -0.0927847L942.577 -123.831C938.218 -131.2 930.127 -135.538 921.577 -135.09L827.83 -130.177C819.28 -129.729 811.687 -124.569 808.122 -116.785L748.264 13.9266C746.235 18.3572 745.666 23.3178 746.638 28.0928L780.186 192.812C781.408 198.816 784.976 204.084 790.097 207.447L882.058 267.844C890.46 273.362 901.472 272.785 909.25 266.419Z" stroke="url(#paint8_linear_745_321)" stroke-opacity="0.5" stroke-width="4"/>
<path opacity="0.130435" d="M889.849 267.888L977.891 203.463C982.843 199.839 986.142 194.387 987.054 188.318L1011.76 23.8499C1012.49 19.0149 1011.65 14.0742 1009.38 9.7449L943.24 -116.276C939.267 -123.846 931.423 -128.588 922.874 -128.588H829.659C821.11 -128.588 813.266 -123.846 809.293 -116.276L743.153 9.7449C740.881 14.0742 740.048 19.0149 740.774 23.8499L765.479 188.318C766.391 194.387 769.689 199.839 774.642 203.463L862.684 267.888C870.772 273.806 881.761 273.806 889.849 267.888Z" stroke="url(#paint9_linear_745_321)" stroke-opacity="0.5" stroke-width="4"/>
<path opacity="0.144928" d="M870.617 268.795L961.243 209.734C966.393 206.379 969.985 201.101 971.218 195.08L1004.23 33.8999C1005.21 29.0939 1004.63 24.099 1002.58 19.6449L943.529 -108.264C939.951 -116.014 932.375 -121.145 923.85 -121.592L831.422 -126.436C822.897 -126.882 814.826 -122.571 810.458 -115.237L738.362 5.79792C735.851 10.0127 734.754 14.9197 735.231 19.8023L751.212 183.55C751.809 189.667 754.83 195.291 759.6 199.167L843.556 267.377C851.311 273.677 862.246 274.25 870.617 268.795Z" stroke="url(#paint10_linear_745_321)" stroke-opacity="0.5" stroke-width="4"/>
<path opacity="0.15942" d="M851.585 269.157L944.477 215.552C949.809 212.475 953.685 207.388 955.238 201.431L996.277 43.9536C997.518 39.1901 997.198 34.154 995.365 29.5857L943.422 -99.8175C940.247 -107.727 932.958 -113.233 924.481 -114.124L833.088 -123.729C824.611 -124.62 816.337 -120.751 811.587 -113.674L733.875 2.10203C731.131 6.18924 729.772 11.0489 729.995 15.9664L737.396 178.535C737.676 184.685 740.41 190.466 744.986 194.584L824.703 266.332C832.106 272.995 842.958 274.136 851.585 269.157Z" stroke="url(#paint11_linear_745_321)" stroke-opacity="0.5" stroke-width="4"/>
<path opacity="0.173913" d="M832.779 268.989L927.617 220.911C933.117 218.123 937.267 213.243 939.136 207.366L987.907 53.9863C989.404 49.2789 989.345 44.2146 987.74 39.5429L942.898 -90.9658C940.132 -99.014 933.149 -104.878 924.744 -106.209L834.629 -120.482C826.223 -121.813 817.77 -118.394 812.653 -111.595L729.676 -1.33033C726.706 2.61663 725.085 7.41497 725.054 12.3546L724.041 173.299C724.002 179.465 726.441 185.389 730.811 189.74L806.149 264.771C813.185 271.778 823.923 273.479 832.779 268.989Z" stroke="url(#paint12_linear_745_321)" stroke-opacity="0.5" stroke-width="4"/>
<path opacity="0.188406" d="M814.228 268.31L910.689 225.814C916.341 223.324 920.755 218.664 922.935 212.885L979.123 63.9764C980.873 59.3384 981.078 54.2592 979.707 49.4954L941.939 -81.7342C939.589 -89.8994 932.929 -96.1039 924.618 -97.8704L836.015 -116.703C827.705 -118.47 819.097 -115.511 813.629 -109.007L725.75 -4.48468C722.56 -0.690419 720.681 4.033 720.394 8.98179L711.157 167.871C710.798 174.037 712.935 180.088 717.086 184.662L787.923 262.718C794.575 270.048 805.17 272.3 814.228 268.31Z" stroke="url(#paint13_linear_745_321)" stroke-opacity="0.5" stroke-width="4"/>
<path opacity="0.202899" d="M795.955 267.138L893.718 230.26C899.507 228.076 904.172 223.652 906.66 217.987L969.931 73.9009C971.931 69.3458 972.4 64.265 971.268 59.4206L940.527 -72.1515C938.597 -80.4119 932.277 -86.9393 924.083 -89.1348L837.222 -112.409C829.028 -114.605 820.291 -112.112 814.489 -105.923L722.08 -7.34912C718.678 -3.71965 716.544 0.915166 715.999 5.86008L698.75 162.278C698.071 168.428 699.9 174.591 703.821 179.377L770.047 260.196C776.301 267.827 786.724 270.62 795.955 267.138Z" stroke="url(#paint14_linear_745_321)" stroke-opacity="0.5" stroke-width="4"/>
<path opacity="0.217391" d="M777.985 265.494L876.729 234.251C882.638 232.382 887.542 228.207 890.331 222.672L960.335 83.7377C962.582 79.2788 963.317 74.2099 962.428 69.2965L938.647 -62.2461C937.14 -70.5799 931.176 -77.4115 923.121 -80.0286L838.22 -107.615C830.165 -110.232 821.324 -108.211 815.207 -102.354L718.649 -9.9124C715.042 -6.45955 712.657 -1.92682 711.854 3.00111L686.825 156.549C685.828 162.666 687.341 168.926 691.023 173.911L752.544 257.228C758.386 265.138 768.61 268.46 777.985 265.494Z" stroke="url(#paint15_linear_745_321)" stroke-opacity="0.5" stroke-width="4"/>
<path opacity="0.231884" d="M760.341 263.4L859.747 237.792C865.759 236.244 870.889 232.33 873.972 226.942L950.345 93.4658C952.834 89.1161 953.834 84.0725 953.194 79.1022L936.285 -52.0472C935.204 -60.4325 929.609 -67.5486 921.716 -70.5785L838.986 -102.336C831.092 -105.366 822.173 -103.821 815.759 -98.3126L715.437 -12.1638C711.635 -8.89898 709.004 -4.48171 707.943 0.416114L675.386 150.712C674.072 156.779 675.266 163.12 678.697 168.294L735.436 253.84C740.853 262.007 750.85 265.845 760.341 263.4Z" stroke="url(#paint16_linear_745_321)" stroke-opacity="0.5" stroke-width="4"/>
<path opacity="0.246377" d="M743.043 260.878L842.795 240.887C848.892 239.665 854.235 236.026 857.605 230.799L939.969 103.063C942.695 98.8356 943.96 93.831 943.57 88.8159L933.429 -41.5854C932.774 -50.0002 927.564 -57.3806 919.853 -60.8136L839.495 -96.5915C831.784 -100.024 822.813 -98.9584 816.121 -93.8141L712.428 -14.0951C708.441 -11.0292 705.568 -6.74046 704.25 -1.8859L664.436 144.795C662.807 150.796 663.677 157.202 666.849 162.551L718.74 250.058C723.722 258.458 733.466 262.797 743.043 260.878Z" stroke="url(#paint17_linear_745_321)" stroke-opacity="0.5" stroke-width="4"/>
<path opacity="0.26087" d="M726.112 257.953L825.897 243.543C832.063 242.653 837.604 239.3 841.252 234.25L929.217 112.511C932.175 108.419 933.703 103.466 933.566 98.4189L930.069 -30.8893C929.841 -39.3117 925.026 -46.9355 917.519 -50.7606L839.724 -90.3991C832.217 -94.2242 823.219 -93.6383 816.271 -88.872L709.603 -15.696C705.439 -12.8396 702.331 -8.69236 700.758 -3.8942L653.974 138.827C652.034 144.747 652.578 151.201 655.482 156.712L702.476 245.91C707.013 254.521 716.479 259.344 726.112 257.953Z" stroke="url(#paint18_linear_745_321)" stroke-opacity="0.5" stroke-width="4"/>
<path opacity="0.275362" d="M709.565 254.647L809.076 245.766C815.292 245.211 821.016 242.154 824.934 237.296L918.1 121.788C921.282 117.842 923.072 112.956 923.191 107.888L926.197 -19.9926C926.394 -28.4008 921.987 -36.2464 914.703 -40.4516L839.653 -83.7817C832.369 -87.987 823.371 -87.8813 816.188 -83.506L706.943 -16.9626C702.614 -14.3257 699.277 -10.3326 697.451 -5.60389L644.001 132.835C641.753 138.656 641.968 145.142 644.595 150.802L686.659 241.422C690.742 250.219 699.905 255.509 709.565 254.647Z" stroke="url(#paint19_linear_745_321)" stroke-opacity="0.5" stroke-width="4"/>
<path opacity="0.289855" d="M693.42 250.988L792.354 247.565C798.602 247.349 804.493 244.599 808.671 239.947L906.629 130.876C910.029 127.09 912.078 122.283 912.454 117.208L921.805 -8.92327C922.426 -17.2955 918.436 -25.3409 911.395 -29.9132L839.26 -76.7579C832.219 -81.3302 823.247 -81.7031 815.851 -77.7308L704.428 -17.8858C699.944 -15.478 696.386 -11.6513 694.311 -7.00504L634.512 126.847C631.962 132.555 631.845 139.056 634.189 144.852L671.302 236.625C674.925 245.584 683.762 251.322 693.42 250.988Z" stroke="url(#paint20_linear_745_321)" stroke-opacity="0.5" stroke-width="4"/>
<path opacity="0.304348" d="M677.691 247.002L775.754 248.951C782.016 249.075 788.058 246.641 792.484 242.21L894.817 139.757C898.428 136.142 900.732 131.428 901.367 126.359L916.89 2.2868C917.931 -6.02801 914.366 -14.2506 907.587 -19.176L838.528 -69.3504C831.749 -74.2758 822.827 -75.1245 815.241 -71.5657L702.039 -18.4615C697.413 -16.2917 693.642 -12.6435 691.32 -8.09254L625.505 120.892C622.658 126.471 622.209 132.969 624.263 138.886L656.42 231.547C659.577 240.643 668.065 246.81 677.691 247.002Z" stroke="url(#paint21_linear_745_321)" stroke-opacity="0.5" stroke-width="4"/>
<path opacity="0.318841" d="M662.392 242.712L759.296 249.933C765.553 250.399 771.729 248.288 776.392 244.09L882.679 148.413C886.492 144.98 889.048 140.372 889.941 135.321L911.449 13.6053C912.904 5.36919 909.774 -3.00787 903.274 -8.27134L837.439 -61.5837C830.939 -66.8472 822.094 -68.1674 814.34 -65.0314L699.757 -18.6872C695.001 -16.7637 691.025 -13.3056 688.461 -8.86272L616.972 114.994C613.835 120.428 613.055 126.908 614.812 132.932L642.022 226.216C644.708 235.425 652.827 242 662.392 242.712Z" stroke="url(#paint22_linear_745_321)" stroke-opacity="0.5" stroke-width="4"/>
<path opacity="0.333333" d="M647.535 238.149L742.999 250.523C749.233 251.331 755.527 249.552 760.415 245.6L870.229 156.827C874.235 153.588 877.038 149.099 878.189 144.078L905.48 25.0023C907.344 16.8657 904.654 8.35748 898.451 2.77188L835.976 -53.4805C829.773 -59.0661 821.03 -60.8521 813.133 -58.147L697.562 -18.5589C692.689 -16.8897 688.517 -13.6329 685.715 -9.31056L608.907 109.181C605.488 114.456 604.376 120.901 605.832 127.016L628.116 220.664C630.329 229.961 638.059 236.921 647.535 238.149Z" stroke="url(#paint23_linear_745_321)" stroke-opacity="0.5" stroke-width="4"/>
<path opacity="0.347826" d="M633.13 233.339L726.885 250.735C733.077 251.884 739.469 250.443 744.57 246.75L857.483 164.985C861.673 161.951 864.717 157.594 866.125 152.616L898.984 36.4478C901.251 28.4313 899.006 19.8153 893.115 13.9244L834.126 -45.0645C828.236 -50.9554 819.62 -53.2002 811.603 -50.9327L695.435 -18.0743C690.457 -16.6664 686.1 -13.6218 683.066 -9.43231L601.301 103.48C597.607 108.581 596.167 114.974 597.316 121.166L614.712 214.921C616.448 224.28 623.771 231.603 633.13 233.339Z" stroke="url(#paint24_linear_745_321)" stroke-opacity="0.5" stroke-width="4"/>
<path opacity="0.362319" d="M619.185 228.31L710.97 250.583C717.102 252.071 723.576 250.974 728.876 247.55L844.457 172.872C848.82 170.053 852.1 165.84 853.764 160.918L891.963 47.9108C894.626 40.0344 892.83 31.3343 887.267 25.1557L831.877 -36.3611C826.313 -42.5398 817.849 -45.235 809.737 -43.4105L693.356 -17.233C688.288 -16.0931 683.755 -13.2711 680.495 -9.22645L594.144 97.9157C590.185 102.829 588.418 109.152 589.256 115.406L601.813 209.017C603.073 218.414 609.971 226.075 619.185 228.31Z" stroke="url(#paint25_linear_745_321)" stroke-opacity="0.5" stroke-width="4"/>
<path opacity="0.376812" d="M605.707 223.09L695.273 250.08C701.326 251.904 707.862 251.156 713.347 248.012L831.167 180.473C835.694 177.879 839.203 173.822 841.12 168.97L884.422 59.3607C887.471 51.6441 886.127 42.8836 880.905 36.4356L829.215 -27.3964C823.994 -33.8444 815.704 -36.9804 807.522 -35.6029L691.305 -16.0362C686.16 -15.17 681.463 -12.5804 677.984 -8.69252L587.425 92.511C583.209 97.2221 581.118 103.461 581.644 109.761L589.423 202.981C590.208 212.391 596.665 220.365 605.707 223.09Z" stroke="url(#paint26_linear_745_321)" stroke-opacity="0.5" stroke-width="4"/>
<path opacity="0.391304" d="M592.701 217.707L679.809 249.243C685.765 251.399 692.346 251.004 698.001 248.15L817.633 187.777C822.311 185.416 826.043 181.529 828.21 176.758L876.367 70.7684C879.792 63.2304 878.901 54.4334 874.034 47.7352L826.133 -18.196C821.266 -24.8942 813.175 -28.4599 804.948 -27.532L689.264 -14.4848C684.057 -13.8975 679.207 -11.5497 675.516 -7.83005L581.13 87.2904C576.668 91.7866 574.258 97.9236 574.469 104.254L577.544 196.844C577.856 206.243 583.859 214.505 592.701 217.707Z" stroke="url(#paint27_linear_745_321)" stroke-opacity="0.5" stroke-width="4"/>
<path opacity="0.405797" d="M580.172 212.188L664.595 248.087C670.435 250.57 677.042 250.53 682.852 247.976L803.871 194.771C808.69 192.653 812.636 188.946 815.051 184.269L867.805 82.1043C871.596 74.7635 871.158 65.9538 866.658 59.025L822.621 -8.78623C818.121 -15.715 810.251 -19.6982 802.004 -19.2212L687.214 -12.5818C681.96 -12.2778 676.968 -10.1807 673.073 -6.64033L575.245 82.276C570.549 86.5446 567.825 92.564 567.718 98.9095L566.176 190.635C566.018 199.999 571.554 208.523 580.172 212.188Z" stroke="url(#paint28_linear_745_321)" stroke-opacity="0.5" stroke-width="4"/>
<path opacity="0.42029" d="M568.121 206.563L649.645 246.63C655.351 249.435 661.965 249.752 667.914 247.506L789.901 201.447C794.848 199.579 799 196.064 801.659 191.493L858.745 93.3419C862.89 86.2162 862.904 77.4173 858.782 70.2783L818.674 0.808156C814.552 -6.33082 806.925 -10.7181 798.682 -10.6917L685.136 -10.3288C679.849 -10.3119 674.728 -8.4736 670.637 -5.12343L569.756 77.4913C564.836 81.5202 561.804 87.406 561.38 93.7507L555.317 184.386C554.695 193.69 559.752 202.45 568.121 206.563Z" stroke="url(#paint29_linear_745_321)" stroke-opacity="0.5" stroke-width="4"/>
<path opacity="0.434783" d="M556.548 200.858L634.971 244.889C640.527 248.009 647.128 248.684 653.2 246.753L775.742 207.794C780.805 206.184 785.154 202.872 788.051 198.419L849.199 104.452C853.685 97.5584 854.148 88.7939 850.414 81.4656L814.285 10.559C810.551 3.23067 803.189 -1.54601 794.975 -1.96883L683.012 -7.73211C677.707 -8.00519 672.471 -6.43346 668.193 -3.28387L564.646 72.955C559.515 76.7327 556.181 82.4695 555.439 88.7977L544.964 178.125C543.883 187.346 548.452 196.313 556.548 200.858Z" stroke="url(#paint30_linear_745_321)" stroke-opacity="0.5" stroke-width="4"/>
<path opacity="0.449275" d="M545.452 195.102L620.588 242.883C625.975 246.309 632.544 247.341 638.722 245.733L761.414 213.803C766.579 212.459 771.116 209.36 774.247 205.038L839.177 115.408C843.991 108.763 844.9 100.056 841.563 92.5602L809.453 20.4403C806.115 12.944 799.037 7.79365 790.877 6.92462L680.823 -4.79659C675.516 -5.36183 670.177 -4.06372 665.722 -1.1247L559.896 68.6872C554.567 72.2029 550.939 77.7754 549.88 84.0714L535.112 171.88C533.579 180.995 537.652 190.142 545.452 195.102Z" stroke="url(#paint31_linear_745_321)" stroke-opacity="0.5" stroke-width="4"/>
<path opacity="0.463768" d="M534.83 189.322L606.504 240.629C611.706 244.353 618.224 245.742 624.492 244.463L746.936 219.468C752.191 218.396 756.905 215.521 760.264 211.34L828.694 126.185C833.822 119.804 835.172 111.178 832.238 103.536L804.174 30.426C801.24 22.7834 794.466 17.2762 786.385 15.9652L678.552 -1.52843C673.258 -2.38722 667.831 -1.36916 663.208 1.34972L555.49 64.7066C549.976 67.9499 546.061 73.3434 544.687 79.5914L525.754 165.68C523.778 174.666 527.348 183.966 534.83 189.322Z" stroke="url(#paint32_linear_745_321)" stroke-opacity="0.5" stroke-width="4"/>
<path opacity="0.478261" d="M524.678 183.544L592.731 238.148C597.731 242.159 604.178 243.902 610.519 242.957L732.329 224.783C737.659 223.988 742.541 221.347 746.122 217.319L817.766 136.758C823.193 130.656 824.977 122.133 822.453 114.367L798.449 40.4895C795.925 32.7227 789.473 26.8765 781.495 25.1294L676.182 2.06493C670.918 0.911997 665.416 1.64424 660.636 4.13387L551.407 61.03C545.722 63.9915 541.53 69.1914 539.843 75.376L516.882 159.552C514.472 168.388 517.534 177.812 524.678 183.544Z" stroke="url(#paint33_linear_745_321)" stroke-opacity="0.5" stroke-width="4"/>
<path opacity="0.492754" d="M514.99 177.795L579.277 235.458C584.059 239.748 590.417 241.842 596.812 241.233L717.614 229.745C723.005 229.232 728.043 226.833 731.84 222.971L806.407 147.105C812.117 141.295 814.328 132.898 812.22 125.029L792.279 50.6063C790.17 42.7377 784.057 36.5714 776.207 34.3951L673.696 5.97684C668.477 4.52998 662.915 4.9713 657.989 7.22305L547.627 57.6749C541.785 60.3458 537.326 65.3382 535.329 71.4438L508.487 153.525C505.653 162.189 508.204 171.709 514.99 177.795Z" stroke="url(#paint34_linear_745_321)" stroke-opacity="0.5" stroke-width="4"/>
<path opacity="0.507246" d="M505.759 172.1L566.149 232.579C570.698 237.134 576.947 239.575 583.379 239.307L702.81 234.347C708.249 234.121 713.431 231.974 717.436 228.287L794.636 157.2C800.614 151.695 803.243 143.446 801.554 135.498L785.665 60.7484C783.976 52.8004 778.218 46.3337 770.519 43.7367L671.079 10.1957C665.921 8.45596 660.313 8.60195 655.253 10.6077L544.13 54.6534C538.145 57.0254 533.429 61.7968 531.126 67.8083L500.556 147.622C497.311 156.093 499.349 165.681 505.759 172.1Z" stroke="url(#paint35_linear_745_321)" stroke-opacity="0.5" stroke-width="4"/>
<path opacity="0.521739" d="M496.976 166.485L553.355 229.532C557.656 234.341 563.778 237.122 570.228 237.199L687.94 238.59C693.411 238.655 698.726 236.767 702.93 233.266L782.472 167.025C788.699 161.838 791.738 153.757 790.47 145.753L778.614 70.8934C777.346 62.8889 771.959 56.1423 764.433 53.1343L668.315 14.7149C663.234 12.6841 657.596 12.5311 652.413 14.2833L540.893 51.9817C534.781 54.0476 529.819 58.585 527.215 64.4872L493.077 141.87C489.434 150.129 490.959 159.756 496.976 166.485Z" stroke="url(#paint36_linear_745_321)" stroke-opacity="0.5" stroke-width="4"/>
<path opacity="0.536232" d="M488.631 160.973L540.9 226.335C544.937 231.384 550.913 234.5 557.364 234.921L673.022 242.471C678.511 242.829 683.946 241.208 688.342 237.903L769.934 176.557C776.394 171.7 779.831 163.808 778.986 155.769L771.129 81.0139C770.284 72.9755 765.281 65.9705 757.952 62.5625L665.389 19.521C660.402 17.2019 654.748 16.7469 649.454 18.2384L537.894 49.6691C531.671 51.4222 526.473 55.7133 523.574 61.4914L486.037 136.292C482.009 144.32 483.022 153.958 488.631 160.973Z" stroke="url(#paint37_linear_745_321)" stroke-opacity="0.5" stroke-width="4"/>
<path opacity="0.550725" d="M480.713 155.588L528.786 223.01C532.547 228.285 538.359 231.729 544.793 232.495L658.078 245.99C663.569 246.644 669.112 245.298 673.691 242.198L757.042 185.78C763.717 181.262 767.54 173.579 767.118 165.529L763.217 91.0879C762.795 83.0384 758.19 75.7971 751.079 72.0014L662.287 24.605C657.409 22.0011 651.756 21.2418 646.364 22.4662L535.109 47.7282C528.791 49.1628 523.371 53.1957 520.182 58.8352L479.42 130.913C475.021 138.691 475.526 148.312 480.713 155.588Z" stroke="url(#paint38_linear_745_321)" stroke-opacity="0.5" stroke-width="4"/>
<path opacity="0.565217" d="M473.21 150.353L517.018 219.577C520.491 225.063 526.12 228.827 532.517 229.938L643.129 249.149C648.607 250.101 654.244 249.036 658.997 246.151L743.82 194.677C750.692 190.507 754.888 183.052 754.888 175.014V101.092C754.888 93.054 750.692 85.5992 743.82 81.4292L658.997 29.955C654.244 27.0706 648.607 26.0056 643.129 26.957L532.517 46.1683C526.12 47.2795 520.491 51.0428 517.018 56.5295L473.21 125.754C468.456 133.264 468.456 142.842 473.21 150.353Z" stroke="url(#paint39_linear_745_321)" stroke-opacity="0.5" stroke-width="4"/>
<path opacity="0.57971" d="M466.107 145.287L505.597 216.054C508.768 221.737 514.198 225.81 520.541 227.264L628.194 251.949C633.644 253.199 639.361 252.421 644.279 249.761L730.289 203.23C737.338 199.416 741.894 192.208 742.313 184.204L746.15 111.002C746.569 102.998 742.792 95.3529 736.18 90.8233L655.505 35.5567C650.892 32.3971 645.287 31.0256 639.737 31.6987L530.094 44.9955C523.633 45.779 517.807 49.2623 514.06 54.5823L467.388 120.834C462.297 128.061 461.798 137.567 466.107 145.287Z" stroke="url(#paint40_linear_745_321)" stroke-opacity="0.5" stroke-width="4"/>
<path opacity="0.594203" d="M459.39 140.414L494.524 212.463C497.383 218.326 502.596 222.699 508.866 224.494L613.294 254.395C618.699 255.942 624.484 255.457 629.556 253.029L716.472 211.425C723.68 207.975 728.581 201.031 729.416 193.083L737.014 120.796C737.849 112.849 734.499 105.038 728.166 100.164L651.799 41.3984C647.343 37.9695 641.786 36.2916 636.177 36.6816L527.814 44.2173C521.308 44.6698 515.299 47.8633 511.284 53.003L461.937 116.174C456.525 123.102 455.536 132.511 459.39 140.414Z" stroke="url(#paint41_linear_745_321)" stroke-opacity="0.5" stroke-width="4"/>
<path opacity="0.608696" d="M453.043 135.751L483.798 208.825C486.334 214.85 491.313 219.511 497.493 221.644L598.448 256.49C603.794 258.336 609.632 258.147 614.847 255.96L702.394 219.251C709.741 216.17 714.971 209.507 716.217 201.638L727.491 130.455C728.737 122.587 725.823 114.633 719.787 109.433L647.869 47.4668C643.585 43.7756 638.091 41.792 632.437 41.8949L525.654 43.8391C519.118 43.9581 512.942 46.8525 508.668 51.7989L456.837 111.792C451.121 118.408 449.651 127.693 453.043 135.751Z" stroke="url(#paint42_linear_745_321)" stroke-opacity="0.5" stroke-width="4"/>
<path opacity="0.623188" d="M447.049 131.317L473.417 205.157C475.621 211.327 480.351 216.265 486.421 218.731L583.676 258.242C588.946 260.383 594.822 260.495 600.17 258.556L688.078 226.695C695.545 223.989 701.087 217.622 702.739 209.853L717.595 139.958C719.247 132.19 716.773 124.119 711.053 118.61L643.704 53.7474C639.607 49.8015 634.193 47.5139 628.508 47.3263L523.59 43.864C517.042 43.6479 510.712 46.2346 506.19 50.9751L452.068 107.706C446.067 113.996 444.125 123.131 447.049 131.317Z" stroke="url(#paint43_linear_745_321)" stroke-opacity="0.5" stroke-width="4"/>
<path opacity="0.637681" d="M441.391 127.13L463.379 201.479C465.242 207.777 469.707 212.978 475.65 215.771L568.997 259.654C574.175 262.089 580.076 262.506 585.545 260.823L673.551 233.748C681.118 231.42 686.955 225.364 689.004 217.717L707.34 149.286C709.389 141.639 707.362 133.476 701.973 127.676L639.295 60.2254C635.4 56.0335 630.082 53.4441 624.379 52.9632L521.597 44.2936C515.054 43.7417 508.586 46.0131 503.825 50.5356L447.607 103.93C441.342 109.882 438.94 118.843 441.391 127.13Z" stroke="url(#paint44_linear_745_321)" stroke-opacity="0.5" stroke-width="4"/>
<path opacity="0.652174" d="M436.051 123.204L453.68 197.811C455.194 204.216 459.379 209.667 465.178 212.782L554.428 260.737C559.5 263.462 565.409 264.186 570.989 262.765L658.837 240.4C666.483 238.454 672.598 232.723 675.036 225.219L696.741 158.419C699.179 150.915 697.6 142.684 692.558 136.615L634.634 66.8858C630.955 62.4571 625.749 59.5693 620.044 58.7928L519.652 45.1287C513.129 44.241 506.54 46.1901 501.55 50.4828L443.435 100.479C436.923 106.081 434.075 114.844 436.051 123.204Z" stroke="url(#paint45_linear_745_321)" stroke-opacity="0.5" stroke-width="4"/>
<path opacity="0.666667" d="M431.008 119.555L444.315 194.17C445.473 200.665 449.365 206.35 455.001 209.78L539.988 261.498C544.937 264.51 550.841 265.543 556.519 264.391L643.96 246.647C651.667 245.084 658.041 239.691 660.859 232.349L685.812 167.343C688.63 160.002 687.502 151.729 682.822 145.41L629.712 73.7145C626.264 69.0591 621.185 65.8767 615.492 64.8032L517.729 46.3694C511.245 45.1469 504.549 46.7675 499.342 50.8193L439.526 97.3653C432.789 102.608 429.509 111.151 431.008 119.555Z" stroke="url(#paint46_linear_745_321)" stroke-opacity="0.5" stroke-width="4"/>
<path opacity="0.681159" d="M426.244 116.196L435.278 190.575C436.075 197.14 439.66 203.044 445.117 206.78L525.695 261.946C530.506 265.24 536.388 266.584 542.152 265.705L628.949 252.482C636.696 251.302 643.309 246.258 646.496 239.099L674.572 176.04C677.759 168.881 677.082 160.592 672.776 154.045L624.524 80.6941C621.32 75.823 616.385 72.3507 610.719 70.9794L515.805 48.0118C509.377 46.4563 502.591 47.743 497.178 51.5434L435.859 94.5995C428.917 99.4742 425.221 107.775 426.244 116.196Z" stroke="url(#paint47_linear_745_321)" stroke-opacity="0.5" stroke-width="4"/>
<path opacity="0.695652" d="M421.738 113.14L426.562 187.043C426.994 193.658 430.259 199.766 435.52 203.799L511.564 262.094C516.221 265.664 522.067 267.32 527.905 266.72L613.827 257.903C621.595 257.106 628.427 252.423 631.972 245.465L663.037 184.497C666.582 177.54 666.355 169.259 662.434 162.506L619.064 87.8111C616.117 82.7361 611.342 78.9795 605.716 77.3102L513.857 50.0546C507.501 48.1689 500.641 49.1171 495.036 52.656L432.411 92.1931C425.284 96.6924 421.189 104.729 421.738 113.14Z" stroke="url(#paint48_linear_745_321)" stroke-opacity="0.5" stroke-width="4"/>
<path opacity="0.710145" d="M417.47 110.395L418.16 183.591C418.223 190.236 421.157 196.529 426.206 200.849L497.612 261.951C502.1 265.792 507.895 267.758 513.794 267.443L598.621 262.906C606.39 262.491 613.422 258.176 617.312 251.439L651.226 192.698C655.116 185.961 655.336 177.714 651.812 170.778L613.326 95.0472C610.65 89.7808 606.05 85.746 600.479 83.7793L511.861 52.4904C505.595 50.278 498.678 50.8839 492.892 54.1521L429.157 90.152C421.867 94.2696 417.391 102.023 417.47 110.395Z" stroke="url(#paint49_linear_745_321)" stroke-opacity="0.5" stroke-width="4"/>
<path opacity="0.724638" d="M413.417 107.973L410.063 180.235C409.754 186.889 412.346 193.351 417.167 197.948L483.853 261.53C488.158 265.634 493.885 267.911 499.833 267.884L583.357 267.492C591.107 267.456 598.318 263.519 602.539 257.019L639.156 200.633C643.377 194.134 644.041 185.945 640.922 178.85L607.307 102.388C604.913 96.9432 600.503 92.6374 595.003 90.3743L509.794 55.3146C503.634 52.7798 496.677 53.0405 490.724 56.0292L426.073 88.4845C418.642 92.2153 413.803 99.6669 413.417 107.973Z" stroke="url(#paint50_linear_745_321)" stroke-opacity="0.5" stroke-width="4"/>
<path opacity="0.73913" d="M409.559 105.882L402.262 176.991C401.58 183.634 403.819 190.246 408.398 195.107L470.303 260.844C474.409 265.204 480.054 267.791 486.037 268.054L568.06 271.662C575.772 272.002 583.14 268.449 587.678 262.204L626.848 208.291C631.385 202.045 632.487 193.94 629.781 186.71L601.003 109.816C598.904 104.207 594.7 99.6385 589.284 97.081L507.635 58.5191C501.596 55.6672 494.617 55.5806 488.509 58.2817L423.135 87.1953C415.583 90.5354 410.402 97.6676 409.559 105.882Z" stroke="url(#paint51_linear_745_321)" stroke-opacity="0.5" stroke-width="4"/>
<path opacity="0.753623" d="M405.873 104.127L394.746 173.874C393.691 180.485 395.569 187.227 399.89 192.341L456.975 259.907C460.868 264.514 466.414 267.408 472.419 267.965L552.755 275.418C560.411 276.129 567.915 272.966 572.754 266.991L614.32 215.661C619.159 209.685 620.692 201.687 618.406 194.346L594.413 117.316C592.619 111.558 588.635 106.734 583.32 103.885L505.361 62.0948C499.461 58.9319 492.475 58.4967 486.228 60.9028L420.319 86.2877C412.668 89.2344 407.165 96.031 405.873 104.127Z" stroke="url(#paint52_linear_745_321)" stroke-opacity="0.5" stroke-width="4"/>
<path opacity="0.768116" d="M402.338 102.715L387.504 170.897C386.078 177.455 387.587 184.309 391.635 189.662L443.881 258.734C447.546 263.579 452.979 266.777 458.994 267.63L537.466 278.765C545.047 279.841 552.666 277.073 557.79 271.383L601.593 222.734C606.717 217.044 608.673 209.178 606.81 201.751L587.534 124.872C586.057 118.979 582.308 113.91 577.106 110.772L502.952 66.0322C497.205 62.5651 490.231 61.781 483.858 63.8854L417.6 85.7645C409.872 88.3164 404.068 94.7626 402.338 102.715Z" stroke="url(#paint53_linear_745_321)" stroke-opacity="0.5" stroke-width="4"/>
<path opacity="0.782609" d="M398.931 101.649L380.526 168.074C378.729 174.558 379.862 181.504 383.625 187.081L431.034 257.338C434.457 262.411 439.761 265.911 445.772 267.062L522.22 281.708C529.707 283.142 537.42 280.773 542.811 275.382L588.688 229.505C594.079 224.114 596.448 216.402 595.013 208.914L580.368 132.466C579.216 126.455 575.717 121.152 570.644 117.728L500.387 70.3196C494.81 66.5561 487.864 65.4234 481.38 67.2201L414.955 85.6258C407.171 87.7827 401.088 93.8649 398.931 101.649Z" stroke="url(#paint54_linear_745_321)" stroke-opacity="0.5" stroke-width="4"/>
<path opacity="0.797101" d="M395.632 100.932L373.798 165.418C371.634 171.807 372.385 178.824 375.851 184.611L418.444 255.736C421.612 261.027 426.772 264.823 432.765 266.274L507.038 284.253C514.415 286.039 522.198 284.07 527.839 278.991L575.623 235.966C581.264 230.887 584.036 223.353 583.031 215.829L572.914 140.084C572.097 133.972 568.861 128.444 563.931 124.74L497.647 74.9449C492.254 70.8934 485.354 69.4136 478.774 70.8971L412.359 85.8711C404.54 87.634 398.202 93.3401 395.632 100.932Z" stroke="url(#paint55_linear_745_321)" stroke-opacity="0.5" stroke-width="4"/>
<path opacity="0.811594" d="M392.417 100.566L367.307 162.941C364.782 169.215 365.145 176.282 368.301 182.263L406.121 253.946C409.021 259.442 414.021 263.531 419.984 265.282L491.944 286.412C499.194 288.54 507.027 286.973 512.898 282.218L562.421 242.115C568.293 237.36 571.455 230.025 570.88 222.491L565.173 147.71C564.7 141.514 561.74 135.773 556.967 131.794L494.714 79.8959C489.519 75.5655 482.682 73.7407 476.021 74.9066L409.788 86.4993C401.955 87.8702 395.387 93.1895 392.417 100.566Z" stroke="url(#paint56_linear_745_321)" stroke-opacity="0.5" stroke-width="4"/>
<path opacity="0.826087" d="M389.265 100.549L361.041 160.652C358.159 166.789 358.132 173.885 360.966 180.044L394.075 251.981C396.694 257.671 401.519 262.046 407.437 264.097L476.961 288.19C484.067 290.652 491.927 289.485 498.011 285.065L549.101 247.946C555.185 243.526 558.723 236.411 558.577 228.892L557.148 155.326C557.026 149.064 554.356 143.123 549.754 138.874L491.569 85.156C486.587 80.5567 479.83 78.3898 473.103 79.2343L407.219 87.5044C399.394 88.4867 392.618 93.41 389.265 100.549Z" stroke="url(#paint57_linear_745_321)" stroke-opacity="0.5" stroke-width="4"/>
<path opacity="0.84058" d="M386.155 100.881L354.985 158.561C351.754 164.542 351.333 171.646 353.836 177.966L382.313 249.86C384.638 255.731 389.275 260.387 395.135 262.738L462.11 289.6C469.056 292.386 476.923 291.619 483.199 287.543L535.684 253.459C541.96 249.383 545.861 242.509 546.141 235.03L548.842 162.919C549.078 156.609 546.71 150.48 542.293 145.968L488.197 90.711C483.441 85.8535 476.781 83.3484 470.003 83.8683L404.631 88.8828C396.833 89.4809 389.873 94.0005 386.155 100.881Z" stroke="url(#paint58_linear_745_321)" stroke-opacity="0.5" stroke-width="4"/>
<path opacity="0.855072" d="M383.066 101.559L349.126 156.679C345.552 162.482 344.737 169.572 346.899 176.036L370.842 247.601C372.862 253.638 377.294 258.569 383.084 261.218L447.413 290.655C454.183 293.754 462.035 293.383 468.483 289.66L522.19 258.652C528.638 254.929 532.886 248.315 533.588 240.902L540.259 170.473C540.859 164.135 538.805 157.831 534.587 153.063L484.581 96.5448C480.065 91.4403 473.517 88.6017 466.704 88.7947L401.999 90.6278C394.249 90.8474 387.131 94.957 383.066 101.559Z" stroke="url(#paint59_linear_745_321)" stroke-opacity="0.5" stroke-width="4"/>
<path opacity="0.869565" d="M379.976 102.58L343.448 155.012C339.541 160.619 338.331 167.672 340.144 174.261L359.669 245.221C361.372 251.411 365.586 256.608 371.29 259.554L432.888 291.368C439.469 294.767 447.285 294.789 453.884 291.426L508.64 263.526C515.24 260.164 519.816 253.828 520.935 246.506L531.403 177.973C532.373 171.626 530.645 165.162 526.638 160.146L480.707 102.64C476.442 97.301 470.024 94.1344 463.192 93.9989L399.303 92.7322C391.62 92.5799 384.368 96.2748 379.976 102.58Z" stroke="url(#paint60_linear_745_321)" stroke-opacity="0.5" stroke-width="4"/>
<path opacity="0.884058" d="M376.865 103.938L337.936 153.567C333.707 158.958 332.102 165.954 333.558 172.649L348.798 242.737C350.174 249.066 354.154 254.521 359.761 257.762L418.555 291.753C424.933 295.44 432.692 295.849 439.422 292.853L495.054 268.084C501.784 265.087 506.671 259.048 508.199 251.841L522.28 185.404C523.623 179.068 522.233 172.46 518.45 167.203L476.562 108.98C472.561 103.418 466.288 99.9298 459.452 99.465L396.522 95.1866C388.925 94.6701 381.565 97.9471 376.865 103.938Z" stroke="url(#paint61_linear_745_321)" stroke-opacity="0.5" stroke-width="4"/>
<path opacity="0.898551" d="M373.714 105.629L332.576 152.352C328.036 157.509 326.039 164.424 327.131 171.207L338.233 240.17C339.271 246.621 343.004 252.326 348.5 255.86L404.432 291.826C410.594 295.788 418.275 296.578 425.115 293.953L481.45 272.328C488.29 269.702 493.469 263.976 495.397 256.908L512.897 192.754C514.616 186.45 513.573 179.712 510.028 174.223L472.133 115.546C468.406 109.775 462.295 105.972 455.471 105.178L393.635 97.9817C386.142 97.1098 378.699 99.9672 373.714 105.629Z" stroke="url(#paint62_linear_745_321)" stroke-opacity="0.5" stroke-width="4"/>
<path opacity="0.913043" d="M370.504 107.642L327.352 151.37C322.514 156.273 320.128 163.086 320.85 169.936L327.977 237.534C328.668 244.092 332.141 250.037 337.512 253.861L390.536 291.602C396.47 295.826 404.054 296.989 410.981 294.738L467.85 276.26C474.777 274.01 480.228 268.611 482.546 261.706L503.259 200.006C505.358 193.755 504.673 186.904 501.377 181.193L467.41 122.316C463.968 116.35 458.032 112.24 451.236 111.118L390.624 101.104C383.253 99.8867 375.751 102.324 370.504 107.642Z" stroke="url(#paint63_linear_745_321)" stroke-opacity="0.5" stroke-width="4"/>
<path opacity="0.927536" d="M367.215 109.971L322.249 150.626C317.126 155.258 314.356 161.947 314.704 168.845L318.032 234.851C318.367 241.498 321.565 247.674 326.8 251.784L376.881 291.1C382.576 295.571 390.043 297.099 397.036 295.225L454.269 279.89C461.263 278.016 466.965 272.958 469.662 266.239L493.376 207.15C495.854 200.973 495.536 194.026 492.503 188.102L462.382 129.275C459.234 123.127 453.49 118.719 446.738 117.269L387.468 104.544C380.237 102.991 372.701 105.011 367.215 109.971Z" stroke="url(#paint64_linear_745_321)" stroke-opacity="0.5" stroke-width="4"/>
<path opacity="0.942029" d="M363.831 112.607L317.251 150.124C311.858 154.468 308.709 161.01 308.679 167.935L308.398 232.138C308.369 238.858 311.279 245.254 316.365 249.646L363.483 290.338C368.929 295.041 376.261 296.924 383.298 295.428L440.728 283.221C447.766 281.725 453.698 277.022 456.76 270.511L483.254 214.173C486.113 208.092 486.171 201.065 483.411 194.938L457.041 136.4C454.196 130.086 448.658 125.39 441.965 123.615L384.153 108.287C377.077 106.411 369.531 108.015 363.831 112.607Z" stroke="url(#paint65_linear_745_321)" stroke-opacity="0.5" stroke-width="4"/>
<path opacity="0.956522" d="M360.334 115.538L312.343 149.864C306.695 153.904 303.175 160.278 302.764 167.21L299.076 229.413C298.674 236.187 301.284 242.793 306.208 247.463L350.355 289.334C355.541 294.253 362.72 296.481 369.78 295.363L427.244 286.261C434.304 285.143 440.443 280.806 443.856 274.525L472.903 221.061C476.142 215.098 476.584 208.009 474.108 201.691L451.379 143.672C448.846 137.206 443.528 132.231 436.909 130.135L380.659 112.319C373.755 110.132 366.224 111.324 360.334 115.538Z" stroke="url(#paint66_linear_745_321)" stroke-opacity="0.5" stroke-width="4"/>
<path opacity="0.971014" d="M356.707 118.753L307.509 149.849C301.623 153.568 297.74 159.754 296.946 166.671L290.064 226.695C289.283 233.504 291.58 240.308 296.329 245.25L337.507 288.107C342.427 293.227 349.435 295.788 356.496 295.046L413.832 289.019C420.894 288.277 427.216 284.315 430.964 278.284L462.332 227.803C465.95 221.981 466.782 214.849 464.602 208.35L445.39 151.068C443.176 144.468 438.092 139.225 431.562 136.81L376.973 116.623C370.255 114.139 362.762 114.926 356.707 118.753Z" stroke="url(#paint67_linear_745_321)" stroke-opacity="0.5" stroke-width="4"/>
<path opacity="0.985507" d="M352.937 122.241L302.733 150.078C296.628 153.464 292.391 159.438 291.215 166.32L281.36 224.001C280.193 230.828 282.165 237.817 286.728 243.027L324.952 286.679C329.597 291.983 336.419 294.864 343.46 294.495L400.511 291.505C407.552 291.136 414.034 287.558 418.099 281.797L451.552 234.389C455.545 228.73 456.775 221.574 454.902 214.906L439.071 158.571C437.182 151.85 432.344 146.351 425.918 143.623L373.08 121.186C366.561 118.418 359.131 118.807 352.937 122.241Z" stroke="url(#paint68_linear_745_321)" stroke-opacity="0.5" stroke-width="4"/>
<path d="M349.008 125.989L298.002 150.552C291.695 153.589 287.115 159.332 285.558 166.156L272.96 221.349C271.403 228.173 273.037 235.335 277.401 240.807L312.699 285.069C317.063 290.541 323.681 293.729 330.681 293.729H387.293C394.293 293.729 400.911 290.541 405.275 285.069L440.573 240.807C444.937 235.335 446.572 228.173 445.014 221.349L432.417 166.156C430.859 159.332 426.279 153.589 419.973 150.552L368.966 125.989C362.66 122.952 355.314 122.952 349.008 125.989Z" stroke="url(#paint69_linear_745_321)" stroke-opacity="0.5" stroke-width="4"/>
</g>
<defs>
<linearGradient id="paint0_linear_745_321" x1="567" y1="339" x2="567" y2="6.26557e-06" gradientUnits="userSpaceOnUse">
<stop stop-color="#0F58A8"/>
<stop offset="1" stop-color="#0A151B"/>
</linearGradient>
<linearGradient id="paint1_linear_745_321" x1="1039.83" y1="256.914" x2="843.547" y2="-183.949" gradientUnits="userSpaceOnUse">
<stop stop-color="#3B53A4"/>
<stop offset="0.465" stop-color="#2047CE"/>
<stop offset="1" stop-color="#00F0FF"/>
</linearGradient>
<linearGradient id="paint2_linear_745_321" x1="1019.23" y1="262.12" x2="847.81" y2="-184.434" gradientUnits="userSpaceOnUse">
<stop stop-color="#3B53A4"/>
<stop offset="0.465" stop-color="#2047CE"/>
<stop offset="1" stop-color="#00F0FF"/>
</linearGradient>
<linearGradient id="paint3_linear_745_321" x1="998.594" y1="266.659" x2="852.1" y2="-184.204" gradientUnits="userSpaceOnUse">
<stop stop-color="#3B53A4"/>
<stop offset="0.465" stop-color="#2047CE"/>
<stop offset="1" stop-color="#00F0FF"/>
</linearGradient>
<linearGradient id="paint4_linear_745_321" x1="977.973" y1="270.537" x2="856.379" y2="-183.26" gradientUnits="userSpaceOnUse">
<stop stop-color="#3B53A4"/>
<stop offset="0.465" stop-color="#2047CE"/>
<stop offset="1" stop-color="#00F0FF"/>
</linearGradient>
<linearGradient id="paint5_linear_745_321" x1="957.399" y1="273.76" x2="860.606" y2="-181.613" gradientUnits="userSpaceOnUse">
<stop stop-color="#3B53A4"/>
<stop offset="0.465" stop-color="#2047CE"/>
<stop offset="1" stop-color="#00F0FF"/>
</linearGradient>
<linearGradient id="paint6_linear_745_321" x1="936.907" y1="276.336" x2="864.746" y2="-179.272" gradientUnits="userSpaceOnUse">
<stop stop-color="#3B53A4"/>
<stop offset="0.465" stop-color="#2047CE"/>
<stop offset="1" stop-color="#00F0FF"/>
</linearGradient>
<linearGradient id="paint7_linear_745_321" x1="916.532" y1="278.277" x2="868.76" y2="-176.247" gradientUnits="userSpaceOnUse">
<stop stop-color="#3B53A4"/>
<stop offset="0.465" stop-color="#2047CE"/>
<stop offset="1" stop-color="#00F0FF"/>
</linearGradient>
<linearGradient id="paint8_linear_745_321" x1="896.307" y1="279.595" x2="872.611" y2="-172.553" gradientUnits="userSpaceOnUse">
<stop stop-color="#3B53A4"/>
<stop offset="0.465" stop-color="#2047CE"/>
<stop offset="1" stop-color="#00F0FF"/>
</linearGradient>
<linearGradient id="paint9_linear_745_321" x1="876.266" y1="280.305" x2="876.266" y2="-168.204" gradientUnits="userSpaceOnUse">
<stop stop-color="#3B53A4"/>
<stop offset="0.465" stop-color="#2047CE"/>
<stop offset="1" stop-color="#00F0FF"/>
</linearGradient>
<linearGradient id="paint10_linear_745_321" x1="856.44" y1="280.421" x2="879.691" y2="-163.219" gradientUnits="userSpaceOnUse">
<stop stop-color="#3B53A4"/>
<stop offset="0.465" stop-color="#2047CE"/>
<stop offset="1" stop-color="#00F0FF"/>
</linearGradient>
<linearGradient id="paint11_linear_745_321" x1="836.86" y1="279.964" x2="882.851" y2="-157.616" gradientUnits="userSpaceOnUse">
<stop stop-color="#3B53A4"/>
<stop offset="0.465" stop-color="#2047CE"/>
<stop offset="1" stop-color="#00F0FF"/>
</linearGradient>
<linearGradient id="paint12_linear_745_321" x1="817.553" y1="278.951" x2="885.716" y2="-151.416" gradientUnits="userSpaceOnUse">
<stop stop-color="#3B53A4"/>
<stop offset="0.465" stop-color="#2047CE"/>
<stop offset="1" stop-color="#00F0FF"/>
</linearGradient>
<linearGradient id="paint13_linear_745_321" x1="798.548" y1="277.403" x2="888.256" y2="-144.64" gradientUnits="userSpaceOnUse">
<stop stop-color="#3B53A4"/>
<stop offset="0.465" stop-color="#2047CE"/>
<stop offset="1" stop-color="#00F0FF"/>
</linearGradient>
<linearGradient id="paint14_linear_745_321" x1="779.873" y1="275.342" x2="890.444" y2="-137.313" gradientUnits="userSpaceOnUse">
<stop stop-color="#3B53A4"/>
<stop offset="0.465" stop-color="#2047CE"/>
<stop offset="1" stop-color="#00F0FF"/>
</linearGradient>
<linearGradient id="paint15_linear_745_321" x1="761.551" y1="272.791" x2="892.25" y2="-129.461" gradientUnits="userSpaceOnUse">
<stop stop-color="#3B53A4"/>
<stop offset="0.465" stop-color="#2047CE"/>
<stop offset="1" stop-color="#00F0FF"/>
</linearGradient>
<linearGradient id="paint16_linear_745_321" x1="743.606" y1="269.776" x2="893.652" y2="-121.108" gradientUnits="userSpaceOnUse">
<stop stop-color="#3B53A4"/>
<stop offset="0.465" stop-color="#2047CE"/>
<stop offset="1" stop-color="#00F0FF"/>
</linearGradient>
<linearGradient id="paint17_linear_745_321" x1="726.059" y1="266.321" x2="894.625" y2="-112.283" gradientUnits="userSpaceOnUse">
<stop stop-color="#3B53A4"/>
<stop offset="0.465" stop-color="#2047CE"/>
<stop offset="1" stop-color="#00F0FF"/>
</linearGradient>
<linearGradient id="paint18_linear_745_321" x1="708.932" y1="262.455" x2="895.148" y2="-103.014" gradientUnits="userSpaceOnUse">
<stop stop-color="#3B53A4"/>
<stop offset="0.465" stop-color="#2047CE"/>
<stop offset="1" stop-color="#00F0FF"/>
</linearGradient>
<linearGradient id="paint19_linear_745_321" x1="692.242" y1="258.201" x2="895.2" y2="-93.3319" gradientUnits="userSpaceOnUse">
<stop stop-color="#3B53A4"/>
<stop offset="0.465" stop-color="#2047CE"/>
<stop offset="1" stop-color="#00F0FF"/>
</linearGradient>
<linearGradient id="paint20_linear_745_321" x1="676.006" y1="253.592" x2="894.764" y2="-83.2652" gradientUnits="userSpaceOnUse">
<stop stop-color="#3B53A4"/>
<stop offset="0.465" stop-color="#2047CE"/>
<stop offset="1" stop-color="#00F0FF"/>
</linearGradient>
<linearGradient id="paint21_linear_745_321" x1="660.24" y1="248.655" x2="893.824" y2="-72.8456" gradientUnits="userSpaceOnUse">
<stop stop-color="#3B53A4"/>
<stop offset="0.465" stop-color="#2047CE"/>
<stop offset="1" stop-color="#00F0FF"/>
</linearGradient>
<linearGradient id="paint22_linear_745_321" x1="644.956" y1="243.419" x2="892.365" y2="-62.1063" gradientUnits="userSpaceOnUse">
<stop stop-color="#3B53A4"/>
<stop offset="0.465" stop-color="#2047CE"/>
<stop offset="1" stop-color="#00F0FF"/>
</linearGradient>
<linearGradient id="paint23_linear_745_321" x1="630.165" y1="237.914" x2="890.376" y2="-51.0785" gradientUnits="userSpaceOnUse">
<stop stop-color="#3B53A4"/>
<stop offset="0.465" stop-color="#2047CE"/>
<stop offset="1" stop-color="#00F0FF"/>
</linearGradient>
<linearGradient id="paint24_linear_745_321" x1="615.879" y1="232.172" x2="887.845" y2="-39.7942" gradientUnits="userSpaceOnUse">
<stop stop-color="#3B53A4"/>
<stop offset="0.465" stop-color="#2047CE"/>
<stop offset="1" stop-color="#00F0FF"/>
</linearGradient>
<linearGradient id="paint25_linear_745_321" x1="602.103" y1="226.223" x2="884.765" y2="-28.2868" gradientUnits="userSpaceOnUse">
<stop stop-color="#3B53A4"/>
<stop offset="0.465" stop-color="#2047CE"/>
<stop offset="1" stop-color="#00F0FF"/>
</linearGradient>
<linearGradient id="paint26_linear_745_321" x1="588.844" y1="220.097" x2="881.129" y2="-16.5901" gradientUnits="userSpaceOnUse">
<stop stop-color="#3B53A4"/>
<stop offset="0.465" stop-color="#2047CE"/>
<stop offset="1" stop-color="#00F0FF"/>
</linearGradient>
<linearGradient id="paint27_linear_745_321" x1="576.106" y1="213.826" x2="876.932" y2="-4.7369" gradientUnits="userSpaceOnUse">
<stop stop-color="#3B53A4"/>
<stop offset="0.465" stop-color="#2047CE"/>
<stop offset="1" stop-color="#00F0FF"/>
</linearGradient>
<linearGradient id="paint28_linear_745_321" x1="563.893" y1="207.438" x2="872.173" y2="7.23931" gradientUnits="userSpaceOnUse">
<stop stop-color="#3B53A4"/>
<stop offset="0.465" stop-color="#2047CE"/>
<stop offset="1" stop-color="#00F0FF"/>
</linearGradient>
<linearGradient id="paint29_linear_745_321" x1="552.203" y1="200.968" x2="866.849" y2="19.3073" gradientUnits="userSpaceOnUse">
<stop stop-color="#3B53A4"/>
<stop offset="0.465" stop-color="#2047CE"/>
<stop offset="1" stop-color="#00F0FF"/>
</linearGradient>
<linearGradient id="paint30_linear_745_321" x1="541.037" y1="194.444" x2="860.964" y2="31.4325" gradientUnits="userSpaceOnUse">
<stop stop-color="#3B53A4"/>
<stop offset="0.465" stop-color="#2047CE"/>
<stop offset="1" stop-color="#00F0FF"/>
</linearGradient>
<linearGradient id="paint31_linear_745_321" x1="530.391" y1="187.895" x2="854.52" y2="43.5833" gradientUnits="userSpaceOnUse">
<stop stop-color="#3B53A4"/>
<stop offset="0.465" stop-color="#2047CE"/>
<stop offset="1" stop-color="#00F0FF"/>
</linearGradient>
<linearGradient id="paint32_linear_745_321" x1="520.26" y1="181.352" x2="847.521" y2="55.728" gradientUnits="userSpaceOnUse">
<stop stop-color="#3B53A4"/>
<stop offset="0.465" stop-color="#2047CE"/>
<stop offset="1" stop-color="#00F0FF"/>
</linearGradient>
<linearGradient id="paint33_linear_745_321" x1="510.638" y1="174.843" x2="839.975" y2="67.8352" gradientUnits="userSpaceOnUse">
<stop stop-color="#3B53A4"/>
<stop offset="0.465" stop-color="#2047CE"/>
<stop offset="1" stop-color="#00F0FF"/>
</linearGradient>
<linearGradient id="paint34_linear_745_321" x1="501.518" y1="168.398" x2="831.89" y2="79.8758" gradientUnits="userSpaceOnUse">
<stop stop-color="#3B53A4"/>
<stop offset="0.465" stop-color="#2047CE"/>
<stop offset="1" stop-color="#00F0FF"/>
</linearGradient>
<linearGradient id="paint35_linear_745_321" x1="492.89" y1="162.043" x2="823.275" y2="91.8175" gradientUnits="userSpaceOnUse">
<stop stop-color="#3B53A4"/>
<stop offset="0.465" stop-color="#2047CE"/>
<stop offset="1" stop-color="#00F0FF"/>
</linearGradient>
<linearGradient id="paint36_linear_745_321" x1="484.744" y1="155.806" x2="814.144" y2="103.635" gradientUnits="userSpaceOnUse">
<stop stop-color="#3B53A4"/>
<stop offset="0.465" stop-color="#2047CE"/>
<stop offset="1" stop-color="#00F0FF"/>
</linearGradient>
<linearGradient id="paint37_linear_745_321" x1="477.065" y1="149.712" x2="804.509" y2="115.296" gradientUnits="userSpaceOnUse">
<stop stop-color="#3B53A4"/>
<stop offset="0.465" stop-color="#2047CE"/>
<stop offset="1" stop-color="#00F0FF"/>
</linearGradient>
<linearGradient id="paint38_linear_745_321" x1="469.842" y1="143.786" x2="794.385" y2="126.777" gradientUnits="userSpaceOnUse">
<stop stop-color="#3B53A4"/>
<stop offset="0.465" stop-color="#2047CE"/>
<stop offset="1" stop-color="#00F0FF"/>
</linearGradient>
<linearGradient id="paint39_linear_745_321" x1="463.059" y1="138.053" x2="783.787" y2="138.053" gradientUnits="userSpaceOnUse">
<stop stop-color="#3B53A4"/>
<stop offset="0.465" stop-color="#2047CE"/>
<stop offset="1" stop-color="#00F0FF"/>
</linearGradient>
<linearGradient id="paint40_linear_745_321" x1="456.699" y1="132.534" x2="772.735" y2="149.097" gradientUnits="userSpaceOnUse">
<stop stop-color="#3B53A4"/>
<stop offset="0.465" stop-color="#2047CE"/>
<stop offset="1" stop-color="#00F0FF"/>
</linearGradient>
<linearGradient id="paint41_linear_745_321" x1="450.746" y1="127.251" x2="761.246" y2="159.886" gradientUnits="userSpaceOnUse">
<stop stop-color="#3B53A4"/>
<stop offset="0.465" stop-color="#2047CE"/>
<stop offset="1" stop-color="#00F0FF"/>
</linearGradient>
<linearGradient id="paint42_linear_745_321" x1="445.18" y1="122.226" x2="749.339" y2="170.4" gradientUnits="userSpaceOnUse">
<stop stop-color="#3B53A4"/>
<stop offset="0.465" stop-color="#2047CE"/>
<stop offset="1" stop-color="#00F0FF"/>
</linearGradient>
<linearGradient id="paint43_linear_745_321" x1="439.983" y1="117.476" x2="737.037" y2="180.617" gradientUnits="userSpaceOnUse">
<stop stop-color="#3B53A4"/>
<stop offset="0.465" stop-color="#2047CE"/>
<stop offset="1" stop-color="#00F0FF"/>
</linearGradient>
<linearGradient id="paint44_linear_745_321" x1="435.133" y1="113.02" x2="724.362" y2="190.519" gradientUnits="userSpaceOnUse">
<stop stop-color="#3B53A4"/>
<stop offset="0.465" stop-color="#2047CE"/>
<stop offset="1" stop-color="#00F0FF"/>
</linearGradient>
<linearGradient id="paint45_linear_745_321" x1="430.61" y1="108.874" x2="711.335" y2="200.087" gradientUnits="userSpaceOnUse">
<stop stop-color="#3B53A4"/>
<stop offset="0.465" stop-color="#2047CE"/>
<stop offset="1" stop-color="#00F0FF"/>
</linearGradient>
<linearGradient id="paint46_linear_745_321" x1="426.39" y1="105.053" x2="697.981" y2="209.307" gradientUnits="userSpaceOnUse">
<stop stop-color="#3B53A4"/>
<stop offset="0.465" stop-color="#2047CE"/>
<stop offset="1" stop-color="#00F0FF"/>
</linearGradient>
<linearGradient id="paint47_linear_745_321" x1="422.453" y1="101.569" x2="684.324" y2="218.162" gradientUnits="userSpaceOnUse">
<stop stop-color="#3B53A4"/>
<stop offset="0.465" stop-color="#2047CE"/>
<stop offset="1" stop-color="#00F0FF"/>
</linearGradient>
<linearGradient id="paint48_linear_745_321" x1="418.774" y1="98.4371" x2="670.39" y2="226.642" gradientUnits="userSpaceOnUse">
<stop stop-color="#3B53A4"/>
<stop offset="0.465" stop-color="#2047CE"/>
<stop offset="1" stop-color="#00F0FF"/>
</linearGradient>
<linearGradient id="paint49_linear_745_321" x1="415.331" y1="95.6648" x2="656.203" y2="234.732" gradientUnits="userSpaceOnUse">
<stop stop-color="#3B53A4"/>
<stop offset="0.465" stop-color="#2047CE"/>
<stop offset="1" stop-color="#00F0FF"/>
</linearGradient>
<linearGradient id="paint50_linear_745_321" x1="412.098" y1="93.2626" x2="641.789" y2="242.426" gradientUnits="userSpaceOnUse">
<stop stop-color="#3B53A4"/>
<stop offset="0.465" stop-color="#2047CE"/>
<stop offset="1" stop-color="#00F0FF"/>
</linearGradient>
<linearGradient id="paint51_linear_745_321" x1="409.051" y1="91.2377" x2="627.175" y2="249.714" gradientUnits="userSpaceOnUse">
<stop stop-color="#3B53A4"/>
<stop offset="0.465" stop-color="#2047CE"/>
<stop offset="1" stop-color="#00F0FF"/>
</linearGradient>
<linearGradient id="paint52_linear_745_321" x1="406.166" y1="89.5956" x2="612.387" y2="256.59" gradientUnits="userSpaceOnUse">
<stop stop-color="#3B53A4"/>
<stop offset="0.465" stop-color="#2047CE"/>
<stop offset="1" stop-color="#00F0FF"/>
</linearGradient>
<linearGradient id="paint53_linear_745_321" x1="403.418" y1="88.3414" x2="597.452" y2="263.05" gradientUnits="userSpaceOnUse">
<stop stop-color="#3B53A4"/>
<stop offset="0.465" stop-color="#2047CE"/>
<stop offset="1" stop-color="#00F0FF"/>
</linearGradient>
<linearGradient id="paint54_linear_745_321" x1="400.783" y1="87.4773" x2="582.395" y2="269.09" gradientUnits="userSpaceOnUse">
<stop stop-color="#3B53A4"/>
<stop offset="0.465" stop-color="#2047CE"/>
<stop offset="1" stop-color="#00F0FF"/>
</linearGradient>
<linearGradient id="paint55_linear_745_321" x1="398.236" y1="87.005" x2="567.244" y2="274.708" gradientUnits="userSpaceOnUse">
<stop stop-color="#3B53A4"/>
<stop offset="0.465" stop-color="#2047CE"/>
<stop offset="1" stop-color="#00F0FF"/>
</linearGradient>
<linearGradient id="paint56_linear_745_321" x1="395.752" y1="86.9255" x2="552.025" y2="279.906" gradientUnits="userSpaceOnUse">
<stop stop-color="#3B53A4"/>
<stop offset="0.465" stop-color="#2047CE"/>
<stop offset="1" stop-color="#00F0FF"/>
</linearGradient>
<linearGradient id="paint57_linear_745_321" x1="393.308" y1="87.235" x2="536.763" y2="284.684" gradientUnits="userSpaceOnUse">
<stop stop-color="#3B53A4"/>
<stop offset="0.465" stop-color="#2047CE"/>
<stop offset="1" stop-color="#00F0FF"/>
</linearGradient>
<linearGradient id="paint58_linear_745_321" x1="390.88" y1="87.9317" x2="521.485" y2="289.046" gradientUnits="userSpaceOnUse">
<stop stop-color="#3B53A4"/>
<stop offset="0.465" stop-color="#2047CE"/>
<stop offset="1" stop-color="#00F0FF"/>
</linearGradient>
<linearGradient id="paint59_linear_745_321" x1="388.443" y1="89.0111" x2="506.214" y2="292.996" gradientUnits="userSpaceOnUse">
<stop stop-color="#3B53A4"/>
<stop offset="0.465" stop-color="#2047CE"/>
<stop offset="1" stop-color="#00F0FF"/>
</linearGradient>
<linearGradient id="paint60_linear_745_321" x1="385.977" y1="90.4676" x2="490.977" y2="296.542" gradientUnits="userSpaceOnUse">
<stop stop-color="#3B53A4"/>
<stop offset="0.465" stop-color="#2047CE"/>
<stop offset="1" stop-color="#00F0FF"/>
</linearGradient>
<linearGradient id="paint61_linear_745_321" x1="383.457" y1="92.2938" x2="475.796" y2="299.69" gradientUnits="userSpaceOnUse">
<stop stop-color="#3B53A4"/>
<stop offset="0.465" stop-color="#2047CE"/>
<stop offset="1" stop-color="#00F0FF"/>
</linearGradient>
<linearGradient id="paint62_linear_745_321" x1="380.863" y1="94.482" x2="460.695" y2="302.45" gradientUnits="userSpaceOnUse">
<stop stop-color="#3B53A4"/>
<stop offset="0.465" stop-color="#2047CE"/>
<stop offset="1" stop-color="#00F0FF"/>
</linearGradient>
<linearGradient id="paint63_linear_745_321" x1="378.175" y1="97.0206" x2="445.696" y2="304.831" gradientUnits="userSpaceOnUse">
<stop stop-color="#3B53A4"/>
<stop offset="0.465" stop-color="#2047CE"/>
<stop offset="1" stop-color="#00F0FF"/>
</linearGradient>
<linearGradient id="paint64_linear_745_321" x1="375.371" y1="99.9009" x2="430.821" y2="306.846" gradientUnits="userSpaceOnUse">
<stop stop-color="#3B53A4"/>
<stop offset="0.465" stop-color="#2047CE"/>
<stop offset="1" stop-color="#00F0FF"/>
</linearGradient>
<linearGradient id="paint65_linear_745_321" x1="372.432" y1="103.111" x2="416.091" y2="308.508" gradientUnits="userSpaceOnUse">
<stop stop-color="#3B53A4"/>
<stop offset="0.465" stop-color="#2047CE"/>
<stop offset="1" stop-color="#00F0FF"/>
</linearGradient>
<linearGradient id="paint66_linear_745_321" x1="369.341" y1="106.636" x2="401.524" y2="309.829" gradientUnits="userSpaceOnUse">
<stop stop-color="#3B53A4"/>
<stop offset="0.465" stop-color="#2047CE"/>
<stop offset="1" stop-color="#00F0FF"/>
</linearGradient>
<linearGradient id="paint67_linear_745_321" x1="366.081" y1="110.463" x2="387.14" y2="310.826" gradientUnits="userSpaceOnUse">
<stop stop-color="#3B53A4"/>
<stop offset="0.465" stop-color="#2047CE"/>
<stop offset="1" stop-color="#00F0FF"/>
</linearGradient>
<linearGradient id="paint68_linear_745_321" x1="362.634" y1="114.578" x2="372.955" y2="311.515" gradientUnits="userSpaceOnUse">
<stop stop-color="#3B53A4"/>
<stop offset="0.465" stop-color="#2047CE"/>
<stop offset="1" stop-color="#00F0FF"/>
</linearGradient>
<linearGradient id="paint69_linear_745_321" x1="358.987" y1="118.963" x2="358.987" y2="311.911" gradientUnits="userSpaceOnUse">
<stop stop-color="#3B53A4"/>
<stop offset="0.465" stop-color="#2047CE"/>
<stop offset="1" stop-color="#00F0FF"/>
</linearGradient>
<clipPath id="clip0_745_321">
<rect width="1133" height="280" rx="32" fill="white"/>
</clipPath>
</defs>
</svg>
