<svg width="36" height="36" viewBox="0 0 36 36" fill="none" xmlns="http://www.w3.org/2000/svg">
<rect x="0.00488281" width="36" height="36" rx="18" fill="url(#paint0_linear_19_271)"/>
<path fill-rule="evenodd" clip-rule="evenodd" d="M12.9932 10.8H23.1579C25.0292 10.8 26.5462 12.317 26.5462 14.1882V21.8118C26.5462 23.683 25.0292 25.2 23.1579 25.2H12.9932C11.1219 25.2 9.60498 23.683 9.60498 21.8118V14.1882C9.60498 12.317 11.1219 10.8 12.9932 10.8ZM19.2615 18.8895L24.6319 14.9083C24.8715 14.7321 24.9245 14.3957 24.7505 14.1544C24.6675 14.0392 24.5415 13.9625 24.401 13.9418C24.2606 13.921 24.1178 13.958 24.005 14.0443L18.5754 18.0001C18.4395 18.1425 18.2513 18.2231 18.0545 18.2231C17.8576 18.2231 17.6694 18.1425 17.5335 18.0001L12.1462 14.0443C12.0341 13.9607 11.8932 13.9254 11.7548 13.946C11.6165 13.9667 11.4921 14.0417 11.4093 14.1544C11.2335 14.3935 11.2825 14.7295 11.5194 14.9083L16.8559 18.8471C17.1879 19.1622 17.6264 19.3406 18.0841 19.3469C18.5199 19.3468 18.9399 19.1836 19.2615 18.8895Z" fill="white"/>
<defs>
<linearGradient id="paint0_linear_19_271" x1="18.0049" y1="0" x2="18.0049" y2="36" gradientUnits="userSpaceOnUse">
<stop stop-color="#0F58A8"/>
<stop offset="1" stop-color="#0A151B"/>
</linearGradient>
</defs>
</svg>
