<svg width="36" height="36" viewBox="0 0 36 36" fill="none" xmlns="http://www.w3.org/2000/svg">
<rect x="0.00488281" width="36" height="36" rx="18" fill="url(#paint0_linear_19_279)"/>
<path d="M23.557 23.8996C23.557 24.162 23.4987 24.4316 23.3748 24.6939C23.2509 24.9562 23.0906 25.204 22.8793 25.4372C22.5222 25.8307 22.1287 26.1149 21.6842 26.297C21.247 26.4792 20.7733 26.5739 20.2633 26.5739C19.52 26.5739 18.7257 26.3991 17.8877 26.042C17.0497 25.6849 16.2117 25.204 15.381 24.5992C14.543 23.9871 13.7487 23.3094 12.9909 22.5588C12.2403 21.801 11.5626 21.0067 10.9578 20.176C10.3603 19.3453 9.87932 18.5146 9.52954 17.6911C9.17977 16.8604 9.00488 16.0661 9.00488 15.3083C9.00488 14.8128 9.09233 14.3391 9.26721 13.9019C9.4421 13.4574 9.71901 13.0493 10.1052 12.685C10.5716 12.2259 11.0817 12 11.6209 12C11.8249 12 12.029 12.0437 12.2111 12.1312C12.4006 12.2186 12.5682 12.3498 12.6994 12.5392L14.39 14.9221C14.5211 15.1042 14.6158 15.2718 14.6814 15.4322C14.747 15.5852 14.7835 15.7382 14.7835 15.8767C14.7835 16.0516 14.7324 16.2264 14.6304 16.394C14.5357 16.5616 14.3972 16.7365 14.2224 16.9114L13.6685 17.4871C13.5884 17.5672 13.552 17.662 13.552 17.7786C13.552 17.8369 13.5592 17.8879 13.5738 17.9462C13.5957 18.0045 13.6175 18.0482 13.6321 18.0919C13.7633 18.3324 13.9892 18.6457 14.3098 19.0246C14.6377 19.4036 14.9875 19.7898 15.3664 20.176C15.7599 20.5622 16.1388 20.9193 16.525 21.2472C16.904 21.5678 17.2173 21.7864 17.4651 21.9176C17.5015 21.9321 17.5452 21.954 17.5962 21.9759C17.6545 21.9977 17.7128 22.005 17.7784 22.005C17.9023 22.005 17.997 21.9613 18.0772 21.8811L18.631 21.3346C18.8131 21.1524 18.988 21.014 19.1556 20.9265C19.3232 20.8245 19.4908 20.7735 19.673 20.7735C19.8115 20.7735 19.9572 20.8027 20.1175 20.8682C20.2778 20.9338 20.4454 21.0286 20.6276 21.1524L23.0396 22.8649C23.229 22.996 23.3602 23.1491 23.4404 23.3312C23.5132 23.5134 23.557 23.6956 23.557 23.8996Z" fill="white" stroke="white" stroke-width="1.2" stroke-miterlimit="10"/>
<path d="M22.7306 15.8028C22.7306 15.3656 22.3881 14.6952 21.878 14.1486C21.4117 13.6458 20.7923 13.2523 20.1802 13.2523" stroke="white" stroke-width="1.2" stroke-linecap="round" stroke-linejoin="round"/>
<path d="M25.2811 15.8027C25.2811 12.9827 23.0002 10.7019 20.1802 10.7019" stroke="white" stroke-width="1.2" stroke-linecap="round" stroke-linejoin="round"/>
<defs>
<linearGradient id="paint0_linear_19_279" x1="18.0049" y1="0" x2="18.0049" y2="36" gradientUnits="userSpaceOnUse">
<stop stop-color="#0F58A8"/>
<stop offset="1" stop-color="#0A151B"/>
</linearGradient>
</defs>
</svg>
