<?xml version="1.0" standalone="no"?>
<!DOCTYPE svg PUBLIC "-//W3C//DTD SVG 20010904//EN"
 "http://www.w3.org/TR/2001/REC-SVG-20010904/DTD/svg10.dtd">
<svg version="1.0" xmlns="http://www.w3.org/2000/svg"
 width="1375.000000pt" height="668.000000pt" viewBox="0 0 1375.000000 668.000000"
 preserveAspectRatio="xMidYMid meet">
<metadata>
Created by potrace 1.16, written by Peter Selinger 2001-2019
</metadata>
<g transform="translate(0.000000,668.000000) scale(0.100000,-0.100000)"
fill="#000000" stroke="none">
<path d="M200 6663 c-29 -11 -66 -38 -106 -77 -105 -105 -94 269 -94 -3246 0
-3515 -11 -3141 94 -3246 43 -42 76 -66 110 -77 46 -16 510 -17 6671 -17 6161
0 6625 1 6671 17 34 11 67 35 110 77 105 105 94 -269 94 3246 0 3515 11 3141
-94 3246 -44 44 -75 65 -111 77 -47 16 -387 17 -4700 15 -2804 -2 -4658 -7
-4669 -12 -14 -7 -17 -6 -12 2 12 20 -14 13 -73 -19 l-56 -30 33 29 34 30
-109 -3 c-59 -2 -123 -6 -142 -10 -25 -6 -32 -5 -27 3 10 16 -6 15 -40 -3 -16
-8 -37 -15 -48 -15 -15 0 -16 3 -6 15 10 12 9 15 -5 15 -10 0 -26 -7 -35 -15
-10 -9 -32 -20 -49 -25 l-33 -9 16 24 c16 24 15 25 -3 25 -11 0 -33 -13 -49
-30 -17 -16 -40 -30 -52 -30 -22 0 -20 9 8 43 14 16 13 17 -13 17 -20 0 -37
-11 -61 -39 -34 -40 -92 -65 -74 -32 4 9 18 25 29 35 12 11 21 23 21 28 0 16
-50 7 -67 -13 -54 -63 -83 -89 -96 -89 -20 0 -18 38 3 46 8 3 25 18 38 35 l24
29 -1544 -1 c-1381 0 -1548 -2 -1588 -16z m3075 -4 c-41 -23 -66 -52 -53 -61
10 -6 10 -8 -1 -8 -7 0 -26 -11 -43 -25 -30 -25 -65 -35 -52 -14 10 17 -57 0
-81 -21 -29 -25 -55 -32 -55 -15 0 8 -2 15 -5 15 -8 0 -48 -24 -70 -41 -27
-23 -65 -33 -65 -19 0 16 -40 2 -68 -23 -14 -13 -38 -22 -63 -23 -24 -1 -55
-12 -78 -28 -20 -14 -48 -26 -60 -26 -13 0 -48 -14 -77 -31 -30 -17 -58 -28
-62 -25 -5 3 -30 -8 -56 -24 -25 -16 -56 -32 -69 -34 -13 -2 -45 -18 -72 -35
-27 -17 -56 -31 -66 -31 -9 0 -27 -8 -40 -19 -33 -25 -90 -54 -96 -47 -3 2
-25 -11 -50 -30 -67 -51 -80 -57 -78 -34 1 11 5 23 10 27 4 5 5 1 1 -7 -5 -9
-2 -8 7 2 8 10 47 37 88 59 107 60 380 199 390 199 10 0 141 59 210 95 26 13
64 27 85 31 22 3 48 15 59 24 11 10 38 21 60 25 22 4 58 17 80 30 22 12 60 25
84 29 24 4 55 16 69 26 13 11 38 20 55 20 l31 0 -34 -25 c-34 -25 -34 -25 -8
-25 16 0 35 11 50 28 38 45 73 67 109 70 30 2 32 0 14 -9z m6004 -1603 c7 -8
12 -31 11 -53 0 -21 2 -69 5 -106 7 -66 6 -69 -17 -74 -12 -4 -56 -24 -97 -45
-41 -21 -75 -37 -77 -35 -22 25 -125 159 -137 178 -17 26 -17 27 18 53 43 33
104 61 176 80 70 19 104 19 118 2z m2416 -156 c120 -45 192 -158 165 -258 -13
-52 -55 -102 -84 -102 -18 0 -25 10 -40 55 -53 170 -240 233 -756 255 -388 17
-412 35 -60 45 129 4 305 13 390 21 205 17 309 12 385 -16z m-2173 -84 c95
-29 161 -70 257 -162 53 -50 102 -103 110 -117 13 -24 11 -27 -23 -59 -20 -18
-36 -37 -36 -43 0 -5 -15 -19 -33 -31 l-32 -21 -70 54 c-85 65 -221 134 -280
140 l-42 5 -2 52 c-1 28 -5 84 -9 124 l-8 72 60 0 c34 0 82 -7 108 -14z m1263
-1491 c116 -139 227 -243 311 -294 75 -44 186 -86 259 -97 45 -6 60 -26 29
-38 -28 -11 -148 -6 -218 9 -149 32 -244 96 -455 306 l-119 120 52 49 c28 27
51 50 52 50 0 0 40 -47 89 -105z m-1225 -171 l65 -26 55 -101 c167 -308 334
-519 497 -631 97 -65 169 -89 273 -90 138 -1 197 24 405 178 36 26 68 46 71
43 7 -7 -165 -361 -208 -427 -123 -192 -315 -262 -486 -178 -93 46 -147 116
-271 349 -179 335 -482 903 -489 913 -3 5 1 7 9 3 8 -3 43 -18 79 -33z"/>
</g>
</svg>
