<?xml version="1.0" encoding="UTF-8"?>
<svg version="1.1" viewBox="0 0 2048 1152" width="1280" height="1280" xmlns="http://www.w3.org/2000/svg">
<path transform="translate(0)" d="m0 0h2048v1152h-2048z" fill="#3A3D6F"/>
<path transform="translate(1605,155)" d="m0 0 5 1 160 64 47 19 6 3 1 3v677l-8 4-193 77-14 6-5-1-34-34-8-7-25-25-8-7-28-28-8-7-27-27-8-7-25-25-8-7-28-28-8-7-31-31-8-7-24-24-8-7-28-28-5 2-14 11-26 20-42 32-16 12-21 16-20 15-14 11-13 10-17 13-4-1-96-48-4-3-1-17v-360l1-42 8-5 34-17 19-10 40-20 5 1 17 13 28 21 18 14 16 12 26 20 21 16 20 15 14 11 21 16 3 2 4-1 26-26h2l1-3 8-7 33-33h2v-2l8-7 31-31h2v-2l8-7 25-25 8-7 33-33 8-7 30-30 17-16 27-27 8-7 31-31z" fill="#652379"/>
<path transform="translate(574,157)" d="m0 0h15l18 5 19 10 21 12 48 28 25 14 26 15 17 10 14 8 17 10 18 10 24 14 21 12 26 15 43 25 13 9 10 11 2 6-8 5-21 12-24 14-52 30-41 24h-2v2l-5 1v2l-5 1v2l-14 7-5 2v2l-5 1v2l-7 2v2l-10 5h-2v2l-7 2v2l-12 6h-2v2l-12 6-5 2v2l-16 8h-2v2l-7 3-27 15-22 13-28 16-19 11-16 10-29 17-27 15-15 9-26 15-4 2 1 5 7 9 1 3 14 14 7 6 2 1v2l5 2 4 2v2l6 2 5 3 11 4 10 4 19 4 10 1h14l9-1 15-4 18-6 21-11 16-13 11-12 9-12 2-4 6 2v2l7 2v2l6 2 8 4v2l6 2 29 17 26 15 17 10 5 2-1 4-2 5h-2l-1 5h-2v3h-2l-2 5-1 2h-2l-1 4-2 1-2 4-3 3-3 4h-2l-2 5-9 8-7 8-6 4-3 4-3 1-4 4h-2v2l-4 1v2l-4 1v2h-3v2h-3v2h-3v2l-6 3h-2v2l-16 8-20 9-24 8-13 4-19 3-11 2-10 1h-34l-25-3-24-5-10-3-10-4-10-3-9-4-16-8-25-15-6-5-6-4-3-3-11-9-13-13v-2l-4-2-4-5v-2l-3-1-2-5-3-1-1-4h-2l-1-4h-2l-7-11-5-8v-2l-14 7-15 9-28 16-24 14-16 9-24 14-28 16-4-1-6-15-3-11v-373l6-17 7-13 8-10 9-8 20-12 23-13 24-14 26-15 17-10 27-15 17-10 21-12 22-13 28-16 23-13 17-10 52-30 13-6z" fill="#FCFEFC"/>
<path transform="translate(950,371)" d="m0 0h3l7 15 4 16v344l-1 25-4 16-7 13-7 9-11 11-14 9-11 6-24 14-10 6-11 6-43 25-18 10-24 14-27 15-17 10-28 16-19 11-20 12-18 10-22 13-18 10-6 3-7 1-1 1h-25l-16-5-25-13-30-18-19-11-25-14-15-9-18-10-15-9-19-11-25-14-30-18-11-6-24-14-18-10-27-16-24-14-10-9-7-9-2-4 24-14 28-16 19-11 28-16 24-14 21-12 5-3h3l8 13 4 6v2h2l1 4h2l2 4 4 4 9 11 12 12 8 7 4 3v2l5 2v2l4 2 6 4 10 7 10 6 12 7 13 6 10 4 16 5 8 3 21 5 20 3 11 1h34l18-2 8-2 14-2 20-6 22-8 25-12 3-2h3v-2l5-3h3v-2h3v-2h3v-2h3v-2l4-1v-2l4-1v-2l5-2 1-3 4-2 5-5 8-7 5-5 7-8 5-6 4-4 2-4h2l1-4h2l2-5 1-2h2v-3h2l1-5h2l1-5 2-4-5-1-21-12-24-14-29-17-4-2v-2l-5-1-9-5v-2l-5-1-2-1v-2l-4-1-2-1-2 5-6 8-11 13-11 10-10 7-21 11-23 7-8 2-9 1h-14l-16-2-13-3-16-6-16-8v-2l-4-1-5-3v-2l-5-2-9-9-5-4-2-5-3-1-4-7-5-6 1-5 11-6 28-16 15-9 27-15 20-12 18-11 26-15 21-12 24-14 23-13 3-2h4v-2l15-8h3v-2l14-8h3v-2l12-6h2v-2l4-2h3v-2l9-5h3v-2l4-2h3v-2l5-1v-2l16-9h3v-2l5-1v-2l5-1v-2l16-9 27-16 23-13 48-28 28-16z" fill="#31007B"/>
<path transform="translate(1605,155)" d="m0 0 5 1 160 64 47 19 6 3 1 3v677l-8 4-193 77-14 6-5-1-34-34-8-7-25-25-8-7-28-28-8-7-27-27-8-7-25-25-8-7-28-28-8-7-31-31-8-7-24-24-8-7-28-28-5 2-14 11-26 20-42 32-16 12-21 16-20 15-14 11-13 10-17 13-4-1-96-48-4-3-1-17v-360l1-42 8-5 34-17 19-10 40-20 5 1 17 13 28 21 18 14 16 12 26 20 21 16 20 15 14 11 21 16 3 2 4-1 26-26h2l1-3 8-7 33-33h2v-2l8-7 31-31h2v-2l8-7 25-25 8-7 33-33 8-7 30-30 17-16 27-27 8-7 31-31zm13 64-10 10-8 7-28 28-8 7-36 36-6 5v2h-2v2l-4 2-23 23-2 1v2l-3 1v2l-4 2-37 37-7 6v2l-4 2-30 30-8 7-28 28-8 7-36 36-8 7-20 20-5 3-21-16-16-12-17-13-13-10-19-14-15-12-19-14-18-14-16-12-30-23-12-9-7 1-33 17-5 3v353l19 10 23 11 4-2 32-24 13-10 17-13 21-16 20-15 18-14 20-15 13-10 17-13 21-16 5-2 2 4 10 9 25 25 8 7 31 31 8 7 21 21 8 7h2l2 4 24 24 8 7 25 25 8 7 22 22 8 7 36 36 8 7 22 22 8 7 32 32 5 4 9-2 140-56 2-1v-607l-10-5-28-11-30-12-72-29-8-3z" fill="#FCFEFC"/>
<path transform="translate(574,157)" d="m0 0h15l18 5 19 10 21 12 48 28 25 14 26 15 17 10 14 8 17 10 18 10 24 14 21 12 26 15 43 25 13 9 10 11 2 6-8 5-21 12-24 14-52 30-41 24h-2v2l-2-1-7-11-10-14-11-14-14-15-11-10-14-11-16-11-17-10-21-10-22-8-24-6-19-3-11-1h-47l-27 4-24 6-22 8-25 12-21 13-12 9-13 11-10 9-7 7-9 11-10 12-11 17-12 21-10 23-7 22-6 29-2 19v39l3 23 6 26 8 24 11 24 5 10-18 10-17 10-26 15-23 13-24 14-26 15-14 8-4-1-6-15-3-11v-373l6-17 7-13 8-10 9-8 20-12 23-13 24-14 26-15 17-10 27-15 17-10 21-12 22-13 28-16 23-13 17-10 52-30 13-6z" fill="#9971D5"/>
<path transform="translate(570,458)" d="m0 0h23l19 3 18 6 19 10 14 10 13 12 11 14 5 8-23 13-26 15-24 14-21 12-25 15-27 16-27 15-15 9-26 15-4 2-2 2-9-19-6-20-2-12v-25l3-17 7-21 8-16 12-16 9-10 13-11 18-11 14-6 17-5z" fill="#9971D5"/>
<path transform="translate(1592,446)" d="m0 0h2v273l-5-3-40-30-21-16-19-14-17-13-12-9-21-16-44-33-3-2 2-4 19-14 21-16 19-14 21-16 19-14 32-24 19-14 21-16z" fill="#FDFFFD"/>
<path transform="translate(2036,919)" d="m0 0 6 3v3h2 4v227h-202l1-5 1-2h13v-2l6-1v2l5-1-2-5 12-2 6-5 3 1v-4l5 2 1 2-3 1 4 1 1-5 7-2v-7l1-3-3-1 4-3 1-3-3-1 4-7 1 3 5-1v-5l4-2 3 1-1-6h-2l-1 2-3-3 1-1v-5l6-1 1-6 6-2v-6l4-3 2-1 2-7 3-2h3l2-1 4-5 2-7h5l2-4h-5v-2h2v-2l5-4 3 1v3l2-7 2-2-1-2 1-3h-2v-7l4-6-1-2 1-4 8-2 4-5 1-3 2 1 2-6 6-4 2-4 8-4 6-9 2-6 3-2h3v-3h2l1-4 3-6 3-2 2-9 3-1v-5l3-4z" fill="#424858"/>
<path transform="translate(747,513)" d="m0 0h19v10l-2 20-1 3h24l1-15 2-17 1-1h19l1 1-1 17-2 14 19 1v12l-2 7h-19l-1 15-2 15h17l1 1v18h-21v15l-1 11-2 9-1 1h-19v-9l2-19 2-8h-25v9l-2 20-3 7h-19l1-16 1-11 2-9h-18v-19h20v-11l2-13 1-6h-17l-1-1v-18h20v-12l1-11 2-9z" fill="#FAFBFB"/>
<path transform="translate(1117,501)" d="m0 0 7 6 11 9 16 15 8 7 10 9 8 7 14 12 7 7 8 7v4l-10 9-15 14-8 7-13 12-8 7-24 22-8 7-2 1-1-5z" fill="#FDFFFD"/>
<path transform="translate(1826,680)" d="m0 0h2l2 10 1 46v29l-1 44v46l-1 14-1 7v10l-1 11 3 5 1 8-1 10-4 5h-2l1-67v-143z" fill="#424858"/>
<path transform="translate(761,565)" d="m0 0h25l-3 25-1 5h-24z" fill="#33057A"/>
<path transform="translate(1826,1012)" d="m0 0 5 1 5 4-1 2-3 1-1 5-3 3-1 2h-3v7h-2l1 5h-2v-2h-2v8h-2v3l-7 2-1-5 1-2-5 1h-3l2-4 2-2-1-4 2-4 4-3 1-6 8 1 1-3 5-1v-6l-2-1z" fill="#424858"/>
<path transform="translate(2035,770)" d="m0 0 4 2-1 9 3 4-1 4-2 1-1 6-2 4v6l-1 1h-6l-2-2v-4l3-1 1-6-1-4-3-1 1-7-1-7h6z" fill="#424858"/>
<path transform="translate(1543,950)" d="m0 0 4 1 21 21 8 7 18 18-2 1-8-7-14-14-6-3-8-8-5-4-7-8z" fill="#4C4C6B"/>
<path transform="translate(1799,1138)" d="m0 0 6 3-2 2 2 4-5 3-1 2h-19l1-5 3-2 6 4h4l1-4 2-3v-3z" fill="#424858"/>
<path transform="translate(1807,1039)" d="m0 0 4 1 1 2 6-2h1v8h-2v3l-7 2-1-5 1-2-5 1h-3l2-4 2-1z" fill="#424858"/>
<path transform="translate(2037,747)" d="m0 0 2 4-2 5 2 5 2 1-1 3h-6l-3-2 1-13 1-2z" fill="#434958"/>
<path transform="translate(2038,910)" d="m0 0 2 2 2-1v2l6 3v5h-4l-1 2-2-5-1-1h-3l-1-4z" fill="#434958"/>
<path transform="translate(2034,734)" d="m0 0h4v8l-3 3h-3l-1-7h2z" fill="#424858"/>
<path transform="translate(659,486)" d="m0 0 4 1 13 12 8 10-1 2-10-11-5-6-9-7z" fill="#5E5195"/>
<path transform="translate(1510,918)" d="m0 0 4 1 13 13-3 1-5-4-6-7z" fill="#5E557F"/>
<path transform="translate(1576,982)" d="m0 0 4 1 14 14-2 1-8-7-8-8z" fill="#4E4C6F"/>
<path transform="translate(1483,891)" d="m0 0 4 2 15 15h-3l-14-14-2-1z" fill="#48486E"/>
<path transform="translate(1809,1037)" d="m0 0h3l7 1-1 5-2-2-4 2-4-3z" fill="#3A3D6E"/>
<path transform="translate(1417,827)" d="m0 0 4 2 10 10 3 2-1 3-14-14-2-1z" fill="#46476B"/>
</svg>
