<?xml version="1.0" encoding="UTF-8"?>
<svg version="1.1" viewBox="0 0 1640 924" width="1280" height="1280" xmlns="http://www.w3.org/2000/svg">
<path transform="translate(0)" d="m0 0h1640v924h-1640z" fill="#FCBF01"/>
<path transform="translate(0)" d="m0 0h818l1 377 5-5 10-14 11-15h16l-2 4-10 14-14 19-5 7 1 4 14 19 16 21 2 4h-17l-9-11-14-19-5-5v340h-818z" fill="#FEDE58"/>
<path transform="translate(0,742)" d="m0 0h1640v182h-1640z" fill="#FEFEFD"/>
<path transform="translate(1223,157)" d="m0 0 8 1 12 5 5 4 5 5v2h2l3 3v2h2l3 3v2h2l6 7 2 1v2h2l3 3v2h2l3 3v2h2l3 3v2h2l7 8 65 65v123h-53v54h-125l-3-2v-2h-2l-7-8-9-9-2-1v-2h-2l-3-3v-2h-2l-7-8-80-80-5-11-1-5v-7l5-14 9-19 8-16 16-33 11-23 4-6 17-9 23-11 58-29z" fill="#33BAF8"/>
<path transform="translate(1223,157)" d="m0 0 8 1 12 5 5 4 5 5v2h2l3 3v2h2l3 3v2h2l6 7 2 1v2h2l3 3v2h2l3 3v2h2l3 3v2h2l7 8 65 65v123h-54l-194-194v-3l17-9 23-11 58-29z" fill="#01579B"/>
<path transform="translate(414,148)" d="m0 0h50v3l-197 197-4-2-43-43 2-4 150-150z" fill="#68B6F8"/>
<path transform="translate(372,291)" d="m0 0h93l-6 7-74 74 2 4 78 78v2h-91l-8-7-75-75 2-4z" fill="#68B6F8"/>
<path transform="translate(1546,17)" d="m0 0 14 1 13 5 4 3 1-9h19v96h-19l-1-8-12 6-7 2h-18l-12-4-11-8-8-9-5-10-2-7v-20l4-11 6-9 9-9 14-7z" fill="#000205"/>
<path transform="translate(383,374)" d="m0 0 4 2 78 78v2h-91l-8-7-28-28 2-4z" fill="#0D47A0"/>
<path transform="translate(1089,552)" d="m0 0h45l10 3 9 6 6 9 3 7 1 5v16l-4 12-6 8-6 5-10 4-5 1h-43z" fill="#fff"/>
<path transform="translate(1223,157)" d="m0 0 8 1 12 5 5 4 5 5v2h2l3 3v2h2l3 3v2h2l6 7 2 1v2h2l3 3v2h2l3 3v2h2l3 3v2h2l2 4-13-3-165-1 4-3 48-24 15-8 23-11 8-4z" fill="#34BBF9"/>
<path transform="translate(1111,212)" d="m0 0h1l1 163 2 14-7-6-41-41-5-11-1-5v-7l5-14 9-19 8-16 16-33 11-23z" fill="#01569B"/>
<path transform="translate(336,327)" d="m0 0 4 1 44 44-2 4-44 44-7-6-40-40 2-4z" fill="#42A5F6"/>
<path transform="translate(778,343)" d="m0 0h17l14 19 10 13v2l5-5 10-14 11-15h16l-2 4-10 14-14 19-5 7 1 4 14 19 16 21 2 4h-17l-9-11-14-19-5-5-2 5-10 13-10 14-2 3h-17l4-7 16-21 10-14 3-5-14-19-18-24z" fill="#fff"/>
<path transform="translate(516,567)" d="m0 0h15l11 4 6 5 5 10 1 4v12h-43l3 8 3 3 9 1 7-3 2-2h19l-3 8-8 7-8 3-7 1h-9l-12-3-8-6-5-8-2-7v-13l4-11 7-8 9-4z" fill="#fff"/>
<path transform="translate(220,550)" d="m0 0h60v16h-40v16h36v14h-36v30h-20z" fill="#fff"/>
<path transform="translate(1195,569)" d="m0 0h14l10 3 7 6 3 8 1 42h-17v-11h-2l-2 5-6 5-6 2h-12l-7-3-5-6-1-3v-9l3-6 5-4 10-3 19-4 1-1v-7h-13l-4 3-1 3h-19l2-8 5-6 10-5z" fill="#fff"/>
<path transform="translate(1546,36)" d="m0 0 12 1 9 5 8 9 3 7v14l-6 12-8 7-7 3h-15l-10-5-7-7-4-8-1-11 2-8 5-9 9-7z" fill="#FCC004"/>
<path transform="translate(322,569)" d="m0 0h19l1 34 2 6 4 2h7l5-3 3-8 1-31h19v57h-19l-1-9-7 8-9 3-12-1-8-5-4-7-1-4z" fill="#fff"/>
<path transform="translate(1605,15)" d="m0 0h20v101h-20z" fill="#fff"/>
<path transform="translate(410,555)" d="m0 0h10v14h16v14h-16l1 27 13 1v15h-16l-10-3-5-6-2-5-1-28-9-1v-9l11-5z" fill="#fff"/>
<path transform="translate(459,555)" d="m0 0h10l1 13 15 1v14l-15 1v26l13 1v15h-16l-9-3-5-5-3-8v-27h-10v-9l11-5z" fill="#fff"/>
<path transform="translate(1304,557)" d="m0 0h10v14h15v14h-15v28h13v15h-14l-8-2-5-3-4-6-1-3-1-28-10-1v-9l12-6z" fill="#fff"/>
<path transform="translate(291,546)" d="m0 0h19v80h-19z" fill="#fff"/>
<path transform="translate(594,568)" d="m0 0h10v19l-12 1-5 3-2 4-1 6-1 25h-19v-57h19l1 8 4-6z" fill="#fff"/>
<path transform="translate(1272,570)" d="m0 0h9v19l-13 1-5 4-2 7-1 27h-19v-57h19l1 8 4-6z" fill="#fff"/>
<path transform="translate(1109,567)" d="m0 0h15l9 2 7 6 2 5 1 11-2 11-4 6-8 4h-20z" fill="#FCBF03"/>
<path transform="translate(1575,14)" d="m0 0h25v102h-25v-6l-12 5-5 1h-17l-13-4-10-6-10-10-7-14-2-7v-20l5-14 8-11h2v-2l8-6 10-5 7-2h21l11 4 4 2zm-29 3-14 3-11 6-11 11-7 14-1 4v20l4 12 7 10 10 9 10 5 7 2h18l12-4 7-4 1 8h19v-96h-19l-1 9-8-5-9-3z" fill="#FEFDF7"/>
<path transform="translate(322,810)" d="m0 0h8l6 3 4 5v11l-3 5-4 3-10 1-7-3-3-4-1-3v-8l3-6 4-3z" fill="#E83C63"/>
<path transform="translate(1247,811)" d="m0 0h19l6 5 1 2v11l-4 6-4 2h-18z" fill="#E83C63"/>
<path transform="translate(370,811)" d="m0 0h19l6 5 1 2v11l-4 6-4 2h-18z" fill="#E83C63"/>
<path transform="translate(824,817)" d="m0 0h8 3 7v22l-2 4-4 2h-11l-4-2-2-5h7l5 2h3v-5l-1 1h-9l-5-5v-9z" fill="#E83C63"/>
<path transform="translate(539,817)" d="m0 0h8 3 7v22l-2 4-4 2h-11l-4-2-2-5h7l5 2h3v-5l-1 1h-9l-5-5v-9z" fill="#E83C63"/>
<path transform="translate(898,817)" d="m0 0h9 2 7v23l-5 5h-12l-5-5v-2h7l1 1h6v-4l-6 2-5-2-3-3-1-8 3-5z" fill="#E83C63"/>
<path transform="translate(717,817)" d="m0 0h9 2 7v23l-5 5h-12l-5-5v-2h7l1 1h6v-4l-6 2-5-2-3-3-1-8 3-5z" fill="#E83C63"/>
<path transform="translate(215,811)" d="m0 0h19l5 5-1 6-2 4 2 2 1 9h-8l-1-8-7-1v9h-8z" fill="#E83C63"/>
<path transform="translate(1546,36)" d="m0 0 12 1 9 5 8 9 3 7v14l-6 12-8 7-7 3h-15l-10-5-7-7-4-8-1-11 2-8 5-9 9-7zm-1 3-10 4-8 8-4 11v7l3 9 8 9 9 4h14l10-6 6-8 2-5v-14l-4-8-9-8-9-3z" fill="#FEFCF1"/>
<path transform="translate(1211,817)" d="m0 0h7 3 8l5 5v10l-4 5-7 1-4-2-1 9h-7z" fill="#E83C63"/>
<path transform="translate(1185,817)" d="m0 0h7 3 8l5 5v10l-4 5-7 1-4-2-1 9h-7z" fill="#E83C63"/>
<path transform="translate(601,817)" d="m0 0h6l1 2 2-2h8l3 2 3-2h8l3 4v16h-7l-1-13-5-1-1 14h-7v-14h-6l-1 14h-7v-19z" fill="#E83C63"/>
<path transform="translate(1384,817)" d="m0 0h6 3 9l4 5 1 6-2 6-3 3-7 1-4-2v9h-7z" fill="#E83C63"/>
<path transform="translate(1410,817)" d="m0 0h7 2 8l4 2 2-2h8l3 4v16h-7v-14l-5 1-2 13h-6l-1-12-1-2-4 1-1 13h-7z" fill="#E83C63"/>
<path transform="translate(639,817)" d="m0 0h7 2 8l4 2 2-2h8l3 4v16h-7v-14l-5 1-2 13h-6l-1-12-1-2-4 1-1 13h-7z" fill="#E83C63"/>
<path transform="translate(466,811)" d="m0 0h19l4 3 1 8-3 5-5 2h-8v8h-8z" fill="#E83C63"/>
<path transform="translate(1162,811)" d="m0 0h12l8 23v3h-7l-1-5h-12l-1 5h-7l3-11z" fill="#E83C63"/>
<path transform="translate(1364,817)" d="m0 0h11l5 5 1 8-3 5-6 3-9-1-5-6v-8l4-5z" fill="#E83C63"/>
<path transform="translate(514,817)" d="m0 0h11l5 4 1 2v8l-2 4-6 3-9-1-5-5-1-6 3-7z" fill="#E83C63"/>
<path transform="translate(247,817)" d="m0 0h11l5 4 1 2v8l-2 4-6 3-9-1-5-5-1-6 3-7z" fill="#E83C63"/>
<path transform="translate(156,809)" d="m0 0h7l1 10 2-2h8l3 4v16h-7v-14h-6l-1 14h-7z" fill="#E83C63"/>
<path transform="translate(1329,817)" d="m0 0h10l5 5 1 7h-15l2 3 5-1h7l-1 4-6 3-9-1-4-4-1-2v-8l4-5z" fill="#E83C63"/>
<path transform="translate(1282,817)" d="m0 0h10l5 5 1 7h-15l2 3 5-1h7l-1 4-6 3-9-1-4-4-1-2v-8l4-5z" fill="#E83C63"/>
<path transform="translate(1453,817)" d="m0 0h10l5 4 1 8h-15l2 3 13-1-3 5-5 2-9-1-4-4-1-9 4-6z" fill="#E9496E"/>
<path transform="translate(925,817)" d="m0 0h10l5 4 1 8h-15l2 3 13-1-3 5-5 2-9-1-4-4-1-9 4-6z" fill="#E9496E"/>
<path transform="translate(1109,817)" d="m0 0h11l4 4 1 2v6l-14 1 1 2h5l1-1h7l-2 4-5 3-9-1-5-5-1-6 3-7z" fill="#E9496E"/>
<path transform="translate(283,817)" d="m0 0h11l4 4 1 2v6l-14 1 1 2h5l1-1h7l-2 4-5 3-9-1-5-5-1-6 3-7z" fill="#E9496E"/>
<path transform="translate(186,817)" d="m0 0h11l4 4 1 2v6l-14 1 1 2h5l1-1h7l-2 4-5 3-9-1-5-5-1-6 3-7z" fill="#E9496E"/>
<path transform="translate(404,817)" d="m0 0h11l4 4v16h-6l-1-2-5 3-5-1-3-3v-5l3-3 9-2v-2l-4 1-1 1h-7l2-5z" fill="#E9496D"/>
<path transform="translate(582,817)" d="m0 0h11l4 5v15h-6l-1-2-5 3-6-1-2-2v-6l3-3 9-2v-2h-5v2h-7l2-5z" fill="#E94A6E"/>
<path transform="translate(875,817)" d="m0 0h11l4 4v16h-6-3l-5 1-5-3-1-5 3-4 9-2v-2l-4 1-1 1h-6l1-5z" fill="#E9496D"/>
<path transform="translate(776,817)" d="m0 0h10l4 3 1 17h-6-3l-6 1-5-3-1-4 2-4 5-2 6-1v-2h-4l-1 2h-7l1-4z" fill="#E83C63"/>
<path transform="translate(1010,811)" d="m0 0h21v5h-14v6h13v5h-13v10h-7z" fill="#E83C63"/>
<path transform="translate(845,817)" d="m0 0h7l1 13 5 1 1-3 1-11h7v20h-7l-1-2-4 3-7-1-3-6z" fill="#E83C63"/>
<path transform="translate(975,817)" d="m0 0h6l1 2 2-2h8l3 3 1 2v15h-7l-1-13-4-1-2 4-1 10h-7v-19z" fill="#E83C63"/>
<path transform="translate(795,817)" d="m0 0h6l1 2 2-2h8l3 3 1 2v15h-7l-1-13-4-1-2 4-1 10h-7v-19z" fill="#E83C63"/>
<path transform="translate(1045,817)" d="m0 0h7l1 14 5-1 1-13h7v20h-7-2l-7 1-5-5z" fill="#E83C63"/>
<path transform="translate(1472,817)" d="m0 0h7l1 2 2-2h8l3 4v16h-7v-14h-6l-1 14h-7z" fill="#E83C63"/>
<path transform="translate(688,817)" d="m0 0h7l1 2 2-2h8l3 4v16h-7v-14h-6l-1 14h-7z" fill="#E83C63"/>
<path transform="translate(954,811)" d="m0 0h17v5h-5v15l5 1v5h-17v-5l5-1v-15h-5z" fill="#E83C63"/>
<path transform="translate(129,811)" d="m0 0h24v5h-8v21h-8v-21h-8z" fill="#E83C63"/>
<path transform="translate(749,811)" d="m0 0h8v20h11v6h-19z" fill="#E83C63"/>
<path transform="translate(1299,817)" d="m0 0h7l4 11 2-3 3-8h7l-6 19-1 1h-10l-6-17z" fill="#E83C63"/>
<path transform="translate(351,809)" d="m0 0h7v5h-6v3h5v6h-4v14h-7v-14l-4-1 1-4 2-1 3-7z" fill="#E83C63"/>
<path transform="translate(1209,599)" d="m0 0h2v7l-4 8-6 3h-6l-4-3v-7l6-4 10-3z" fill="#FCC30C"/>
<path transform="translate(1502,812)" d="m0 0h4v5h5v6h-5v9h5v5h-8l-4-4v-10l-4-1v-3l5-3z" fill="#E83C63"/>
<path transform="translate(1092,812)" d="m0 0h4v5h5v6h-5v9h5v5h-8l-4-4v-10l-4-1v-3l5-3z" fill="#E83C63"/>
<path transform="translate(1075,812)" d="m0 0h4v5h5v6h-5v9h5v5h-8l-4-4v-10l-4-1v-3l5-3z" fill="#E83C63"/>
<path transform="translate(445,812)" d="m0 0h3v5h5l1 5-1 1h-5l1 8 4 1v5h-8l-3-2-1-3v-9h-3l1-5 5-5z" fill="#E83C63"/>
<path transform="translate(518,580)" d="m0 0h11l5 4 2 7h-25l2-7z" fill="#FEDE58"/>
<path transform="translate(1034,809)" d="m0 0h7v28h-7z" fill="#E83C63"/>
<path transform="translate(1348,809)" d="m0 0h6l1 1v27h-7z" fill="#E83C63"/>
<path transform="translate(268,809)" d="m0 0h6v28h-7v-27z" fill="#E83C63"/>
<path transform="translate(1128,817)" d="m0 0h7 3 4v7l-5 1-1 2-1 10h-7z" fill="#E83C63"/>
<path transform="translate(423,817)" d="m0 0h7 2 5v7l-6 2-1 11h-7z" fill="#E83C63"/>
<path transform="translate(561,817)" d="m0 0h6l1 2 2-2h4v7l-5 1-2 12h-7v-19z" fill="#E83C63"/>
<path transform="translate(493,817)" d="m0 0h6l1 2 2-2h5v6l-6 2-1 12h-7z" fill="#E83C63"/>
<path transform="translate(323,816)" d="m0 0h7l3 4v7l-2 4-2 1h-6l-3-3v-10z" fill="#fff"/>
<path transform="translate(1255,816)" d="m0 0 8 1 3 4v6l-3 4h-8z" fill="#fff"/>
<path transform="translate(378,816)" d="m0 0 8 1 3 4v6l-3 4h-8z" fill="#fff"/>
<path transform="translate(677,817)" d="m0 0h7v20h-7z" fill="#E83C63"/>
<path transform="translate(1612,90)" d="m0 0 6 1h2 3l-1 5h-2l-2 5-6 1-4-3v-6z" fill="#47AFF7"/>
<path transform="translate(1611,38)" d="m0 0h6l3 3v5l-3 3h-6l-3-3v-5z" fill="#45AEF7"/>
<path transform="translate(1618,57)" d="m0 0h2l-1 4-3 1v2h4v3h-12v-7l2-2 6 1z" fill="#5DB6F8"/>
<path transform="translate(1608,27)" d="m0 0h10l2 2-1 7-2 1h-9v-3l8-1 1-3h-9z" fill="#40B3F7"/>
<path transform="translate(1367,822)" d="m0 0h5l2 3-1 6-1 1h-5l-2-2v-6z" fill="#fff"/>
<path transform="translate(1609,17)" d="m0 0h2l-1 5h2l2-5 5 1 1 1v6l-4 1v-5l-3 5-4-1-1-1v-6z" fill="#45AEF7"/>
<path transform="translate(1221,822)" d="m0 0 5 1 1 1v7l-1 1h-6l-2-6 1-3z" fill="#fff"/>
<path transform="translate(1195,822)" d="m0 0 5 1 1 1v7l-1 1h-6l-2-6 1-3z" fill="#fff"/>
<path transform="translate(1617,102)" d="m0 0h3v3l-2 1-1 3 3 1v2l-7-1-5-2v-4z" fill="#49ACF6"/>
<path transform="translate(1608,80)" d="m0 0h10l2 2v5l-2 2h-10v-3h9v-3h-8z" fill="#43AFF7"/>
<path transform="translate(1618,68)" d="m0 0h2v3l-2 1-1 3 3 1v3l-10-3-2-1 1-4z" fill="#4AAEF7"/>
<path transform="translate(1393,822)" d="m0 0 6 1v8l-1 1h-6l-1-1v-7z" fill="#fff"/>
<path transform="translate(518,822)" d="m0 0 5 1 1 1v7l-1 1h-6l-1-1v-8z" fill="#fff"/>
<path transform="translate(251,822)" d="m0 0 5 1 1 1v7l-1 1h-6l-1-1v-8z" fill="#fff"/>
<path transform="translate(828,822)" d="m0 0h5l2 3-1 5-1 1h-6l-1-1v-6z" fill="#fff"/>
<path transform="translate(543,822)" d="m0 0h5l2 3-1 5-1 1h-6l-1-1v-6z" fill="#fff"/>
<path transform="translate(903,822)" d="m0 0 5 1 1 1v6l-1 1h-6l-2-5 1-3z" fill="#fff"/>
<path transform="translate(722,822)" d="m0 0 5 1 1 1v6l-1 1h-6l-2-5 1-3z" fill="#fff"/>
<path transform="translate(474,816)" d="m0 0h7l1 1v5l-1 1h-7z" fill="#fff"/>
<path transform="translate(1608,50)" d="m0 0 9 1 3-1v6h-12z" fill="#50ADF7"/>
<path transform="translate(223,816)" d="m0 0h7l1 1v5h-8z" fill="#fff"/>
<path transform="translate(1609,94)" d="m0 0 2 3 6 1 1-3 1 5-3 2-6-1-2-3z" fill="#4AACF6"/>
<path transform="translate(1168,817)" d="m0 0 2 3 2 7h-7l2-9z" fill="#fff"/>
<path transform="translate(1609,61)" d="m0 0 1 3 5-1 5 1v3h-11z" fill="#44A7F6"/>
<path transform="translate(1618,31)" d="m0 0h1v5l-2 1h-9v-3l10-1z" fill="#42ADF7"/>
<path transform="translate(1609,17)" d="m0 0h2l-1 5h2l1-2 1 5-4 1-2-2v-6z" fill="#47AFF7"/>
<path transform="translate(1608,80)" d="m0 0h10l2 3-2 1-9-1z" fill="#4CABF6"/>
<path transform="translate(1612,70)" d="m0 0 2 1 1 5-3 1-4-2 1-4z" fill="#57B0F7"/>
<path transform="translate(677,811)" d="m0 0h7v4h-7z" fill="#E83C63"/>
<path transform="translate(1617,102)" d="m0 0h3v3l-4 3h-3l1-5z" fill="#5CB6F8"/>
<path transform="translate(1612,41)" d="m0 0 5 1-1 4-5-1v-3z" fill="#fff"/>
<path transform="translate(783,827)" d="m0 0 1 3-3 3-4-1 1-3z" fill="#fff"/>
<path transform="translate(1332,821)" d="m0 0 5 1 1 3h-8z" fill="#fff"/>
<path transform="translate(1285,821)" d="m0 0 5 1 1 3h-8z" fill="#fff"/>
<path transform="translate(1611,94)" d="m0 0h6v4h-6z" fill="#fff"/>
</svg>
