<svg width="68" height="70" viewBox="0 0 68 70" fill="none" xmlns="http://www.w3.org/2000/svg">
<mask id="path-1-inside-1_733_49" fill="white">
<path d="M1 43.9803C1 42.8602 1 42.3001 1.21799 41.8723C1.40973 41.496 1.71569 41.19 2.09202 40.9983C2.51984 40.7803 3.0799 40.7803 4.2 40.7803H7.62103C9.30119 40.7803 10.1413 40.7803 10.783 41.1073C11.3475 41.3949 11.8064 41.8538 12.0941 42.4183C12.421 43.06 12.421 43.9001 12.421 45.5803V55.9671C12.421 57.6472 12.421 58.4873 12.0941 59.1291C11.8064 59.6935 11.3475 60.1525 10.783 60.4401C10.1413 60.7671 9.30119 60.7671 7.62103 60.7671H4.2C3.0799 60.7671 2.51984 60.7671 2.09202 60.5491C1.71569 60.3573 1.40973 60.0514 1.21799 59.6751C1 59.2472 1 58.6872 1 57.5671V43.9803Z"/>
</mask>
<path d="M1 43.9803C1 42.8602 1 42.3001 1.21799 41.8723C1.40973 41.496 1.71569 41.19 2.09202 40.9983C2.51984 40.7803 3.0799 40.7803 4.2 40.7803H7.62103C9.30119 40.7803 10.1413 40.7803 10.783 41.1073C11.3475 41.3949 11.8064 41.8538 12.0941 42.4183C12.421 43.06 12.421 43.9001 12.421 45.5803V55.9671C12.421 57.6472 12.421 58.4873 12.0941 59.1291C11.8064 59.6935 11.3475 60.1525 10.783 60.4401C10.1413 60.7671 9.30119 60.7671 7.62103 60.7671H4.2C3.0799 60.7671 2.51984 60.7671 2.09202 60.5491C1.71569 60.3573 1.40973 60.0514 1.21799 59.6751C1 59.2472 1 58.6872 1 57.5671V43.9803Z" stroke="black" stroke-width="6" stroke-linejoin="round" mask="url(#path-1-inside-1_733_49)"/>
<circle cx="6.25844" cy="54.5868" r="1.42763" fill="black"/>
<path fill-rule="evenodd" clip-rule="evenodd" d="M49.8257 12.5809C44.1653 9.44015 37.1564 11.4221 34.0008 17.0558C33.7183 17.5601 33.0786 17.741 32.5719 17.4599C32.0652 17.1787 31.8834 16.542 32.1659 16.0377C35.8865 9.39536 44.1748 7.05161 50.8487 10.7547C53.5615 12.2599 55.5699 14.5035 56.6632 17.2288C56.8784 17.765 56.616 18.3733 56.0773 18.5874C55.5385 18.8015 54.9274 18.5404 54.7123 18.0042C53.8064 15.7463 52.1379 13.8639 49.8257 12.5809ZM55.7508 27.9271C56.2575 28.2083 56.4392 28.845 56.1567 29.3493C52.4361 35.9916 44.1478 38.3354 37.474 34.6323C34.6191 33.0483 32.6992 30.682 31.5065 27.9462C31.2756 27.4165 31.5199 26.8009 32.0521 26.571C32.5842 26.3412 33.2028 26.5843 33.4337 27.114C34.4687 29.4881 36.0983 31.4752 38.4969 32.8061C44.1573 35.9468 51.1662 33.9649 54.3218 28.3312C54.6043 27.8269 55.2441 27.646 55.7508 27.9271Z" fill="#0F58A8"/>
<path fill-rule="evenodd" clip-rule="evenodd" d="M57.0128 12.7648C57.5761 12.9027 57.9204 13.469 57.7819 14.0297L56.568 18.9418L52.0497 17.8207C51.4868 17.681 51.1442 17.1136 51.2846 16.5534C51.4249 15.9931 51.995 15.6522 52.5579 15.7919L55.0314 16.4057L55.7419 13.5303C55.8804 12.9696 56.4494 12.6269 57.0128 12.7648Z" fill="#0F58A8"/>
<path fill-rule="evenodd" clip-rule="evenodd" d="M37.0485 28.8869C36.8791 29.4391 36.2919 29.7501 35.7371 29.5815L33.1385 28.7918L32.5015 31.645C32.3757 32.2086 31.8146 32.564 31.2483 32.4388C30.682 32.3135 30.3249 31.7551 30.4508 31.1915L31.5802 26.1321L36.3506 27.5818C36.9054 27.7504 37.2179 28.3347 37.0485 28.8869Z" fill="#0F58A8"/>
<path fill-rule="evenodd" clip-rule="evenodd" d="M39.7405 17.7292C40.5517 16.4714 42.0715 15.646 43.9387 15.646C45.6595 15.646 46.9689 16.083 47.8411 16.9549C48.7119 17.8254 48.9747 18.9571 48.9747 19.9795C48.9747 20.5569 48.5044 21.025 47.9243 21.025C47.3442 21.025 46.8739 20.5569 46.8739 19.9795C46.8739 19.2875 46.6976 18.7752 46.3524 18.4302C46.0088 18.0867 45.3254 17.7369 43.9387 17.7369C42.6986 17.7369 41.8878 18.2704 41.5084 18.8587C41.1351 19.4375 41.1226 20.1298 41.5736 20.735C41.7633 20.9895 42.0684 21.1926 42.5602 21.3611C43.055 21.5306 43.6279 21.6307 44.3085 21.7495C44.3245 21.7523 44.3406 21.7551 44.3568 21.7579C45.0163 21.8732 45.7876 22.0096 46.482 22.2739C47.1952 22.5454 47.9168 22.9837 48.4076 23.7586C49.3035 25.1733 49.1685 26.7614 48.305 27.9598C47.4589 29.134 45.9734 29.8704 44.2427 29.8704C42.6599 29.8704 41.3754 29.5163 40.4316 28.7627C39.4747 27.9986 39.008 26.9363 38.8458 25.8089C38.7636 25.2374 39.1625 24.7077 39.7368 24.6259C40.311 24.544 40.8432 24.941 40.9254 25.5126C41.0334 26.2636 41.3098 26.7833 41.7462 27.1318C42.1956 27.4906 42.9546 27.7795 44.2427 27.7795C45.383 27.7795 46.1942 27.3014 46.5979 26.7413C46.9841 26.2052 47.0518 25.539 46.6304 24.8735C46.4625 24.6085 46.1878 24.4005 45.7315 24.2268C45.2564 24.046 44.6851 23.9381 43.9936 23.8173C43.9564 23.8108 43.9189 23.8043 43.8809 23.7977C43.2563 23.689 42.5333 23.5632 41.8763 23.3381C41.1649 23.0943 40.4229 22.7004 39.8864 21.9807C38.8851 20.6373 38.9232 18.9965 39.7405 17.7292Z" fill="#0F58A8"/>
<path fill-rule="evenodd" clip-rule="evenodd" d="M44.0927 14.0234C44.6728 14.0234 45.1431 14.4914 45.1431 15.0688V30.3268C45.1431 30.9041 44.6728 31.3722 44.0927 31.3722C43.5125 31.3722 43.0423 30.9041 43.0423 30.3268V15.0688C43.0423 14.4914 43.5125 14.0234 44.0927 14.0234Z" fill="#0F58A8"/>
<path fill-rule="evenodd" clip-rule="evenodd" d="M49.8257 12.5809C44.1653 9.44015 37.1564 11.4221 34.0008 17.0558C33.7183 17.5601 33.0786 17.741 32.5719 17.4599C32.0652 17.1787 31.8834 16.542 32.1659 16.0377C35.8865 9.39536 44.1748 7.05161 50.8487 10.7547C53.5615 12.2599 55.5699 14.5035 56.6632 17.2288C56.8784 17.765 56.616 18.3733 56.0773 18.5874C55.5385 18.8015 54.9274 18.5404 54.7123 18.0042C53.8064 15.7463 52.1379 13.8639 49.8257 12.5809ZM55.7508 27.9271C56.2575 28.2083 56.4392 28.845 56.1567 29.3493C52.4361 35.9916 44.1478 38.3354 37.474 34.6323C34.6191 33.0483 32.6992 30.682 31.5065 27.9462C31.2756 27.4165 31.5199 26.8009 32.0521 26.571C32.5842 26.3412 33.2028 26.5843 33.4337 27.114C34.4687 29.4881 36.0983 31.4752 38.4969 32.8061C44.1573 35.9468 51.1662 33.9649 54.3218 28.3312C54.6043 27.8269 55.2441 27.646 55.7508 27.9271Z" stroke="#0F58A8" stroke-width="0.5" stroke-miterlimit="22.9256" stroke-linecap="round"/>
<path fill-rule="evenodd" clip-rule="evenodd" d="M57.0128 12.7648C57.5761 12.9027 57.9204 13.469 57.7819 14.0297L56.568 18.9418L52.0497 17.8207C51.4868 17.681 51.1442 17.1136 51.2846 16.5534C51.4249 15.9931 51.995 15.6522 52.5579 15.7919L55.0314 16.4057L55.7419 13.5303C55.8804 12.9696 56.4494 12.6269 57.0128 12.7648Z" stroke="#0F58A8" stroke-width="0.5" stroke-miterlimit="22.9256" stroke-linecap="round"/>
<path fill-rule="evenodd" clip-rule="evenodd" d="M37.0485 28.8869C36.8791 29.4391 36.2919 29.7501 35.7371 29.5815L33.1385 28.7918L32.5015 31.645C32.3757 32.2086 31.8146 32.564 31.2483 32.4388C30.682 32.3135 30.3249 31.7551 30.4508 31.1915L31.5802 26.1321L36.3506 27.5818C36.9054 27.7504 37.2179 28.3347 37.0485 28.8869Z" stroke="#0F58A8" stroke-width="0.5" stroke-miterlimit="22.9256" stroke-linecap="round"/>
<path fill-rule="evenodd" clip-rule="evenodd" d="M39.7405 17.7292C40.5517 16.4714 42.0715 15.646 43.9387 15.646C45.6595 15.646 46.9689 16.083 47.8411 16.9549C48.7119 17.8254 48.9747 18.9571 48.9747 19.9795C48.9747 20.5569 48.5044 21.025 47.9243 21.025C47.3442 21.025 46.8739 20.5569 46.8739 19.9795C46.8739 19.2875 46.6976 18.7752 46.3524 18.4302C46.0088 18.0867 45.3254 17.7369 43.9387 17.7369C42.6986 17.7369 41.8878 18.2704 41.5084 18.8587C41.1351 19.4375 41.1226 20.1298 41.5736 20.735C41.7633 20.9895 42.0684 21.1926 42.5602 21.3611C43.055 21.5306 43.6279 21.6307 44.3085 21.7495C44.3245 21.7523 44.3406 21.7551 44.3568 21.7579C45.0163 21.8732 45.7876 22.0096 46.482 22.2739C47.1952 22.5454 47.9168 22.9837 48.4076 23.7586C49.3035 25.1733 49.1685 26.7614 48.305 27.9598C47.4589 29.134 45.9734 29.8704 44.2427 29.8704C42.6599 29.8704 41.3754 29.5163 40.4316 28.7627C39.4747 27.9986 39.008 26.9363 38.8458 25.8089C38.7636 25.2374 39.1625 24.7077 39.7368 24.6259C40.311 24.544 40.8432 24.941 40.9254 25.5126C41.0334 26.2636 41.3098 26.7833 41.7462 27.1318C42.1956 27.4906 42.9546 27.7795 44.2427 27.7795C45.383 27.7795 46.1942 27.3014 46.5979 26.7413C46.9841 26.2052 47.0518 25.539 46.6304 24.8735C46.4625 24.6085 46.1878 24.4005 45.7315 24.2268C45.2564 24.046 44.6851 23.9381 43.9936 23.8173C43.9564 23.8108 43.9189 23.8043 43.8809 23.7977C43.2563 23.689 42.5333 23.5632 41.8763 23.3381C41.1649 23.0943 40.4229 22.7004 39.8864 21.9807C38.8851 20.6373 38.9232 18.9965 39.7405 17.7292Z" stroke="#0F58A8" stroke-width="0.5" stroke-miterlimit="22.9256" stroke-linecap="round"/>
<path fill-rule="evenodd" clip-rule="evenodd" d="M44.0927 14.0234C44.6728 14.0234 45.1431 14.4914 45.1431 15.0688V30.3268C45.1431 30.9041 44.6728 31.3722 44.0927 31.3722C43.5125 31.3722 43.0423 30.9041 43.0423 30.3268V15.0688C43.0423 14.4914 43.5125 14.0234 44.0927 14.0234Z" stroke="#0F58A8" stroke-width="0.5" stroke-miterlimit="22.9256" stroke-linecap="round"/>
<path d="M14.8306 45.057C17.4479 43.7484 23.3963 41.2024 26.2516 41.488C29.8207 41.8449 31.9621 42.9156 33.3897 43.9863C34.8174 45.057 36.245 46.8416 38.0295 47.5554C39.8141 48.2692 43.7401 48.983 44.097 48.983C44.4539 48.983 47.3091 49.6968 47.3091 51.4814C47.3091 52.909 46.8333 53.028 46.5953 52.909L40.8848 53.2659C38.1485 53.2659 32.0335 52.5521 29.4638 49.6968" stroke="black" stroke-width="3" stroke-linecap="round" stroke-linejoin="round"/>
<path d="M14.8306 45.0557V57.5474C16.0203 56.9526 18.6852 55.7629 19.8273 55.7629C21.2549 55.7629 22.6825 56.1198 25.1809 57.1905C27.6792 58.2612 30.5345 59.6889 32.6759 60.0458C34.8174 60.4027 39.4572 61.4734 42.6693 60.7596C45.2391 60.1885 49.4506 58.6181 51.2351 57.9043L59.0871 53.6214L64.0838 50.4093C64.6786 49.9334 65.7969 48.6961 65.5114 47.554C65.1545 46.1264 64.0838 45.0557 62.2992 45.7695C60.8716 46.3405 55.2801 49.1006 52.6627 50.4093" stroke="black" stroke-width="3" stroke-linecap="round" stroke-linejoin="round"/>
<path d="M58.9676 46.4917C58.9676 45.6589 59.0041 44.8421 57.2909 45.4131C55.5778 45.9842 56.1592 45.8969 54.9695 46.4917" stroke="black" stroke-width="3" stroke-linecap="round" stroke-linejoin="round"/>
<path d="M55.1571 46.1315C55.0381 45.4176 54.3719 44.1328 52.6587 44.7038C50.9456 45.2749 49.7411 45.7824 48.3135 46.4962" stroke="black" stroke-width="3" stroke-linecap="round" stroke-linejoin="round"/>
</svg>
