<svg width="65" height="65" viewBox="0 0 65 65" fill="none" xmlns="http://www.w3.org/2000/svg">
<path d="M43 55V49.8889C43 47.1778 41.9464 44.5777 40.0711 42.6607C38.1957 40.7436 35.6522 39.6667 33 39.6667H18C15.3478 39.6667 12.8043 40.7436 10.9289 42.6607C9.05357 44.5777 8 47.1778 8 49.8889V55M35.5 19.2222C35.5 24.8678 31.0228 29.4444 25.5 29.4444C19.9772 29.4444 15.5 24.8678 15.5 19.2222C15.5 13.5766 19.9772 9 25.5 9C31.0228 9 35.5 13.5766 35.5 19.2222Z" stroke="black" stroke-width="4" stroke-linecap="round" stroke-linejoin="round"/>
<path d="M58 54.9998V49.8887C57.9983 47.6238 57.2609 45.4236 55.9034 43.6335C54.5459 41.8434 52.6453 40.5649 50.5 39.9987M43 9.33203C45.151 9.89502 47.0576 11.1738 48.4191 12.9668C49.7806 14.7598 50.5196 16.965 50.5196 19.2348C50.5196 21.5046 49.7806 23.7098 48.4191 25.5028C47.0576 27.2958 45.151 28.5746 43 29.1376" stroke="#0F58A8" stroke-width="4" stroke-linecap="round" stroke-linejoin="round"/>
</svg>
