<svg width="65" height="65" viewBox="0 0 65 65" fill="none" xmlns="http://www.w3.org/2000/svg">
<path fill-rule="evenodd" clip-rule="evenodd" d="M32.0666 43.594C32.0102 46.3247 29.7607 48.4983 27.0296 48.4608C24.2985 48.4234 22.1094 46.1891 22.1278 43.4578C22.1462 40.7265 24.3653 38.5219 27.0966 38.5213C28.4284 38.5348 29.7002 39.0769 30.6323 40.0282C31.5644 40.9796 32.0803 42.2622 32.0666 43.594V43.594Z" stroke="black" stroke-width="3" stroke-linecap="round" stroke-linejoin="round"/>
<path fill-rule="evenodd" clip-rule="evenodd" d="M55.7383 43.594C55.6818 46.3247 53.4323 48.4983 50.7012 48.4608C47.9701 48.4234 45.781 46.1891 45.7994 43.4578C45.8179 40.7265 48.0369 38.5219 50.7683 38.5213C52.1 38.5348 53.3718 39.0769 54.3039 40.0282C55.236 40.9796 55.7519 42.2622 55.7383 43.594Z" stroke="black" stroke-width="3" stroke-linecap="round" stroke-linejoin="round"/>
<path d="M46.0939 42.0857C46.9223 42.0857 47.5939 41.4141 47.5939 40.5857C47.5939 39.7572 46.9223 39.0857 46.0939 39.0857V42.0857ZM32.5646 39.0857C31.7362 39.0857 31.0646 39.7572 31.0646 40.5857C31.0646 41.4141 31.7362 42.0857 32.5646 42.0857V39.0857ZM44.594 40.5857C44.594 41.4141 45.2656 42.0857 46.094 42.0857C46.9224 42.0857 47.594 41.4141 47.594 40.5857H44.594ZM47.594 28.2997C47.594 27.4713 46.9224 26.7997 46.094 26.7997C45.2656 26.7997 44.594 27.4713 44.594 28.2997H47.594ZM46.0943 39.0857C45.2659 39.0857 44.5943 39.7572 44.5943 40.5857C44.5943 41.4141 45.2659 42.0857 46.0943 42.0857V39.0857ZM46.6915 42.0857C47.5199 42.0857 48.1915 41.4141 48.1915 40.5857C48.1915 39.7572 47.5199 39.0857 46.6915 39.0857V42.0857ZM56.9017 39.0857C56.0732 39.0892 55.4046 39.7637 55.4081 40.5921C55.4117 41.4205 56.0861 42.0892 56.9145 42.0856L56.9017 39.0857ZM62.3198 35.125L63.8198 35.1179C63.8193 35.0295 63.8111 34.9412 63.7951 34.8542L62.3198 35.125ZM62.5425 28.029C62.393 27.2142 61.6112 26.6748 60.7964 26.8244C59.9816 26.9739 59.4423 27.7557 59.5918 28.5705L62.5425 28.029ZM46.0916 15.8784C45.2632 15.8784 44.5916 16.55 44.5916 17.3784C44.5916 18.2068 45.2632 18.8784 46.0916 18.8784V15.8784ZM54.6547 17.3784V18.8784C54.6646 18.8784 54.6745 18.8783 54.6843 18.8781L54.6547 17.3784ZM58.5297 18.9494L59.5953 17.8938V17.8938L58.5297 18.9494ZM60.064 22.8391L58.5647 22.7952C58.5616 22.9005 58.5696 23.0058 58.5886 23.1094L60.064 22.8391ZM59.5893 28.5701C59.7386 29.385 60.5203 29.9245 61.3351 29.7752C62.15 29.6258 62.6895 28.8442 62.5402 28.0293L59.5893 28.5701ZM47.5894 17.3785C47.5894 16.5501 46.9178 15.8785 46.0894 15.8785C45.2609 15.8785 44.5894 16.5501 44.5894 17.3785H47.5894ZM44.5894 28.2999C44.5894 29.1283 45.2609 29.7999 46.0894 29.7999C46.9178 29.7999 47.5894 29.1283 47.5894 28.2999H44.5894ZM44.5894 17.3784C44.5894 18.2069 45.261 18.8784 46.0894 18.8784C46.9179 18.8784 47.5894 18.2069 47.5894 17.3784H44.5894ZM46.0894 15.5123H47.5895L47.5894 15.5013L46.0894 15.5123ZM43.5422 13.0001V14.5001L43.5519 14.5001L43.5422 13.0001ZM20.5542 13.0001L20.5403 14.5001H20.5542V13.0001ZM18.7577 13.7249L17.7069 12.6545L17.7069 12.6545L18.7577 13.7249ZM18 15.5077L16.5 15.4939V15.5077H18ZM18 38.0758H16.4999L16.5001 38.0896L18 38.0758ZM18.7577 39.8586L19.8086 38.7882L19.8086 38.7882L18.7577 39.8586ZM20.5542 40.5834V39.0833L20.5403 39.0834L20.5542 40.5834ZM22.355 42.0834C23.1834 42.0834 23.855 41.4118 23.855 40.5834C23.855 39.7549 23.1834 39.0834 22.355 39.0834V42.0834ZM46.0938 26.7997C45.2654 26.7997 44.5938 27.4713 44.5938 28.2997C44.5938 29.1281 45.2654 29.7997 46.0938 29.7997V26.7997ZM61.0693 29.7997C61.8977 29.7997 62.5693 29.1281 62.5693 28.2997C62.5693 27.4713 61.8977 26.7997 61.0693 26.7997V29.7997ZM46.0939 39.0857H32.5646V42.0857H46.0939V39.0857ZM47.594 40.5857V28.2997H44.594V40.5857H47.594ZM46.0943 42.0857H46.6915V39.0857H46.0943V42.0857ZM56.9145 42.0856C58.7543 42.0778 60.5156 41.3391 61.8107 40.0323L59.6798 37.9206C58.945 38.6621 57.9456 39.0812 56.9017 39.0857L56.9145 42.0856ZM61.8107 40.0323C63.1057 38.7256 63.8285 36.9577 63.8198 35.1179L60.8198 35.1321C60.8247 36.176 60.4146 37.1791 59.6798 37.9206L61.8107 40.0323ZM63.7951 34.8542L62.5425 28.029L59.5918 28.5705L60.8444 35.3958L63.7951 34.8542ZM46.0916 18.8784H54.6547V15.8784H46.0916V18.8784ZM54.6843 18.8781C55.7261 18.8575 56.7307 19.2648 57.464 20.0051L59.5953 17.8938C58.2842 16.5702 56.4878 15.8419 54.625 15.8787L54.6843 18.8781ZM57.464 20.0051C58.1973 20.7453 58.5951 21.7537 58.5647 22.7952L61.5634 22.8829C61.6178 21.0206 60.9065 19.2174 59.5953 17.8938L57.464 20.0051ZM58.5886 23.1094L59.5893 28.5701L62.5402 28.0293L61.5395 22.5687L58.5886 23.1094ZM44.5894 17.3785V28.2999H47.5894V17.3785H44.5894ZM47.5894 17.3784V15.5123H44.5894V17.3784H47.5894ZM47.5894 15.5013C47.573 13.2765 45.7573 11.4857 43.5325 11.5001L43.5519 14.5001C44.1209 14.4964 44.5853 14.9544 44.5895 15.5234L47.5894 15.5013ZM43.5422 11.5001H20.5542V14.5001H43.5422V11.5001ZM20.5681 11.5002C19.499 11.4903 18.4698 11.9055 17.7069 12.6545L19.8086 14.7953C20.0037 14.6037 20.2669 14.4975 20.5403 14.5L20.5681 11.5002ZM17.7069 12.6545C16.944 13.4035 16.5099 14.4248 16.5001 15.4939L19.4999 15.5214C19.5024 15.248 19.6135 14.9868 19.8086 14.7953L17.7069 12.6545ZM16.5 15.5077V38.0758H19.5V15.5077H16.5ZM16.5001 38.0896C16.5099 39.1586 16.944 40.18 17.7069 40.929L19.8086 38.7882C19.6135 38.5967 19.5024 38.3354 19.4999 38.062L16.5001 38.0896ZM17.7069 40.929C18.4698 41.678 19.499 42.0932 20.5681 42.0833L20.5403 39.0834C20.2669 39.086 20.0037 38.9798 19.8086 38.7882L17.7069 40.929ZM20.5542 42.0834H22.355V39.0834H20.5542V42.0834ZM46.0938 29.7997H61.0693V26.7997H46.0938V29.7997Z" fill="black"/>
<path d="M12 19H3" stroke="#0F58A8" stroke-width="3" stroke-linecap="round"/>
<path d="M12 28H6" stroke="#0F58A8" stroke-width="3" stroke-linecap="round"/>
<path d="M12 36H8" stroke="#0F58A8" stroke-width="3" stroke-linecap="round"/>
</svg>
