<?xml version="1.0" encoding="UTF-8"?>
<svg version="1.1" viewBox="0 0 1200 1248" width="1280" height="1280" xmlns="http://www.w3.org/2000/svg">
<path transform="translate(246)" d="m0 0h8l16 8 52 30 28 16 24 14 28 16 52 30 28 16 11 7 5 6 2 6 1 495 18-10 24-14 28-16 52-30 28-16 24-14 16-9 1-257 4-8 8-6 28-16 78-45 28-16 24-14 28-16 26-15 17-10 3-1h12l20 11 24 14 23 13 24 14 28 16 52 30 28 16 24 14 15 9 5 8 1 4v268l-3 8-5 6-28 16-52 30-28 16-24 14-28 16-52 30-10 6-1 256-4 8-7 6-28 16-24 14-28 16-52 30-28 16-24 14-28 16-26 15-28 16-24 14-28 16-52 30-28 16-24 14-28 16-10 6-6 2h-7l-9-4-28-16-26-15-28-16-24-14-28-16-52-30-28-16-24-14-28-16-78-45-28-16-24-14-28-16-26-15-10-6-6-7-2-5v-798l4-8 7-6 23-13 24-14 28-16 52-30 28-16 24-14 28-16 24-14zm2 42-28 16-24 14-28 16-52 30-28 16-26 15-3 2 1 3 18 10 24 14 28 16 52 30 28 16 24 14 14 8 6-1 24-14 26-15 28-16 24-14 28-16 52-30 5-3v-2l-52-30-28-16-78-45-28-16-3-2zm693 130-28 16-52 30-28 16-24 14-49 28-10 6 3 3 23 13 24 14 28 16 52 30 28 16 26 15 7 4 5-2 27-15 17-10 26-15 28-16 24-14 28-16 26-15 12-7-5-4-25-14-24-14-28-16-24-14-28-16-52-30-5-3zm-903 14v745l52 30 28 16 78 45 28 16 24 14 28 16 52 30 28 16 24 14 28 16 52 30h1v-221l-13-8-27-15-23-13-28-16-25-14-28-16-25-14-28-16-25-14-5-6-2-4-1-521-15-9-28-16-24-14-28-16-52-30-28-16-15-9zm421 0-24 14-28 16-26 15-28 16-24 14-28 16-26 15-6 4v482l14-7 17-10 26-15 28-16 24-14 28-16 52-30 3-2v-482zm271 130v219l28 16 52 30 28 16 24 14 28 16 26 15 5 3h2v-218l-9-6-28-16-78-45-28-16-48-28zm422 0-26 15-28 16-24 14-28 16-52 30-28 16-5 3v219l5-2 23-13 24-14 28-16 52-30 28-16 24-14 8-5v-219zm-442 252-17 10-52 30-28 16-24 14-28 16-52 30-28 16-24 14-28 16-52 30-28 16-24 14-28 16-8 5 5 4 27 15 46 26 28 16 25 14 28 16 25 14 8 4 27-15 24-14 25-14 24-14 25-14 24-14 25-14 24-14 25-14 24-14 25-14 24-14 27-15 24-14 25-14 24-14 25-14 1-2-28-16-78-45-28-16-24-14-28-16-5-3zm211 144-24 14-25 14-24 14-25 14-24 14-25 14-24 14-27 15-24 14-25 14-24 14-25 14-24 14-25 14-24 14-18 10-21 12-13 8v221l12-6 24-14 28-16 24-14 28-16 52-30 28-16 24-14 28-16 52-30 28-16 78-45 17-10v-219z" fill="#FE2D20"/>
</svg>
