<?xml version="1.0" encoding="UTF-8"?>
<svg version="1.1" viewBox="0 0 2048 907" width="1280" height="1280" xmlns="http://www.w3.org/2000/svg">
<path transform="translate(0)" d="m0 0h2048v907h-2048z" fill="#F6F7F7"/>
<path transform="translate(932,661)" d="m0 0h554l1 1v93l-4 1h-199l-722-1v-93z" fill="#80AF4C"/>
<path transform="translate(1603)" d="m0 0h284l7 8 64 64 4 8 1 8-4 11-11 12-60 60-8 7-120 120-10 5h-9l-9-4-8-7-57-57-2-1v-2l-4-2-127-127-5-7-2-7 1-10 4-8z" fill="#80AF4C"/>
<path transform="translate(2047,44)" d="m0 0h1v570l-7-6-114-114-2-1v-2l-4-2-142-142-6-9-1-3v-11l5-10z" fill="#81B04D"/>
<path transform="translate(67,696)" d="m0 0h9l9 4 8 8 2 1v2l4 2 8 8v2l4 2 1 3h2v2l3 1v2h2v2h2l3 3v2h2v2l3 1v2h2v2l4 2 1 3h2l3 3v2h2l7 8 141 141v1h-291v-150l55-55 8-5z" fill="#81B04D"/>
<path transform="translate(1155,124)" d="m0 0 7 1 7 4 36 20 4 5v220l-5 5-17 10-52 30-7 4-7-1-23-13-26-15-24-14-5-4-1-2v-93l7-6 23-13 5-3h3v-2l16-9h3v-2l4-2h3v-2l14-8 8-1 9 5 6 3v2l9 1 1-118h2z" fill="#333533"/>
<path transform="translate(1172,662)" d="m0 0h315v93l-4 1h-199l-68-1-22-1 4-2 11-1 10-4 3-3-5-4-1-5 2-3 6-1-6-1v-34l-2-4 6-5 7-4 6-7 1-4 2-1v-2l-9-3-16-2-41-1z" fill="#366411"/>
<path transform="translate(920,232)" d="m0 0 6 1 18 10 24 14 28 16 8 6 1 2v91l-5 6-28 16-26 15-21 12h-6l-28-16-48-28-3-3-1-4v-88l3-5 15-9 26-15 28-16z" fill="#80AF4C"/>
<path transform="translate(1359)" d="m0 0h39l75 75 3 6v14l-6 10-49 49-8 7-7 7-7 8-9 7-9 3-11-2-9-6-76-76-4-8v-12l4-8 71-71z" fill="#81B04D"/>
<path transform="translate(716,231)" d="m0 0h6l9 5 6 3v2l5 1 5 3 14 8 2 1v2l5 1 9 5v2l5 1 5 3 7 4 7 5 1 2v121l-2 2-7-1-43-25-3-3-1-6v-51l-2-7-15-9-8-4-7 1-17 10-4 4-1 2-1 59-5 5-13 8-27 15-3 2-7-1v-123l3-3h3v-2l5-1v-2l4-2h3v-2l18-10 12-7h3v-2l27-15z" fill="#333433"/>
<path transform="translate(1326,232)" d="m0 0h6l8 4v2l5 1 7 4v2l5 1 5 3 9 6 6 3 13 7v2l5 1 13 8 4 4v28l-5 5-44 26-6-1-1-1-1-26-22-13-6-2-24 14-1 1v31l9 6 10 6 20 11 5 3 28 16 5 3 1 6-9 6-24 13-16 9-7-1-28-16-25-14-22-13-3-3v-94l5-5h3v-2l5-1v-2l4-2h3v-2l4-2h3v-2l23-13h3v-2l18-10z" fill="#333533"/>
<path transform="translate(1887)" d="m0 0h161v41l-7 5-1 2h-2v2l-3 3h-2l-2 4h-2l-1 3h-2v2h-2l-1 3-8 7-12 6-6 1h-10l-12-3h-2l2 14v9l-2 9-6 9-4 5h-2l-2 4-3 1v2h-2l-2 4-5 4-7 8-3 1-2 4-111 111-2 3h-2l-2 4-40 40-9 6-13 3h-10l-11-4-9-7-7-8-1-3-3-1-7-8-9-10-125-125-2-1v-2h-2l-3-3v-2h-2v-2l-4-2-1-3-3-1v-2h-2v-2h-2v-2l-4-2-1-3-3-1-7-8-8-9-1-6 2-3 7 9 125 125 2 1v2l4 2 61 61 8 4 3 1h9l10-5 126-126 8-7 61-61 5-8 2-7-1-8-4-8-70-70z" fill="#E5E5E7"/>
<path transform="translate(703,787)" d="m0 0h9l9 4 10 9 106 106v1h-258l2-4 78-78h2v-2l8-7 25-25z" fill="#80AF4C"/>
<path transform="translate(498,789)" d="m0 0h13l10 6 47 47 5 9 1 3v10l-5 10-33 33h-63l-34-34-4-8v-13l4-8 51-51z" fill="#81B04D"/>
<path transform="translate(1172,662)" d="m0 0h95l67 1 19 3 3 2v5l-5 1v3l-6 2-2 3h-2v4l-9 5-5 5v7h-2l-2-4-4-2h-8l-5 3h-2v-3h-9v32h10l1-22 4-3 5 1 2 4 1 20h10v3l-5 3-1 1 2 2 5 2 2 2 1 4 2 2-22 4-11 1-26 2h-59l-22-1 4-2 11-1 10-4 3-3-5-4-1-5 2-3 6-1-6-1v-34l-2-4 6-5 7-4 6-7 1-4 2-1v-2l-9-3-16-2-41-1z" fill="#4A7C22"/>
<path transform="translate(1018,407)" d="m0 0 8 2 18 10 24 14 28 16 5 4 3 5v90l-4 6-10 7-25 14-24 14-16 9h-11l-18-10-9-6v-2l11-5 4 1 16 9 5-1 52-30 15-9 1-3v-80l-15-9-26-15-28-16-4-1-24 14-28 16-17 10-1 1-1 83 5 2 15 9 3 1h9l4-4 1-84 1-1h12v88l-4 9-7 5-3 1h-14l-16-8-12-7-6-7-1-7v-80l2-7 8-7 27-15 17-10 24-14z" fill="#81B04D"/>
<path transform="translate(1431)" d="m0 0h172l-6 7-59 59-4 1-5 4-8 3h-13l-9-4-10-7-45-45-4-5-3-3-4-7z" fill="#D2D4D4"/>
<path transform="translate(1042)" d="m0 0h166l-6 7-62 62-7 4-10 1-9-3-9-7-63-63z" fill="#81B04D"/>
<path transform="translate(1909)" d="m0 0h139v32l-8 7-21 21h-2v2l-11 8-9 4h-7l-13-5-9-6-6-5-8-8v-2l-3-1-5-6-1-5-21-21-12-11z" fill="#D2D4D4"/>
<path transform="translate(1398)" d="m0 0h11l5 8 8 7 5 4v2l4 2 12 11 8 7 12 11 8 6 14 16 4 8 2 6v14l-6 12-10 11h-2l-2 4-5 5h-2v2h-2l-2 4-14 14-7 8-5 5-2 3h-2l-2 4-5 5h-2l-2 4-3 1v2l-10 8-9 5-5 2h-17l-12-6-9-8-7-8-11-11-9-11-11-11v-2l-3-1-7-8-7-6v-2l-4-2-8-8-5-8 1-6 3-1 76 76 8 5 11 2 11-4 12-11 7-8 8-8 8-7 43-43 5-9v-14l-5-8-72-72z" fill="#E5E5E7"/>
<path transform="translate(1961,78)" d="m0 0 5 1 3 8v12l-4 10-9 11-4 4h-2v2h-2l-2 4-3 1-2 4-107 107-1 2h-2v2h-2v2l-53 53-11 8-6 2h-13l-8-3-14-12-11-13-8-8 1-2 24 24 8 4 3 1h9l10-5 126-126 8-7 61-61 5-8 2-7z" fill="#D2D4D4"/>
<path transform="translate(1359)" d="m0 0h39l58 58-1 2-9-9-9-6-12-3-20 2-25-1h-34l-9-1h-9l-10 2-6 5 2-4 42-42z" fill="#4B7E22"/>
<path transform="translate(1034,465)" d="m0 0 17 1 11 4 6 5 4 7 1 10h-13l-4-9-5-3-4-1h-16l-8 3-2 3v6l7 3 29 5 11 4 7 8 1 3v9l-3 8-4 5-10 5-8 2h-20l-12-3-8-5-5-6-2-6v-8h12l4 9 3 3 5 2 6 1h13l9-2 5-5v-6l-3-3-13-3-21-3-10-4-7-8-1-4v-8l5-10 9-6z" fill="#81B04D"/>
<path transform="translate(2047,44)" d="m0 0h1v86l-4-1-4-4v-2l-12-2v-2l-21-3-3-1v-2l-13 2-16 8-4 1-8 7v-3z" fill="#4B7D22"/>
<path transform="translate(1124,296)" d="m0 0 6 2 22 13 1 1v32l-24 14-6 1-24-14-1-1v-32l9-6z" fill="#F6F7F7"/>
<path transform="translate(1779,347)" d="m0 0 7 6 137 137 2 1v2l4 2 119 119v6l-7-4-5-5-4-3v-2l-4-2-201-201-5-4-7-8-35-35-1-2z" fill="#E4E5E6"/>
<path transform="translate(1475,80)" d="m0 0h5l3 5 2 10-2 11-6 9-5 5h-2l-2 4-4 2-2 4-17 17-2 3h-2l-1 3h-2l-2 4-18 18-2 3h-2l-2 4-10 8-11 5h-9l-10-3-14-12-14-15v-2h-2l-7-8-23-23-2-1v-2l-4-2-4-4-1-5 7 6 54 54 8 5 11 2 11-4 12-11 7-8 8-8 8-7 43-43 5-9z" fill="#D2D4D4"/>
<path transform="translate(473,810)" d="m0 0 2 1-4 5v10l2 17-1 15v30l1 17-4-2-30-30-4-8v-13l4-8z" fill="#4C7E22"/>
<path transform="translate(1208)" d="m0 0h19l-1 3h-2v2l-8 7-4 2-2 4-24 24-4 5h-2v2l-3 3h-2l-2 4-5 6-7 6-6 7-14 8-13 1-9-3-9-7-5-5-27-30-6-6 1-2 35 35 10 6 11 1 8-3 10-9z" fill="#D2D4D4"/>
<path transform="translate(529,797)" d="m0 0 7 3 16 15 8 7 12 11 11 10 6 10 2 7-1 10-3 10-8 11-10 10-3 6h-30l6-7 26-26 5-10v-10l-4-9-9-10-18-18-2-4-13-13v-2z" fill="#E5E5E7"/>
<path transform="translate(1132,683)" d="m0 0h23l10 5 4 4 3 6v16l-5 8-6 5-8 3h-22v-46z" fill="#050604"/>
<path transform="translate(1032)" d="m0 0h10l30 30 3 5 8 8v2l3 1 7 8 8 9v2l3 1 5 5 1 3 4 2 7 5 9 2 11-1 9-5 5-3 3-4h2l2-4 6-5 7-9h2l1-3h2v-2h2l1-3h2l2-4 28-28 4-2 2-4 3-1v-2h2l1-3h6l-2 5-5 5h-2l-2 4-8 7-9 9-7 8-6 7-4 4h-2l-1 3h-2l-2 5-4 2-2 4-7 8-8 7-12 9-7 3-8 1-10-1-10-5-10-9-11-11-7-8-1-3h-2l-7-8-6-7-7-6-7-8-4-4v-2h-2v-2h-2l-7-8-8-8z" fill="#E5E5E7"/>
<path transform="translate(845,696)" d="m0 0 9 1 2 2 1-2h9v35l-4 8-8 4h-14l-4-2 1-7 2-1 3 1h10l3-5 1-4-5 3h-9l-5-3-4-8v-10l4-8 4-3z" fill="#040303"/>
<path transform="translate(891,683)" d="m0 0h9l6 10 9 16 2 5v-31h9v47h-10l-6-9-11-20-1 28-1 1h-8l-1-1v-45z" fill="#070706"/>
<path transform="translate(996,681)" d="m0 0h11v48l-1 1h-8v-4l-10 5-6-1-7-6-2-6v-11l5-8 5-3h7l5 2z" fill="#060604"/>
<path transform="translate(1359)" d="m0 0h39l38 38-1 2-12-12-6-3v-2l-4-1v-2l-10-1-13 2h-10l-18-2h-13l-10 4-7 6 2-4 22-22z" fill="#366411"/>
<path transform="translate(667,696)" d="m0 0h7l6 3 5 10v8l-3 7-5 5-4 2-8-1-3-2-1 15h-10v-46h8v3z" fill="#040303"/>
<path transform="translate(730,794)" d="m0 0 5 1 10 7v2l4 2 15 15 6 5v2h2l5 5 9 10 27 27 2 1v2l4 2 3 3v2h2l4 4v2h2l9 11 3 3v2h2l2 5h-9l-16-16-2-4-90-90z" fill="#E6E6E8"/>
<path transform="translate(396,882)" d="m0 0h8l9 4 10 7 9 7 5 5 1 2h-71l2-4 16-16 7-4z" fill="#D2D4D4"/>
<path transform="translate(1234,696)" d="m0 0h7l6 4 6-4h8l6 5 1 3v25h-10l-1-22-2-2-5 1-1 2-1 21h-10l-1-24-7 1-1 2-1 21-10 1v-33h9v3h2v-2z" fill="#020101"/>
<path transform="translate(1190,696)" d="m0 0h11l6 4 3 5 2 6v8l-4 6-5 4-4 2h-9l-8-4-4-5-1-2v-12l3-6 6-5z" fill="#050602"/>
<path transform="translate(946,696)" d="m0 0h10l6 3 5 6 1 3v9l-3 7-6 5-2 1h-13l-6-4-4-5-1-3v-8l3-8 7-5z" fill="#050403"/>
<path transform="translate(722,696)" d="m0 0h8l8 4 4 5 1 3v11l-4 6-5 4-6 2-8-1-8-5-3-5-1-10 3-7 7-6z" fill="#040303"/>
<path transform="translate(579,684)" d="m0 0h29v8h-18v10h17v7l-1 1h-16v11h18v9h-28l-1-1z" fill="#080806"/>
<path transform="translate(1328,308)" d="m0 0 5 2 12 7v18l-9 6-5 3-6-1-12-7v-19l13-8z" fill="#81B04D"/>
<path transform="translate(456,827)" d="m0 0 2 1-2 2-1 5v10l2 21v19l2 5 6 7-4-2-22-22-4-8v-13l4-8z" fill="#396713"/>
<path transform="translate(570,845)" d="m0 0 6 1 4 5 3 7v14l-3 8-9 10-5 5h-2l-2 4-7 8h-19l6-7 26-26 5-10v-10z" fill="#D2D4D4"/>
<path transform="translate(1451,696)" d="m0 0h11l6 4 3 5 1 4v7l-1 1h-21l4 4h15l1 6-1 2-3 1h-15l-7-4-4-6-1-9 4-10 5-4z" fill="#020101"/>
<path transform="translate(1423)" d="m0 0h8l6 7 1 5 4 2 11 12 3 3v2l4 2 13 13v2l4 2 14 14 9 6 8 3h13l10-4 4-4h2l-2 4-9 9-3 2h-17l-10-4-12-8-11-11-3-4v-2h-2l-7-8-4-4v-2l-4-2-7-8-14-15v-2l-3-1v-2h-2l-4-5z" fill="#E5E5E7"/>
<path transform="translate(1342,696)" d="m0 0h12l5 3 3 3 1 3 1 24-1 1h-8l-1-3-7 4-8-1-5-5-1-8 4-6 6-3 9-1-3-3-12 1-1-6z" fill="#020101"/>
<path transform="translate(1025,696)" d="m0 0h10l5 3 4 5 1 4v8l-1 1h-20l4 4h14l1 1v6l-4 2h-14l-7-4-3-3-2-6v-8l4-8 5-4z" fill="#070804"/>
<path transform="translate(810,696)" d="m0 0h8l5 3 3 7v24h-10v-23l-4-2-5 1-1 1-1 22-1 1h-9l-1-1v-32h9v3z" fill="#070805"/>
<path transform="translate(1311,696)" d="m0 0h8l5 3 3 7v23l-1 1h-8l-1-1-1-20-1-3-5-1-3 2-1 22-1 1h-7l-3-1v-32h9v3z" fill="#020101"/>
<path transform="translate(1387,696)" d="m0 0h9l6 5 1 3 1 25-1 1h-10l-1-22-3-3-5 2-1 1-1 22h-10v-33h9l1 2z" fill="#020101"/>
<path transform="translate(612,697)" d="m0 0h11l6 9 5-9h11l-2 4-7 10 1 4 8 12v3h-10l-6-9v-2h-2l-1 5-4 6h-10l1-4 8-12-2-5-7-10z" fill="#050504"/>
<path transform="translate(1124,445)" d="m0 0h8l7 4 3 6v7l-4 6-6 4h-7l-6-4-4-5v-9l4-6z" fill="#F0F2F2"/>
<path transform="translate(1096,696)" d="m0 0h11l2 1-1 7-10 1-1 3 8 2 5 4 1 2v7l-4 5-6 2h-9l-6-2 1-7 13 1 1-4-8-2-6-5v-8l5-6z" fill="#040502"/>
<path transform="translate(1423,696)" d="m0 0h10l3 1-1 9h-10l-3 1-1 9 5 5h9l1 1v7l-2 1h-12l-8-4-4-6-1-9 3-8 8-6z" fill="#020101"/>
<path transform="translate(1069,697)" d="m0 0h11v34l-3 7-4 4-4 2h-7l-1-2v-6l5-2 2-2z" fill="#060605"/>
<path transform="translate(1142,692)" d="m0 0h10l5 3 3 3 1 3v10l-5 8-6 3h-8z" fill="#7EAD4B"/>
<path transform="translate(692,681)" d="m0 0h10v48l-1 1h-9z" fill="#070606"/>
<path transform="translate(765,696)" d="m0 0h5v10l-7 1-2 3-1 19h-10v-32h8l1 4z" fill="#030303"/>
<path transform="translate(1041,651)" d="m0 0h47l12 2 2 2-14 2h-24l-44-1-13-1-2-2z" fill="#E6E6E8"/>
<path transform="translate(1277,697)" d="m0 0h10v32h-10z" fill="#020101"/>
<path transform="translate(776,697)" d="m0 0h10v32h-10z" fill="#030202"/>
<path transform="translate(1058,619)" d="m0 0 30 4 13 3 13 1 7 2v1l-18 1-27-5-5-2-10-1h-9l-26 5-13 1-7-1 1-2h15z" fill="#E6E6E8"/>
<path transform="translate(962,220)" d="m0 0h15l18 2 12 4 10 5 4 4 12 5 8 1 4 1v2l-9 2-10-1-7-8-7-6-9-4-15-3-26-2z" fill="#E6E6E8"/>
<path transform="translate(967,616)" d="m0 0 18 5 12 3v1l-11-1-11-3h-7l-6 4-6 3-9 3-16 4-7 2h-5l1-3 26-7 14-6h2v-2z" fill="#E6E6E8"/>
<path transform="translate(723,703)" d="m0 0 6 1 3 3 1 3v7l-3 5-7 1-4-5v-10z" fill="#7EAD4B"/>
<path transform="translate(665,704)" d="m0 0 7 1 3 5v7l-5 6-6-1-3-3v-11z" fill="#7EAC4B"/>
<path transform="translate(1191,704)" d="m0 0h6l4 4v10l-5 5h-5l-3-4v-12z" fill="#4B7D22"/>
<path transform="translate(947,704)" d="m0 0h7l3 4v10l-4 5h-5l-4-5v-10z" fill="#80AF4C"/>
<path transform="translate(407,883)" d="m0 0h8l9 4 10 7 5 5 1 3 3 1 2 4h-7l-3-3v-2l-4-2-8-6-13-9z" fill="#E6E6E8"/>
<path transform="translate(437,874)" d="m0 0 4 2 28 28 4 2v1h-11l-3-5-14-14-7-10z" fill="#E5E5E7"/>
<path transform="translate(909,485)" d="m0 0h2l2 3 4 1 1-2h2l-1 5-1 6 4 7 1 4v8l-2-3v-3h-3l-1 11-1 3-1 11-2-3v-20l1-18-2-1z" fill="#E6E6E8"/>
<path transform="translate(601,885)" d="m0 0 1 3-4 14 2 2v3h-21l5-5z" fill="#4A7D21"/>
<path transform="translate(988,704)" d="m0 0 6 1 2 3v11l-3 3h-6l-3-3-1-9 3-5z" fill="#80AF4C"/>
<path transform="translate(897,222)" d="m0 0 3 1-6 4-9 3-14 6-18 6h-2v2l-8 4v-3l4-4 7-4 8-3 25-8z" fill="#E6E6E8"/>
<path transform="translate(847,704)" d="m0 0h6l3 4v9l-5 5-5-1-3-5v-7z" fill="#80AE4C"/>
<path transform="translate(1124,445)" d="m0 0h8l7 4 3 6v7l-4 6-6 4h-7l-6-4-4-5v-9l4-6zm2 2-6 3-3 6 1 7 5 6 8 1 5-3 3-4v-9l-5-6z" fill="#7BAA48"/>
<path transform="translate(1310,642)" d="m0 0 9 2 6 1h73l13 2v1h-18l-16-1-22 1h-21l-13-1-11-4z" fill="#E6E6E8"/>
<path transform="translate(2039,52)" d="m0 0v3l-66 66-5 6-6 4 2-4z" fill="#659636"/>
<path transform="translate(1052,718)" d="m0 0h6l4 4-1 6-3 3h-5l-4-4 1-7z" fill="#080905"/>
<path transform="translate(1890,3)" d="m0 0 4 2 39 39-1 3-42-42z" fill="#EAEBEB"/>
<path transform="translate(1124,451)" d="m0 0h8l2 2-1 6 1 7h-3l-1-5-4-1v6h-2l-1-2v-12z" fill="#93BA68"/>
<path transform="translate(1598)" d="m0 0h5l-6 7-35 35-2-1 12-12 1-2h2l2-4 17-17z" fill="#E5E5E7"/>
<path transform="translate(922,444)" d="m0 0 3 1-6 4-14 4-3 4 2 8 1 7-4-5-2-8v-5l7-6 10-2z" fill="#E6E6E8"/>
<path transform="translate(1191,704)" d="m0 0h6l4 4v10l-5 5h-5l-3-4v-10l2 2 3 7h4l1-2v-7l-4-3-4-1z" fill="#77A446"/>
<path transform="translate(887,205)" d="m0 0 12 1 10 1v1l-13 2h-14l-7-2 3-2z" fill="#E6E6E8"/>
<path transform="translate(1280,682)" d="m0 0h5l3 4-2 5-7 1-3-5 2-4z" fill="#020101"/>
<path transform="translate(1072,682)" d="m0 0h5l3 3-1 5-2 2-7-1-1-1 1-7z" fill="#050404"/>
<path transform="translate(778,682)" d="m0 0h6l2 3-1 5-2 2h-5l-3-3 1-5z" fill="#080806"/>
<path transform="translate(1211,696)" d="m0 0h4l1 5v10l-2 4-2 1-2-11v-6z" fill="#4C7E24"/>
<path transform="translate(961,481)" d="m0 0h15l1 4v21l-2-4-1-14-2-1v-2h-6z" fill="#E6E6E8"/>
<path transform="translate(1310,704)" d="m0 0 3 1 2 6-2 10-3-2-3-13z" fill="#356310"/>
<path transform="translate(821,233)" d="m0 0 1 2-3 10-2 2v7l2 6v6l-2 2-1-9-1-2v-12l4-10z" fill="#E6E6E8"/>
<path transform="translate(1402,3)" d="m0 0 4 2 20 20-1 3-23-23z" fill="#EAEBEB"/>
<path transform="translate(1348,714)" d="m0 0h5l-1 7-2 2h-5l-2-5 2-3z" fill="#356310"/>
<path transform="translate(1117,461)" d="m0 0 4 5 5 3 8-1 5-6h2l-2 5-5 4-2 1h-7l-6-4-4-5z" fill="#81B04D"/>
<path transform="translate(1883)" d="m0 0h4l7 8 16 16-1 2-15-15-11-9z" fill="#5F9132"/>
<path transform="translate(848,636)" d="m0 0h14l-4 2-6 1h-30v-1l20-1z" fill="#E6E6E8"/>
<path transform="translate(1027,703)" d="m0 0h5l3 3v3h-12l2-4z" fill="#80AF4C"/>
<path transform="translate(1453,703)" d="m0 0h5l3 3v3h-12l3-5z" fill="#356310"/>
<path transform="translate(936,613)" d="m0 0 1 2-6 7-5 2-3-1 4-5z" fill="#E6E6E8"/>
<path transform="translate(1147,491)" d="m0 0h3v7l-3 11h-2l-1 2 1-12 1-1v-6z" fill="#E6E6E8"/>
<path transform="translate(1111,617)" d="m0 0 12 1 9 4v1l-10-1-11-4z" fill="#E6E6E8"/>
<path transform="translate(1142,513)" d="m0 0v3l-4 4h-2l-1 3-8 2 2-4h4l1-2z" fill="#E6E6E8"/>
<path transform="translate(1032,551)" d="m0 0h5l1 4-9 2-2-1z" fill="#E6E6E8"/>
<path transform="translate(815,394)" d="m0 0 5 1v2l2 1-10 2-2-1 1-3z" fill="#E6E6E8"/>
<path transform="translate(1334,713)" d="m0 0 1 2-1 7 3 5v3l-4-2-2-5v-6z" fill="#467520"/>
<path transform="translate(810,311)" d="m0 0h2l2 3v10l2 1h-3l-2-7-2 3z" fill="#E6E6E8"/>
<path transform="translate(1598)" d="m0 0h5l-6 7-3 3h-2l2-4z" fill="#EBECED"/>
<path transform="translate(837,250)" d="m0 0v3 3h-3l-2 5-2 4-1-2 3-8z" fill="#E6E6E8"/>
<path transform="translate(1191,704)" d="m0 0h6l4 4v4h-2l-3-5-6-1z" fill="#719D42"/>
<path transform="translate(814,273)" d="m0 0h2l-1 4-5 5v-5z" fill="#E6E6E8"/>
</svg>
