<?xml version="1.0" encoding="UTF-8"?>
<svg version="1.1" viewBox="0 0 2048 2048" width="1280" height="1280" xmlns="http://www.w3.org/2000/svg">
<path transform="translate(0)" d="m0 0h2048v2048h-2048z" fill="#0079CC"/>
<path transform="translate(1510,933)" d="m0 0h78l32 3 25 5 32 10 19 8 16 8 12 7 16 11 10 8 11 10 8 7 14 15 9 11 13 16 14 20 3 6-1 4-8 7-17 12-16 11-43 29-50 32-6 4-4-1-9-10-11-16-11-13-12-12-13-9-16-8-15-5-24-4h-22l-21 4-16 6-12 7-9 7-9 11-8 16-4 14-1 8v20l4 16 5 12 7 12 9 10 8 8 18 12 16 9 15 8 28 13 43 19 33 15 24 11 15 8 16 8 24 13 21 13 15 10 19 14 14 12 15 14 7 8 13 16 11 17 12 23 8 21 6 19 6 29 3 23 1 12v38l-3 27-5 24-6 21-8 20-12 23-11 16-8 10-13 15-8 8-11 9-12 10-23 15-27 14-27 11-26 8-24 6-31 5-29 2h-56l-32-2-25-3-29-6-31-9-31-12-24-11-22-12-22-14-17-13-11-9-12-11-14-14-11-14-14-19-16-24-9-16-1-3 7-6 22-13 24-14 26-15 53-31 21-12 5 4 14 19 10 13 9 10 7 8 8 8 8 7 14 12 17 11 15 7 24 8 23 5 28 3h14l26-3 25-6 19-8 16-9 14-12 10-13 6-12 4-13 1-5v-30l-4-16-8-16-9-12-10-9-18-12-21-12-38-19-33-15-63-28-29-14-25-13-17-10-24-16-12-9-13-11-8-7-21-21-15-20-9-15-9-16-10-21-8-22-5-25-3-33v-50l3-24 5-21 8-24 11-24 10-17 13-18 13-15 16-16 11-9 15-11 21-13 25-12 25-9 27-7 22-4z" fill="#FEFEFE"/>
<path transform="translate(711,943)" d="m0 0h350l98 1 10 1 1 8v157l-6 1h-260v757l-5 1h-183l-1-1v-757h-266v-84l1-82 1-1z" fill="#FEFEFE"/>
</svg>
