<?xml version="1.0" encoding="UTF-8"?>
<svg version="1.1" viewBox="0 0 2048 850" width="1280" height="1280" xmlns="http://www.w3.org/2000/svg">
<path transform="translate(23,107)" d="m0 0h277l75 130 7 12 2 1 2-6 14-24 60-104 6-9h277l-2 5-16 28-14 24-16 28-14 24-16 28-14 24-16 28-14 24-60 104-14 24-16 28-14 24-16 28-14 24-16 28-14 24-16 28-14 24-16 28-14 24-12 21-1 2-3-1-14-25-10-17-15-26-14-24-16-28-14-24-16-28-14-24-120-208-14-24-16-28-14-24-16-28-14-24-16-28-14-24-15-26-6-10z" fill="#4FB98A"/>
<path transform="translate(234,107)" d="m0 0h66l75 130 7 12 2 1 2-6 14-24 60-104 6-9h64l69 1-6 11-10 17-150 260-14 24-16 28-11 19-9 14-3-3-16-28-14-24-16-28-10-17-16-28-14-24-16-28-14-24-16-28-14-24-60-104-7-11v-2z" fill="#455567"/>
<path transform="translate(1667,343)" d="m0 0h224v223h-224z" fill="#F2DB54"/>
<path transform="translate(1318,343)" d="m0 0h223l-11 126-9 100-5 3-86 24-16-4-72-20-4-2-1-3-19-212z" fill="#1073B5"/>
<path transform="translate(963,342)" d="m0 0h220l1 1-1 18-18 202-1 6-19 6-72 20-50-14-39-11-2-1-5-52-15-168v-6z" fill="#E05227"/>
<path transform="translate(1879,253)" d="m0 0 24 1 20 3 15 4 16 8 9 7 7 7 8 14 4 13 2 13v22l-3 22-3 21 1 8 6 10 9 11 10 10 6 7 8 7 14 14-2 4-10 9-29 29-10 14-3 7 2 21 4 29v21l-3 17-5 13-7 11-8 8-11 7-11 5-19 5-24 3h-17v-39l5-1 23-2 12-3 10-5 7-8 4-12v-25l-5-30v-20l3-12 7-14 8-10 9-10 12-10-2-4-12-11-7-7-10-14-5-11-3-12v-21l5-26 1-10v-10l-2-13-5-10-7-6-10-4-15-3-23-2z" fill="#B9BAB9"/>
<path transform="translate(969,253)" d="m0 0h7l1 1v39l-24 2-14 3-12 6-7 8-4 13v23l6 33v12l-3 14-5 12-8 12-12 13-11 10-2 2 13 11 8 8 9 12 8 16 3 14v11l-6 39v18l3 12 4 7 6 5 8 4 13 3 27 3v39h-17l-19-2-18-4-15-6-11-7-8-7-7-10-5-11-4-17-1-10v-12l3-24 3-21v-11l-5-9-9-11-40-40 6-7 36-36 9-12 3-7v-10l-5-33-1-11v-12l2-16 5-16 6-11 9-10 11-8 16-7 23-5z" fill="#B9BAB9"/>
<path transform="translate(1073,388)" d="m0 0h48l22 1v8l-2 19-1 1-105 1 2 27 41-1 60 1-1 16-4 45-2 22-1 3-16 5-40 11-16-4-40-11-3-2-3-35v-8h28l2 15v7l10 2 18 5 9-1 22-6h3v-10l3-26h-96l-1-2-7-77v-5z" fill="#EBEBEB"/>
<path transform="translate(1359,387)" d="m0 0h140v13l-10 110-2 19-3 2-23 6-13 4-16 4h-7l-5-2-16-4-9-3-10-2-7-2-6-2-1-2-1-19-2-16v-7h28l1 4 1 17 12 4 16 4h8l26-8 3-34-65-1-2-28 69-1 2-14 1-14h-107l-1-17z" fill="#FCFCFC"/>
<path transform="translate(1076,360)" d="m0 0h86l2 1-1 17-7 80-3 32-4 46-2 18-9 4-52 14-11 2-2-7-1-20 24-7 32-9h2l1-18 4-40 3-28h-101l-1-2-2-26 106-1 2-19 1-8h-59l-10-1-1-2v-25z" fill="#EE662F"/>
<path transform="translate(1429,361)" d="m0 0h91v13l-10 113-6 68-2 2-62 17-7 2h-4l-1-31 24-6 13-4 21-6 7-73 4-49 2-20h-70z" fill="#31A9DD"/>
<path transform="translate(1074,446)" d="m0 0h63v15l-4 45-2 22-1 3-16 5-40 11-16-4-40-11-3-2-3-35v-8h28l2 15v7l10 2 18 5 9-1 22-6h3v-10l3-26h-33z" fill="#FCFCFC"/>
<path transform="translate(1239,408)" d="m0 0h27l1 1v40h37v25h-37v40l-1 1h-27v-41h-38v-25h38z" fill="#BABBBA"/>
<path transform="translate(1587,408)" d="m0 0h27v41h38v25l-37 1-1 40h-27l-1-40-37-1v-25l37-1z" fill="#B9BAB9"/>
<path transform="translate(1831,444)" d="m0 0h13l10 3 8 6 5 6v3l-9 5-7 4-5-6-7-2-7 1-3 3-1 6 2 6 5 2 21 10 9 7 5 6 3 5 1 13-3 11-8 9-8 4-6 2h-20l-12-4-8-6-8-9 2-4 13-7 4 2 4 5 9 4h11l6-4 2-3-1-7-5-5-25-12-8-7-5-9-1-4v-12l4-9 7-8 9-4z" fill="#303033"/>
<path transform="translate(1769,445)" d="m0 0h19l1 1v78l-3 10-9 10-10 4h-18l-10-4-10-9-2-3 1-4 14-9 5 5 1 3 5 2h8l4-2 2-4 1-77z" fill="#353638"/>
<path transform="translate(1012,487)" d="m0 0h28l2 15v7l10 2 22 6v28l4 1-6 1-43-12-13-4-1-1-3-35z" fill="#EBEBEB"/>
<path transform="translate(1368,486)" d="m0 0h28l1 4 1 17 12 4 20 5v29l-9-1-8-3-9-2-9-3-10-2-7-2-6-2-1-2-1-19-2-16z" fill="#ECECEC"/>
<path transform="translate(1359,387)" d="m0 0h140v1h-69v27h-69l-1-17z" fill="#E9EAEA"/>
<path transform="translate(1100,388)" d="m0 0h21l22 1v8l-2 19h-64l-3-1v-25l24-1z" fill="#FCFCFC"/>
<path transform="translate(621,421)" d="m0 0h10l1 58 2 5h7l1-1 1-61 1-1h10v63l-3 6-6 5-4 1h-8l-7-3-4-4-2-6v-61z" fill="#6D706E"/>
<path transform="translate(578,421)" d="m0 0h11l1 1 8 55 5-31 4-25h10l-1 14-9 59-1 1h-17l-3-16-8-53z" fill="#6B716E"/>
<path transform="translate(729,421)" d="m0 0h13l6 3 4 7 1 10h-11l-3-9h-6l-2 3 1 9 6 8 11 11 4 10v8l-3 8-5 5-7 2h-7l-8-4-4-6-1-5v-8h11l2 10 1 1h6l2-2v-8l-4-7-13-13-4-8-1-9 3-10 6-5z" fill="#6A706D"/>
<path transform="translate(660,421)" d="m0 0h30l1 1v10h-20v20h15l1 1v10h-16v21l20 1v10h-31l-1-16z" fill="#6C716E"/>
<path transform="translate(1011,473)" d="m0 0h96l-1 17-2 19-29 8h-5l3-1v-42h-62z" fill="#EE662F"/>
<path transform="translate(1429,472)" d="m0 0h35l-3 35-8 3-19 6h-5z" fill="#31A9DD"/>
<path transform="translate(1857,506)" d="m0 0 8 6 3 9-1 7-5 6-8 6-4 6 2 1-3 1h-20l-12-4-8-6-8-9 2-4 13-7 4 2 4 5 9 4h11l6-4 5-3 1-8h2z" fill="#353738"/>
<path transform="translate(1428,415)" d="m0 0h40v14l-2 14-1 1h-69v-1h33z" fill="#33A9DD"/>
<path transform="translate(1034,417)" d="m0 0h40v28h-37l-1-2z" fill="#E05127"/>
<path transform="translate(704,421)" d="m0 0h10l1 1v58l-3 9-5 5-4 1h-10v-11l8-1 1-2 1-59z" fill="#68766F"/>
<path transform="translate(1396,444)" d="m0 0h33l1 28h-32z" fill="#EAEAEA"/>
<path transform="translate(1820,455)" d="m0 0h10l-5 5-2 9 2 10 3 7v2l-11-1-6-5-3-4h-1v-12h4l2-6 5-4z" fill="#353738"/>
<path transform="translate(1816,518)" d="m0 0 4 2 4 5 9 4h11l6-1v3l-5 3h-8l-5-2-9-2-8-5-6 2 1 4 9 5 7 6 1 4-7-1-9-5-8-8-2-5 9-6z" fill="#303033"/>
<path transform="translate(770,463)" d="m0 0h34v8h-33l-1-1z" fill="#67746E"/>
<path transform="translate(770,446)" d="m0 0h34v7l-1 1h-33z" fill="#6E7471"/>
<path transform="translate(1769,456)" d="m0 0h2l2 6v18l-2 7v14l1 5 1 16-8 8-7 2 3-3 4-2 3-9z" fill="#2F2F32"/>
<path transform="translate(1840,450)" d="m0 0 8 1 4 3 3 3 1 4-4 1-6-4-11-4z" fill="#343637"/>
<path transform="translate(1733,525)" d="m0 0v3h-2l2 6 5 4 3 1v2l4 1 6 4v1h-6l-10-6-8-9 1-4z" fill="#313134"/>
<path transform="translate(1846,528)" d="m0 0h4v3l-5 3h-8l-4-2v-2l11-1z" fill="#313134"/>
<path transform="translate(1174,342)" d="m0 0h9l1 1-1 18-2-1 1-15-21-1v-1z" fill="#EA703A"/>
<path transform="translate(1018,477)" d="m0 0 6 3-1 4-7 1-1-5z" fill="#EE662F"/>
<path transform="translate(1360,388)" d="m0 0h40v1l-35 1-5 2z" fill="#FEFEFE"/>
<path transform="translate(1742,519)" d="m0 0 5 5 1 3 5 2 2 2-7-1-8-7z" fill="#343437"/>
</svg>
