<svg width="1133" height="280" viewBox="0 0 1133 280" fill="none" xmlns="http://www.w3.org/2000/svg">
<g clip-path="url(#clip0_13_776)">
<rect width="1133" height="280" rx="32" fill="url(#paint0_linear_13_776)"/>
<path opacity="0.0144928" d="M1021.95 250.744C1031.93 253.043 1042.24 248.455 1047.22 239.493L1103.77 137.616C1106.71 132.316 1107.44 126.069 1105.8 120.233L1056.96 -53.6315C1055.67 -58.2211 1052.99 -62.2967 1049.28 -65.2945L929.644 -162.054C922.924 -167.49 913.723 -168.698 905.826 -165.183L815.821 -125.11C807.925 -121.594 802.666 -113.948 802.208 -105.316L794.061 48.3373C793.809 53.0979 795.042 57.8193 797.59 61.8484L894.116 214.482C897.356 219.605 902.487 223.242 908.395 224.602L1021.95 250.744Z" stroke="url(#paint1_linear_13_776)" stroke-opacity="0.5" stroke-width="4"/>
<path opacity="0.0289855" d="M1001.74 255.067C1011.57 257.864 1022.07 253.833 1027.5 245.176L1088.98 147.286C1092.2 142.145 1093.27 135.936 1091.94 130.013L1052.74 -44.449C1051.69 -49.1143 1049.21 -53.3369 1045.65 -56.5294L932.181 -158.299C925.754 -164.063 916.641 -165.742 908.582 -162.649L817.225 -127.58C809.166 -124.486 803.517 -117.14 802.598 -108.557L786.368 43.0015C785.858 47.756 786.844 52.5509 789.186 56.7193L876.793 212.599C879.768 217.891 884.714 221.793 890.553 223.453L1001.74 255.067Z" stroke="url(#paint2_linear_13_776)" stroke-opacity="0.5" stroke-width="4"/>
<path opacity="0.0434783" d="M981.544 258.749C991.197 262.032 1001.86 258.568 1007.74 250.238L1073.86 156.568C1077.37 151.601 1078.77 145.448 1077.75 139.454L1048.12 -35.0763C1047.32 -39.8049 1045.06 -44.1642 1041.65 -47.5442L934.538 -153.947C928.422 -160.023 919.421 -162.168 911.222 -159.504L818.787 -129.47C810.588 -126.806 804.567 -119.78 803.19 -111.27L779.074 37.773C778.308 42.5076 779.041 47.3633 781.171 51.6607L859.786 210.275C862.486 215.723 867.233 219.879 872.989 221.837L981.544 258.749Z" stroke="url(#paint3_linear_13_776)" stroke-opacity="0.5" stroke-width="4"/>
<path opacity="0.057971" d="M961.406 261.797C970.854 265.554 981.647 262.662 987.951 254.684L1058.46 165.449C1062.24 160.671 1063.96 154.592 1063.26 148.543L1043.1 -25.5367C1042.54 -30.3158 1040.51 -34.801 1037.27 -38.3611L936.685 -149.014C930.894 -155.385 922.03 -157.988 913.713 -155.76L820.476 -130.777C812.159 -128.548 805.784 -121.862 803.954 -113.449L772.171 32.6719C771.149 37.3731 771.626 42.2765 773.537 46.6921L843.114 207.531C845.532 213.12 850.067 217.522 855.725 219.772L961.406 261.797Z" stroke="url(#paint4_linear_13_776)" stroke-opacity="0.5" stroke-width="4"/>
<path opacity="0.0724638" d="M941.354 264.218C950.574 268.437 961.469 266.121 968.175 258.517L1042.79 173.916C1046.82 169.342 1048.87 163.354 1048.49 157.267L1037.67 -15.8533C1037.36 -20.6701 1035.56 -25.2701 1032.5 -29.002L938.591 -143.517C933.139 -150.165 924.434 -153.218 916.024 -151.43L822.256 -131.499C813.846 -129.712 807.135 -123.382 804.859 -115.091L765.65 27.7179C764.372 32.3718 764.591 37.3098 766.275 41.8326L826.8 204.39C828.927 210.105 833.238 214.741 838.783 217.278L941.354 264.218Z" stroke="url(#paint5_linear_13_776)" stroke-opacity="0.5" stroke-width="4"/>
<path opacity="0.0869565" d="M921.424 266.024C930.393 270.691 941.358 268.955 948.445 261.744L1026.87 181.959C1031.15 177.604 1033.52 171.724 1033.46 165.616L1031.82 -6.04946C1031.77 -10.8907 1030.2 -15.594 1027.32 -19.4891L940.227 -137.474C935.127 -144.382 926.605 -147.874 918.125 -146.531L824.097 -131.638C815.617 -130.295 808.591 -124.34 805.875 -116.195L759.5 22.9302L757.602 22.2977L759.5 22.9302C757.969 27.5232 757.926 32.4823 759.378 37.101L810.862 200.873C812.693 206.7 816.767 211.558 822.185 214.378L921.424 266.024Z" stroke="url(#paint6_linear_13_776)" stroke-opacity="0.5" stroke-width="4"/>
<path opacity="0.101449" d="M901.648 267.228C910.344 272.329 921.348 271.172 928.793 264.375L1010.73 189.57C1015.25 185.446 1017.93 179.691 1018.2 173.58L1025.55 3.8516C1025.76 -1.00103 1024.43 -5.79567 1021.75 -9.8451L941.564 -130.905C936.83 -138.053 928.512 -141.974 919.985 -141.078L825.966 -131.196C817.439 -130.3 810.118 -124.735 806.973 -116.759L753.709 18.3273C751.927 22.8459 751.621 27.8125 752.836 32.5154L795.318 197.006C796.848 202.929 800.674 207.998 805.95 211.093L901.648 267.228Z" stroke="url(#paint7_linear_13_776)" stroke-opacity="0.5" stroke-width="4"/>
<path opacity="0.115942" d="M882.058 267.844C890.46 273.362 901.472 272.785 909.25 266.419L994.395 196.74C999.136 192.86 1002.13 187.248 1002.72 181.15L1018.87 13.8258C1019.34 8.97525 1018.25 4.10136 1015.77 -0.0929372L942.577 -123.831C938.218 -131.2 930.127 -135.538 921.577 -135.09L827.83 -130.177C819.28 -129.729 811.687 -124.569 808.122 -116.785L748.264 13.9265C746.235 18.3571 745.666 23.3177 746.638 28.0927L780.186 192.812C781.408 198.816 784.976 204.083 790.097 207.447L882.058 267.844Z" stroke="url(#paint8_linear_13_776)" stroke-opacity="0.5" stroke-width="4"/>
<path opacity="0.130435" d="M862.684 267.888C870.772 273.806 881.761 273.806 889.849 267.888L977.891 203.463C982.843 199.839 986.142 194.387 987.054 188.318L1011.76 23.8499C1012.49 19.0149 1011.65 14.0742 1009.38 9.7449L943.24 -116.276C939.267 -123.846 931.423 -128.588 922.874 -128.588H829.659C821.11 -128.588 813.266 -123.846 809.293 -116.276L743.153 9.7449C740.881 14.0742 740.048 19.0149 740.774 23.8499L765.479 188.318C766.391 194.387 769.689 199.839 774.642 203.463L862.684 267.888Z" stroke="url(#paint9_linear_13_776)" stroke-opacity="0.5" stroke-width="4"/>
<path opacity="0.144928" d="M843.556 267.377C851.311 273.678 862.246 274.251 870.617 268.795L961.243 209.735C966.393 206.379 969.985 201.102 971.218 195.08L1004.23 33.9001C1005.21 29.0941 1004.63 24.0992 1002.58 19.6452L943.528 -108.263C939.95 -116.014 932.375 -121.145 923.85 -121.591L831.421 -126.435C822.897 -126.882 814.826 -122.571 810.457 -115.237L738.362 5.79814C735.851 10.0129 734.754 14.92 735.23 19.8026L751.212 183.55C751.809 189.667 754.829 195.291 759.6 199.167L843.556 267.377Z" stroke="url(#paint10_linear_13_776)" stroke-opacity="0.5" stroke-width="4"/>
<path opacity="0.15942" d="M824.703 266.332C832.106 272.995 842.958 274.136 851.585 269.157L944.477 215.552C949.809 212.474 953.685 207.388 955.238 201.431L996.277 43.9535C997.518 39.19 997.198 34.1539 995.365 29.5856L943.422 -99.8176C940.247 -107.727 932.958 -113.233 924.481 -114.124L833.088 -123.73C824.611 -124.621 816.337 -120.751 811.587 -113.674L733.875 2.10191C731.131 6.18912 729.771 11.0487 729.995 15.9662L737.396 178.535C737.676 184.685 740.41 190.466 744.986 194.584L824.703 266.332Z" stroke="url(#paint11_linear_13_776)" stroke-opacity="0.5" stroke-width="4"/>
<path opacity="0.173913" d="M806.15 264.772C813.185 271.778 823.923 273.479 832.78 268.989L927.617 220.911C933.117 218.123 937.267 213.243 939.136 207.366L987.907 53.9864C989.404 49.279 989.345 44.2147 987.74 39.543L942.898 -90.9656C940.133 -99.0138 933.149 -104.877 924.744 -106.209L834.629 -120.482C826.224 -121.813 817.77 -118.394 812.653 -111.594L729.676 -1.33024C726.706 2.61675 725.086 7.4151 725.054 12.3547L724.042 173.299C724.003 179.465 726.442 185.389 730.811 189.74L806.15 264.772Z" stroke="url(#paint12_linear_13_776)" stroke-opacity="0.5" stroke-width="4"/>
<path opacity="0.188406" d="M787.923 262.719C794.575 270.048 805.17 272.3 814.228 268.31L910.689 225.814C916.341 223.324 920.755 218.665 922.935 212.886L979.123 63.9765C980.873 59.3385 981.078 54.2593 979.707 49.4955L941.939 -81.7341C939.589 -89.8993 932.929 -96.1038 924.618 -97.8703L836.016 -116.703C827.705 -118.47 819.097 -115.511 813.629 -109.007L725.75 -4.48456C722.56 -0.690267 720.681 4.03313 720.394 8.9819L711.157 167.871C710.798 174.037 712.935 180.088 717.086 184.662L787.923 262.719Z" stroke="url(#paint13_linear_13_776)" stroke-opacity="0.5" stroke-width="4"/>
<path opacity="0.202899" d="M770.047 260.196C776.3 267.827 786.724 270.62 795.955 267.138L893.718 230.26C899.507 228.076 904.172 223.652 906.66 217.987L969.93 73.901C971.931 69.346 972.4 64.2651 971.268 59.4207L940.527 -72.1513C938.597 -80.4117 932.277 -86.9392 924.083 -89.1347L837.222 -112.409C829.028 -114.605 820.291 -112.112 814.489 -105.923L722.08 -7.34897C718.678 -3.71953 716.544 0.915288 715.999 5.8602L698.75 162.278C698.071 168.428 699.899 174.591 703.821 179.377L770.047 260.196Z" stroke="url(#paint14_linear_13_776)" stroke-opacity="0.5" stroke-width="4"/>
<path opacity="0.217391" d="M752.545 257.228C758.386 265.138 768.61 268.46 777.985 265.494L876.729 234.251C882.638 232.382 887.543 228.207 890.331 222.672L960.336 83.738C962.582 79.279 963.317 74.2101 962.429 69.2968L938.647 -62.2459C937.14 -70.5796 931.176 -77.4113 923.121 -80.0283L838.22 -107.614C830.166 -110.231 821.325 -108.21 815.207 -102.354L718.649 -9.91214C715.042 -6.4593 712.657 -1.92659 711.854 3.00136L686.825 156.549C685.828 162.666 687.341 168.926 691.023 173.912L752.545 257.228Z" stroke="url(#paint15_linear_13_776)" stroke-opacity="0.5" stroke-width="4"/>
<path opacity="0.231884" d="M735.436 253.84C740.853 262.007 750.85 265.845 760.341 263.4L859.747 237.792C865.759 236.244 870.889 232.331 873.972 226.942L950.345 93.4659C952.834 89.1162 953.834 84.0726 953.194 79.1023L936.285 -52.047C935.204 -60.4323 929.609 -67.5485 921.716 -70.5784L838.986 -102.336C831.092 -105.366 822.173 -103.821 815.759 -98.3125L715.437 -12.1637C711.635 -8.89886 709.004 -4.48159 707.943 0.41625L675.386 150.712C674.072 156.779 675.266 163.121 678.697 168.294L735.436 253.84Z" stroke="url(#paint16_linear_13_776)" stroke-opacity="0.5" stroke-width="4"/>
<path opacity="0.246377" d="M718.741 250.058C723.722 258.459 733.467 262.797 743.043 260.878L842.795 240.888C848.893 239.666 854.236 236.026 857.606 230.8L939.97 103.064C942.696 98.8361 943.96 93.8314 943.57 88.8164L933.429 -41.5849C932.775 -49.9997 927.564 -57.3802 919.853 -60.8131L839.495 -96.591C831.784 -100.024 822.813 -98.9579 816.122 -93.8136L712.429 -14.0946C708.441 -11.0287 705.568 -6.73997 704.25 -1.8854L664.436 144.795C662.807 150.797 663.678 157.203 666.85 162.552L718.741 250.058Z" stroke="url(#paint17_linear_13_776)" stroke-opacity="0.5" stroke-width="4"/>
<path opacity="0.26087" d="M702.476 245.91C707.013 254.521 716.479 259.344 726.112 257.953L825.897 243.543C832.063 242.653 837.603 239.299 841.252 234.25L929.217 112.511C932.175 108.418 933.703 103.466 933.566 98.4186L930.069 -30.8897C929.841 -39.3121 925.026 -46.9359 917.519 -50.761L839.724 -90.3994C832.217 -94.2245 823.219 -93.6387 816.271 -88.8724L709.603 -15.6964C705.439 -12.84 702.331 -8.69273 700.758 -3.89457L653.974 138.827C652.034 144.747 652.578 151.2 655.481 156.712L702.476 245.91Z" stroke="url(#paint18_linear_13_776)" stroke-opacity="0.5" stroke-width="4"/>
<path opacity="0.275362" d="M686.658 241.422C690.742 250.22 699.905 255.51 709.565 254.648L809.076 245.766C815.292 245.211 821.016 242.154 824.934 237.297L918.1 121.788C921.282 117.843 923.072 112.956 923.191 107.889L926.196 -19.9921C926.394 -28.4003 921.986 -36.2459 914.703 -40.4511L839.653 -83.7813C832.369 -87.9865 823.371 -87.8808 816.188 -83.5055L706.942 -16.9621C702.613 -14.3252 699.277 -10.3321 697.451 -5.6034L644.001 132.835C641.753 138.657 641.967 145.142 644.595 150.803L686.658 241.422Z" stroke="url(#paint19_linear_13_776)" stroke-opacity="0.5" stroke-width="4"/>
<path opacity="0.289855" d="M671.302 236.625C674.925 245.584 683.762 251.323 693.42 250.988L792.354 247.565C798.602 247.349 804.493 244.599 808.671 239.947L906.629 130.876C910.029 127.09 912.078 122.283 912.454 117.208L921.805 -8.92302C922.426 -17.2953 918.436 -25.3406 911.395 -29.913L839.26 -76.7576C832.219 -81.33 823.247 -81.7029 815.851 -77.7306L704.428 -17.8856C699.944 -15.4777 696.386 -11.651 694.311 -7.0048L634.512 126.847C631.962 132.556 631.845 139.056 634.189 144.852L671.302 236.625Z" stroke="url(#paint20_linear_13_776)" stroke-opacity="0.5" stroke-width="4"/>
<path opacity="0.304348" d="M656.42 231.547C659.576 240.643 668.065 246.81 677.691 247.001L775.754 248.951C782.016 249.075 788.058 246.64 792.484 242.209L894.817 139.757C898.428 136.142 900.732 131.428 901.366 126.358L916.89 2.28643C917.93 -6.02838 914.366 -14.251 907.587 -19.1764L838.528 -69.3508C831.749 -74.2762 822.827 -75.1249 815.241 -71.5661L702.039 -18.4619C697.413 -16.292 693.642 -12.6438 691.32 -8.0929L625.504 120.892C622.658 126.47 622.209 132.969 624.263 138.886L656.42 231.547Z" stroke="url(#paint21_linear_13_776)" stroke-opacity="0.5" stroke-width="4"/>
<path opacity="0.318841" d="M642.022 226.216C644.708 235.425 652.827 242 662.392 242.712L759.296 249.933C765.553 250.399 771.729 248.288 776.392 244.09L882.679 148.413C886.492 144.98 889.048 140.372 889.94 135.321L911.449 13.6053C912.904 5.36919 909.774 -3.00787 903.274 -8.27134L837.439 -61.5837C830.939 -66.8472 822.094 -68.1674 814.34 -65.0314L699.757 -18.6872C695.001 -16.7637 691.025 -13.3056 688.461 -8.86272L616.972 114.994C613.835 120.428 613.055 126.908 614.812 132.932L642.022 226.216Z" stroke="url(#paint22_linear_13_776)" stroke-opacity="0.5" stroke-width="4"/>
<path opacity="0.333333" d="M628.116 220.665C630.328 229.961 638.058 236.921 647.535 238.149L742.999 250.523C749.233 251.331 755.526 249.552 760.415 245.6L870.229 156.827C874.235 153.589 877.038 149.1 878.189 144.079L905.479 25.0027C907.344 16.8661 904.654 8.35785 898.451 2.77225L835.976 -53.4801C829.773 -59.0657 821.03 -60.8518 813.133 -58.1467L697.562 -18.5586C692.689 -16.8893 688.517 -13.6326 685.715 -9.31021L608.907 109.182C605.488 114.457 604.376 120.901 605.832 127.017L628.116 220.665Z" stroke="url(#paint23_linear_13_776)" stroke-opacity="0.5" stroke-width="4"/>
<path opacity="0.347826" d="M614.712 214.921C616.448 224.28 623.771 231.603 633.13 233.339L726.885 250.735C733.077 251.884 739.469 250.444 744.57 246.75L857.483 164.985C861.673 161.951 864.717 157.594 866.125 152.616L898.983 36.4479C901.251 28.4314 899.006 19.8154 893.115 13.9245L834.126 -45.0644C828.235 -50.9553 819.619 -53.2001 811.603 -50.9326L695.434 -18.0741C690.457 -16.6663 686.1 -13.6217 683.066 -9.43219L601.301 103.481C597.607 108.582 596.167 114.974 597.316 121.166L614.712 214.921Z" stroke="url(#paint24_linear_13_776)" stroke-opacity="0.5" stroke-width="4"/>
<path opacity="0.362319" d="M601.812 209.016C603.073 218.414 609.971 226.074 619.185 228.31L710.97 250.583C717.102 252.07 723.576 250.974 728.875 247.55L844.457 172.872C848.82 170.052 852.1 165.839 853.764 160.918L891.963 47.9106C894.625 40.0342 892.83 31.3341 887.266 25.1554L831.876 -36.3614C826.313 -42.54 817.848 -45.2353 809.737 -43.4107L693.355 -17.2333C688.287 -16.0933 683.754 -13.2713 680.495 -9.2267L594.144 97.9154C590.185 102.828 588.417 109.152 589.256 115.406L601.812 209.016Z" stroke="url(#paint25_linear_13_776)" stroke-opacity="0.5" stroke-width="4"/>
<path opacity="0.376812" d="M589.423 202.98C590.208 212.391 596.666 220.365 605.707 223.09L695.273 250.08C701.326 251.904 707.863 251.156 713.347 248.012L831.168 180.473C835.694 177.878 839.204 173.822 841.12 168.97L884.422 59.3604C887.471 51.6437 886.127 42.8833 880.906 36.4353L829.215 -27.3968C823.994 -33.8448 815.704 -36.9808 807.522 -35.6032L691.305 -16.0366C686.161 -15.1704 681.463 -12.5808 677.984 -8.69288L587.425 92.5107C583.209 97.2218 581.119 103.46 581.644 109.76L589.423 202.98Z" stroke="url(#paint26_linear_13_776)" stroke-opacity="0.5" stroke-width="4"/>
<path opacity="0.391304" d="M577.544 196.843C577.856 206.243 583.859 214.505 592.701 217.706L679.809 249.242C685.765 251.399 692.346 251.003 698.001 248.15L817.633 187.777C822.311 185.416 826.043 181.528 828.21 176.758L876.367 70.7681C879.792 63.2302 878.901 54.4332 874.035 47.7349L826.133 -18.1962C821.266 -24.8945 813.175 -28.4602 804.948 -27.5323L689.265 -14.4851C684.057 -13.8978 679.207 -11.55 675.516 -7.83029L581.13 87.2902C576.668 91.7864 574.258 97.9234 574.469 104.254L577.544 196.843Z" stroke="url(#paint27_linear_13_776)" stroke-opacity="0.5" stroke-width="4"/>
<path opacity="0.405797" d="M566.176 190.635C566.018 199.999 571.554 208.523 580.172 212.188L664.595 248.087C670.435 250.57 677.042 250.53 682.852 247.976L803.871 194.772C808.69 192.653 812.636 188.946 815.051 184.269L867.805 82.1045C871.596 74.7638 871.158 65.954 866.658 59.0252L822.621 -8.78598C818.121 -15.7148 810.251 -19.698 802.004 -19.2209L687.214 -12.5815C681.96 -12.2776 676.968 -10.1804 673.073 -6.64008L575.245 82.2763C570.549 86.5448 567.825 92.5642 567.718 98.9097L566.176 190.635Z" stroke="url(#paint28_linear_13_776)" stroke-opacity="0.5" stroke-width="4"/>
<path opacity="0.42029" d="M555.317 184.386C554.695 193.69 559.752 202.449 568.121 206.563L649.644 246.63C655.351 249.435 661.965 249.752 667.914 247.505L789.901 201.447C794.848 199.579 799 196.064 801.658 191.493L858.745 93.3416C862.89 86.2158 862.904 77.4169 858.782 70.278L818.673 0.80779C814.552 -6.33119 806.925 -10.7184 798.681 -10.6921L685.136 -10.3292C679.849 -10.3123 674.728 -8.47397 670.637 -5.12379L569.756 77.4909C564.836 81.5198 561.804 87.4057 561.379 93.7504L555.317 184.386Z" stroke="url(#paint29_linear_13_776)" stroke-opacity="0.5" stroke-width="4"/>
<path opacity="0.434783" d="M544.964 178.124C543.883 187.346 548.452 196.313 556.548 200.858L634.972 244.889C640.527 248.008 647.128 248.683 653.2 246.753L775.742 207.793C780.805 206.184 785.154 202.871 788.051 198.419L849.199 104.452C853.685 97.558 854.148 88.7936 850.414 81.4653L814.286 10.5586C810.552 3.2303 803.189 -1.54638 794.975 -1.9692L683.012 -7.73248C677.707 -8.00557 672.471 -6.43383 668.193 -3.28422L564.646 72.9546C559.515 76.7323 556.181 82.4691 555.439 88.7973L544.964 178.124Z" stroke="url(#paint30_linear_13_776)" stroke-opacity="0.5" stroke-width="4"/>
<path opacity="0.449275" d="M535.112 171.879C533.579 180.995 537.652 190.142 545.452 195.102L620.588 242.883C625.975 246.309 632.544 247.341 638.722 245.733L761.414 213.803C766.579 212.458 771.116 209.36 774.247 205.037L839.177 115.408C843.991 108.763 844.9 100.056 841.563 92.5599L809.453 20.4401C806.115 12.9438 799.037 7.79339 790.877 6.92437L680.823 -4.79683C675.516 -5.36208 670.177 -4.06396 665.722 -1.12494L559.896 68.687C554.567 72.2026 550.939 77.7752 549.88 84.0711L535.112 171.879Z" stroke="url(#paint31_linear_13_776)" stroke-opacity="0.5" stroke-width="4"/>
<path opacity="0.463768" d="M525.755 165.68C523.778 174.666 527.348 183.966 534.83 189.322L606.504 240.629C611.706 244.353 618.224 245.742 624.492 244.463L746.936 219.468C752.191 218.396 756.905 215.521 760.265 211.34L828.695 126.186C833.823 119.804 835.172 111.178 832.239 103.536L804.174 30.426C801.241 22.7834 794.466 17.2762 786.385 15.9652L678.552 -1.52843C673.258 -2.38722 667.831 -1.36916 663.208 1.34972L555.49 64.7066C549.976 67.9499 546.062 73.3434 544.687 79.5914L525.755 165.68Z" stroke="url(#paint32_linear_13_776)" stroke-opacity="0.5" stroke-width="4"/>
<path opacity="0.478261" d="M516.882 159.552C514.472 168.388 517.534 177.812 524.678 183.544L592.731 238.148C597.731 242.16 604.178 243.903 610.518 242.957L732.329 224.784C737.659 223.989 742.541 221.347 746.122 217.32L817.766 136.759C823.193 130.656 824.977 122.134 822.453 114.367L798.449 40.4899C795.925 32.7231 789.473 26.8768 781.495 25.1297L676.182 2.06529C670.917 0.912368 665.415 1.64461 660.636 4.13423L551.407 61.0304C545.721 63.9919 541.53 69.1918 539.843 75.3764L516.882 159.552Z" stroke="url(#paint33_linear_13_776)" stroke-opacity="0.5" stroke-width="4"/>
<path opacity="0.492754" d="M508.487 153.524C505.653 162.189 508.204 171.708 514.99 177.795L579.277 235.458C584.059 239.747 590.417 241.841 596.812 241.233L717.614 229.745C723.005 229.232 728.043 226.833 731.84 222.97L806.407 147.104C812.117 141.295 814.328 132.898 812.22 125.029L792.279 50.606C790.17 42.7373 784.057 36.571 776.207 34.3948L673.696 5.97647C668.477 4.52962 662.915 4.97093 657.989 7.22268L547.627 57.6746C541.785 60.3454 537.326 65.3378 535.329 71.4435L508.487 153.524Z" stroke="url(#paint34_linear_13_776)" stroke-opacity="0.5" stroke-width="4"/>
<path opacity="0.507246" d="M500.556 147.622C497.311 156.094 499.349 165.681 505.759 172.1L566.149 232.579C570.698 237.134 576.947 239.575 583.379 239.308L702.81 234.348C708.249 234.122 713.431 231.974 717.436 228.287L794.636 157.2C800.613 151.696 803.243 143.446 801.554 135.498L785.665 60.7489C783.976 52.8009 778.218 46.3342 770.519 43.7372L671.079 10.1962C665.921 8.45645 660.313 8.60244 655.253 10.6082L544.13 54.6539C538.145 57.0259 533.429 61.7973 531.126 67.8087L500.556 147.622Z" stroke="url(#paint35_linear_13_776)" stroke-opacity="0.5" stroke-width="4"/>
<path opacity="0.521739" d="M493.077 141.87C489.434 150.129 490.959 159.756 496.976 166.485L553.355 229.532C557.656 234.34 563.778 237.122 570.228 237.198L687.94 238.59C693.411 238.655 698.726 236.767 702.93 233.266L782.472 167.024C788.699 161.838 791.738 153.757 790.47 145.752L778.614 70.8932C777.346 62.8886 771.959 56.142 764.433 53.1341L668.315 14.7147C663.234 12.6839 657.596 12.5308 652.413 14.283L540.893 51.9815C534.781 54.0473 529.819 58.5848 527.215 64.487L493.077 141.87Z" stroke="url(#paint36_linear_13_776)" stroke-opacity="0.5" stroke-width="4"/>
<path opacity="0.536232" d="M486.037 136.293C482.009 144.32 483.022 153.958 488.631 160.973L540.9 226.335C544.937 231.384 550.913 234.501 557.364 234.922L673.022 242.471C678.511 242.829 683.946 241.209 688.342 237.903L769.934 176.557C776.394 171.7 779.831 163.808 778.986 155.77L771.129 81.0143C770.284 72.9759 765.281 65.9709 757.952 62.5629L665.389 19.5214C660.402 17.2023 654.748 16.7473 649.454 18.2388L537.894 49.6695C531.671 51.4226 526.473 55.7137 523.574 61.4918L486.037 136.293Z" stroke="url(#paint37_linear_13_776)" stroke-opacity="0.5" stroke-width="4"/>
<path opacity="0.550725" d="M479.42 130.913C475.021 138.691 475.525 148.313 480.713 155.588L528.786 223.01C532.547 228.285 538.359 231.729 544.792 232.496L658.078 245.99C663.569 246.644 669.112 245.298 673.691 242.199L757.042 185.781C763.717 181.262 767.54 173.579 767.118 165.53L763.217 91.0883C762.795 83.0388 758.19 75.7975 751.079 72.0017L662.287 24.6054C657.409 22.0014 651.756 21.2421 646.364 22.4666L535.109 47.7286C528.791 49.1632 523.371 53.196 520.182 58.8355L479.42 130.913Z" stroke="url(#paint38_linear_13_776)" stroke-opacity="0.5" stroke-width="4"/>
<path opacity="0.565217" d="M473.209 125.753C468.456 133.264 468.456 142.842 473.209 150.352L517.018 219.576C520.49 225.063 526.12 228.826 532.517 229.938L643.129 249.149C648.607 250.1 654.244 249.035 658.997 246.151L743.82 194.677C750.691 190.507 754.888 183.052 754.888 175.014V101.092C754.888 93.0538 750.691 85.599 743.82 81.429L658.997 29.9548C654.244 27.0704 648.607 26.0053 643.129 26.9567L532.517 46.1681C526.12 47.2792 520.49 51.0426 517.018 56.5293L473.209 125.753Z" stroke="url(#paint39_linear_13_776)" stroke-opacity="0.5" stroke-width="4"/>
<path opacity="0.57971" d="M467.388 120.834C462.297 128.061 461.798 137.567 466.107 145.287L505.597 216.054C508.768 221.737 514.198 225.81 520.541 227.265L628.194 251.949C633.644 253.199 639.361 252.421 644.279 249.761L730.289 203.23C737.338 199.416 741.894 192.208 742.313 184.204L746.15 111.002C746.569 102.998 742.792 95.353 736.18 90.8234L655.505 35.5569C650.892 32.3972 645.287 31.0257 639.737 31.6988L530.094 44.9956C523.633 45.7791 517.807 49.2625 514.06 54.5824L467.388 120.834Z" stroke="url(#paint40_linear_13_776)" stroke-opacity="0.5" stroke-width="4"/>
<path opacity="0.594203" d="M461.937 116.174C456.525 123.103 455.536 132.511 459.389 140.414L494.524 212.464C497.383 218.326 502.596 222.699 508.866 224.494L613.294 254.395C618.699 255.943 624.484 255.457 629.555 253.03L716.472 211.426C723.68 207.975 728.58 201.031 729.416 193.084L737.013 120.797C737.849 112.85 734.499 105.038 728.166 100.165L651.799 41.3989C647.343 37.97 641.785 36.2921 636.177 36.6821L527.814 44.2178C521.307 44.6703 515.299 47.8637 511.284 53.0035L461.937 116.174Z" stroke="url(#paint41_linear_13_776)" stroke-opacity="0.5" stroke-width="4"/>
<path opacity="0.608696" d="M456.837 111.793C451.122 118.408 449.651 127.693 453.043 135.751L483.798 208.825C486.334 214.85 491.314 219.511 497.493 221.644L598.449 256.491C603.794 258.336 609.632 258.147 614.847 255.96L702.394 219.251C709.741 216.17 714.971 209.507 716.217 201.638L727.491 130.456C728.738 122.587 725.823 114.634 719.788 109.433L647.869 47.467C643.585 43.7758 638.091 41.7922 632.437 41.8952L525.654 43.8393C519.119 43.9583 512.942 46.8527 508.669 51.7992L456.837 111.793Z" stroke="url(#paint42_linear_13_776)" stroke-opacity="0.5" stroke-width="4"/>
<path opacity="0.623188" d="M452.068 107.706C446.067 113.996 444.126 123.131 447.049 131.317L473.417 205.157C475.621 211.327 480.351 216.265 486.421 218.731L583.676 258.242C588.946 260.383 594.823 260.495 600.17 258.556L688.079 226.695C695.545 223.989 701.088 217.622 702.739 209.853L717.596 139.958C719.247 132.19 716.773 124.119 711.053 118.61L643.704 53.7474C639.607 49.8016 634.193 47.5139 628.508 47.3263L523.59 43.864C517.042 43.6479 510.712 46.2346 506.19 50.9752L452.068 107.706Z" stroke="url(#paint43_linear_13_776)" stroke-opacity="0.5" stroke-width="4"/>
<path opacity="0.637681" d="M447.607 103.93C441.341 109.882 438.94 118.843 441.391 127.13L463.379 201.479C465.241 207.777 469.707 212.978 475.65 215.771L568.997 259.654C574.175 262.089 580.075 262.506 585.545 260.823L673.551 233.748C681.117 231.42 686.955 225.364 689.004 217.717L707.34 149.286C709.389 141.639 707.361 133.476 701.973 127.676L639.295 60.2254C635.399 56.0335 630.081 53.4441 624.379 52.9632L521.597 44.2936C515.053 43.7417 508.586 46.0131 503.824 50.5356L447.607 103.93Z" stroke="url(#paint44_linear_13_776)" stroke-opacity="0.5" stroke-width="4"/>
<path opacity="0.652174" d="M443.435 100.479C436.923 106.081 434.075 114.844 436.051 123.204L453.68 197.811C455.194 204.217 459.379 209.667 465.178 212.782L554.428 260.737C559.5 263.462 565.409 264.186 570.989 262.765L658.837 240.401C666.483 238.454 672.598 232.723 675.036 225.219L696.741 158.419C699.179 150.915 697.6 142.685 692.558 136.615L634.634 66.8861C630.955 62.4574 625.749 59.5695 620.044 58.793L519.652 45.129C513.129 44.2413 506.54 46.1904 501.55 50.4831L443.435 100.479Z" stroke="url(#paint45_linear_13_776)" stroke-opacity="0.5" stroke-width="4"/>
<path opacity="0.666667" d="M439.526 97.3651C432.789 102.608 429.509 111.151 431.008 119.555L444.315 194.17C445.473 200.665 449.365 206.35 455.001 209.78L539.988 261.498C544.937 264.509 550.841 265.542 556.518 264.39L643.96 246.647C651.667 245.083 658.041 239.691 660.859 232.349L685.812 167.343C688.63 160.001 687.502 151.729 682.821 145.41L629.712 73.7142C626.264 69.0589 621.185 65.8765 615.492 64.803L517.728 46.3692C511.245 45.1467 504.549 46.7673 499.342 50.8191L439.526 97.3651Z" stroke="url(#paint46_linear_13_776)" stroke-opacity="0.5" stroke-width="4"/>
<path opacity="0.681159" d="M435.859 94.5997C428.917 99.4744 425.221 107.775 426.244 116.196L435.278 190.575C436.075 197.14 439.66 203.044 445.117 206.78L525.695 261.946C530.506 265.24 536.388 266.584 542.152 265.706L628.949 252.482C636.696 251.302 643.309 246.259 646.496 239.1L674.572 176.04C677.759 168.881 677.082 160.592 672.776 154.045L624.524 80.6943C621.32 75.8233 616.385 72.351 610.719 70.9797L515.805 48.012C509.377 46.4566 502.591 47.7433 497.178 51.5437L435.859 94.5997Z" stroke="url(#paint47_linear_13_776)" stroke-opacity="0.5" stroke-width="4"/>
<path opacity="0.695652" d="M432.411 92.1926C425.285 96.6919 421.19 104.729 421.738 113.139L426.562 187.043C426.994 193.658 430.259 199.765 435.52 203.798L511.564 262.094C516.221 265.664 522.067 267.319 527.905 266.72L613.827 257.903C621.595 257.106 628.427 252.422 631.972 245.465L663.037 184.496C666.582 177.539 666.355 169.258 662.434 162.506L619.064 87.8106C616.117 82.7357 611.342 78.979 605.716 77.3097L513.857 50.0541C507.501 48.1684 500.642 49.1166 495.036 52.6556L432.411 92.1926Z" stroke="url(#paint48_linear_13_776)" stroke-opacity="0.5" stroke-width="4"/>
<path opacity="0.710145" d="M429.157 90.1519C421.867 94.2695 417.391 102.023 417.47 110.395L418.16 183.591C418.223 190.236 421.157 196.529 426.206 200.849L497.612 261.951C502.1 265.791 507.895 267.758 513.794 267.442L598.621 262.906C606.39 262.491 613.422 258.176 617.312 251.439L651.226 192.698C655.116 185.961 655.336 177.714 651.812 170.778L613.326 95.0471C610.65 89.7807 606.05 85.7459 600.479 83.7792L511.861 52.4903C505.595 50.2779 498.678 50.8838 492.892 54.152L429.157 90.1519Z" stroke="url(#paint49_linear_13_776)" stroke-opacity="0.5" stroke-width="4"/>
<path opacity="0.724638" d="M426.073 88.4842C418.642 92.215 413.803 99.6666 413.417 107.973L410.063 180.235C409.755 186.889 412.346 193.351 417.167 197.947L483.854 261.53C488.158 265.634 493.885 267.911 499.833 267.883L583.357 267.492C591.107 267.456 598.318 263.519 602.539 257.019L639.156 200.633C643.377 194.133 644.041 185.945 640.922 178.85L607.307 102.388C604.913 96.9429 600.504 92.6372 595.003 90.3741L509.794 55.3143C503.634 52.7796 496.677 53.0403 490.724 56.029L426.073 88.4842Z" stroke="url(#paint50_linear_13_776)" stroke-opacity="0.5" stroke-width="4"/>
<path opacity="0.73913" d="M423.135 87.1949C415.584 90.535 410.402 97.6672 409.559 105.882L402.262 176.991C401.58 183.634 403.82 190.245 408.398 195.107L470.303 260.844C474.409 265.204 480.054 267.79 486.037 268.054L568.06 271.662C575.772 272.001 583.141 268.449 587.678 262.203L626.848 208.291C631.386 202.045 632.487 193.94 629.781 186.71L601.003 109.816C598.904 104.207 594.7 99.6382 589.285 97.0806L507.635 58.5187C501.597 55.6669 494.617 55.5803 488.51 58.2814L423.135 87.1949Z" stroke="url(#paint51_linear_13_776)" stroke-opacity="0.5" stroke-width="4"/>
<path opacity="0.753623" d="M420.319 86.2876C412.668 89.2343 407.164 96.0309 405.873 104.127L394.746 173.874C393.691 180.485 395.569 187.227 399.89 192.341L456.975 259.907C460.867 264.514 466.414 267.408 472.419 267.965L552.755 275.418C560.41 276.128 567.915 272.966 572.754 266.991L614.32 215.66C619.159 209.685 620.692 201.687 618.405 194.346L594.412 117.316C592.619 111.558 588.635 106.734 583.319 103.885L505.361 62.0946C499.461 58.9318 492.475 58.4966 486.228 60.9027L420.319 86.2876Z" stroke="url(#paint52_linear_13_776)" stroke-opacity="0.5" stroke-width="4"/>
<path opacity="0.768116" d="M417.6 85.7643C409.872 88.3162 404.068 94.7623 402.338 102.715L387.504 170.897C386.078 177.455 387.587 184.309 391.635 189.661L443.881 258.733C447.546 263.578 452.979 266.777 458.994 267.63L537.466 278.765C545.047 279.84 552.666 277.073 557.79 271.383L601.593 222.734C606.717 217.044 608.673 209.177 606.81 201.75L587.534 124.871C586.057 118.979 582.308 113.91 577.106 110.772L502.952 66.0319C497.205 62.5649 490.231 61.7808 483.858 63.8852L417.6 85.7643Z" stroke="url(#paint53_linear_13_776)" stroke-opacity="0.5" stroke-width="4"/>
<path opacity="0.782609" d="M414.955 85.6258C407.171 87.7827 401.088 93.8649 398.931 101.649L380.526 168.074C378.729 174.558 379.862 181.504 383.625 187.081L431.034 257.338C434.457 262.411 439.761 265.911 445.772 267.062L522.22 281.708C529.707 283.142 537.42 280.773 542.811 275.382L588.688 229.505C594.079 224.114 596.448 216.402 595.013 208.914L580.368 132.466C579.216 126.455 575.717 121.152 570.644 117.728L500.387 70.3196C494.81 66.5561 487.864 65.4234 481.38 67.2201L414.955 85.6258Z" stroke="url(#paint54_linear_13_776)" stroke-opacity="0.5" stroke-width="4"/>
<path opacity="0.797101" d="M412.359 85.8714C404.54 87.6342 398.203 93.3403 395.632 100.932L373.798 165.418C371.634 171.808 372.385 178.824 375.851 184.611L418.444 255.737C421.612 261.027 426.772 264.823 432.765 266.274L507.038 284.254C514.415 286.039 522.198 284.071 527.839 278.992L575.623 235.967C581.264 230.888 584.036 223.353 583.031 215.829L572.914 140.084C572.097 133.972 568.861 128.444 563.931 124.74L497.647 74.9452C492.254 70.8936 485.354 69.4138 478.774 70.8974L412.359 85.8714Z" stroke="url(#paint55_linear_13_776)" stroke-opacity="0.5" stroke-width="4"/>
<path opacity="0.811594" d="M409.788 86.4988C401.955 87.8697 395.387 93.189 392.417 100.565L367.307 162.941C364.782 169.214 365.145 176.281 368.301 182.262L406.121 253.945C409.021 259.441 414.021 263.53 419.984 265.281L491.944 286.411C499.194 288.54 507.027 286.972 512.898 282.217L562.421 242.115C568.293 237.36 571.455 230.024 570.88 222.49L565.173 147.709C564.7 141.513 561.74 135.772 556.967 131.793L494.714 79.8954C489.519 75.565 482.682 73.7402 476.021 74.9061L409.788 86.4988Z" stroke="url(#paint56_linear_13_776)" stroke-opacity="0.5" stroke-width="4"/>
<path opacity="0.826087" d="M407.219 87.5043C399.394 88.4866 392.618 93.4099 389.265 100.549L361.041 160.652C358.159 166.789 358.132 173.885 360.966 180.044L394.075 251.981C396.694 257.671 401.519 262.046 407.437 264.097L476.961 288.19C484.067 290.652 491.927 289.485 498.011 285.065L549.101 247.946C555.185 243.526 558.723 236.411 558.577 228.892L557.148 155.326C557.026 149.064 554.356 143.122 549.754 138.874L491.569 85.1558C486.587 80.5565 479.83 78.3897 473.103 79.2341L407.219 87.5043Z" stroke="url(#paint57_linear_13_776)" stroke-opacity="0.5" stroke-width="4"/>
<path opacity="0.84058" d="M404.631 88.8829C396.833 89.481 389.873 94.0006 386.155 100.881L354.985 158.562C351.754 164.542 351.333 171.646 353.836 177.966L382.313 249.861C384.638 255.731 389.275 260.387 395.135 262.738L462.11 289.601C469.056 292.386 476.923 291.619 483.199 287.543L535.684 253.459C541.96 249.383 545.861 242.509 546.141 235.031L548.842 162.919C549.078 156.609 546.71 150.48 542.293 145.968L488.197 90.7112C483.441 85.8536 476.781 83.3485 470.003 83.8684L404.631 88.8829Z" stroke="url(#paint58_linear_13_776)" stroke-opacity="0.5" stroke-width="4"/>
<path opacity="0.855072" d="M401.999 90.6282C394.249 90.8478 387.131 94.9574 383.066 101.56L349.126 156.679C345.552 162.483 344.737 169.572 346.899 176.036L370.843 247.601C372.862 253.639 377.295 258.569 383.084 261.218L447.413 290.656C454.184 293.754 462.035 293.383 468.483 289.66L522.19 258.652C528.639 254.929 532.886 248.315 533.588 240.903L540.259 170.473C540.859 164.135 538.806 157.832 534.587 153.063L484.581 96.5451C480.065 91.4406 473.517 88.6021 466.704 88.7951L401.999 90.6282Z" stroke="url(#paint59_linear_13_776)" stroke-opacity="0.5" stroke-width="4"/>
<path opacity="0.869565" d="M399.303 92.7325C391.62 92.5801 384.368 96.275 379.976 102.58L343.448 155.012C339.541 160.619 338.331 167.673 340.144 174.261L359.669 245.221C361.372 251.411 365.586 256.608 371.29 259.554L432.888 291.368C439.469 294.767 447.285 294.789 453.884 291.426L508.64 263.527C515.24 260.164 519.816 253.829 520.935 246.506L531.403 177.973C532.373 171.626 530.645 165.163 526.638 160.146L480.707 102.641C476.442 97.3012 470.024 94.1346 463.192 93.9992L399.303 92.7325Z" stroke="url(#paint60_linear_13_776)" stroke-opacity="0.5" stroke-width="4"/>
<path opacity="0.884058" d="M396.522 95.187C388.925 94.6705 381.564 97.9475 376.865 103.939L337.936 153.568C333.707 158.959 332.102 165.954 333.558 172.65L348.798 242.738C350.174 249.066 354.154 254.521 359.761 257.763L418.555 291.753C424.933 295.441 432.692 295.849 439.422 292.853L495.054 268.084C501.784 265.088 506.671 259.048 508.199 251.841L522.28 185.405C523.623 179.069 522.232 172.461 518.45 167.203L476.562 108.98C472.56 103.418 466.288 99.9301 459.452 99.4654L396.522 95.187Z" stroke="url(#paint61_linear_13_776)" stroke-opacity="0.5" stroke-width="4"/>
<path opacity="0.898551" d="M393.635 97.9815C386.142 97.1096 378.698 99.967 373.714 105.628L332.576 152.352C328.036 157.508 326.039 164.424 327.131 171.206L338.232 240.169C339.271 246.621 343.004 252.325 348.5 255.86L404.432 291.826C410.594 295.788 418.275 296.578 425.115 293.953L481.45 272.327C488.29 269.702 493.469 263.975 495.397 256.908L512.897 192.754C514.616 186.45 513.573 179.712 510.028 174.223L472.133 115.545C468.406 109.774 462.294 105.971 455.471 105.177L393.635 97.9815Z" stroke="url(#paint62_linear_13_776)" stroke-opacity="0.5" stroke-width="4"/>
<path opacity="0.913043" d="M390.623 101.105C383.253 99.8871 375.751 102.325 370.504 107.642L327.352 151.37C322.514 156.273 320.128 163.086 320.85 169.937L327.977 237.535C328.668 244.092 332.14 250.037 337.512 253.861L390.536 291.602C396.47 295.826 404.053 296.989 410.981 294.739L467.849 276.261C474.777 274.01 480.228 268.611 482.546 261.706L503.259 200.007C505.358 193.756 504.672 186.905 501.377 181.193L467.41 122.317C463.967 116.35 458.032 112.241 451.236 111.118L390.623 101.105Z" stroke="url(#paint63_linear_13_776)" stroke-opacity="0.5" stroke-width="4"/>
<path opacity="0.927536" d="M387.468 104.544C380.237 102.992 372.701 105.011 367.215 109.971L322.249 150.626C317.126 155.258 314.356 161.947 314.704 168.845L318.032 234.851C318.367 241.499 321.565 247.675 326.8 251.784L376.881 291.1C382.576 295.571 390.043 297.099 397.036 295.225L454.269 279.89C461.263 278.016 466.965 272.959 469.662 266.24L493.376 207.151C495.854 200.974 495.536 194.026 492.503 188.102L462.382 129.275C459.234 123.127 453.49 118.72 446.738 117.27L387.468 104.544Z" stroke="url(#paint64_linear_13_776)" stroke-opacity="0.5" stroke-width="4"/>
<path opacity="0.942029" d="M384.153 108.287C377.077 106.411 369.532 108.015 363.831 112.606L317.251 150.123C311.858 154.467 308.709 161.01 308.679 167.935L308.398 232.138C308.369 238.858 311.279 245.254 316.365 249.646L363.483 290.338C368.929 295.04 376.261 296.924 383.298 295.428L440.729 283.221C447.766 281.725 453.698 277.022 456.76 270.511L483.254 214.173C486.113 208.092 486.171 201.065 483.411 194.938L457.041 136.4C454.196 130.086 448.659 125.39 441.965 123.615L384.153 108.287Z" stroke="url(#paint65_linear_13_776)" stroke-opacity="0.5" stroke-width="4"/>
<path opacity="0.956522" d="M380.659 112.318C373.755 110.131 366.224 111.324 360.334 115.538L312.343 149.864C306.695 153.903 303.175 160.278 302.764 167.21L299.076 229.413C298.674 236.187 301.284 242.793 306.208 247.462L350.355 289.333C355.541 294.253 362.72 296.481 369.78 295.362L427.244 286.261C434.304 285.143 440.443 280.805 443.856 274.524L472.903 221.06C476.142 215.098 476.584 208.009 474.108 201.691L451.379 143.671C448.846 137.206 443.528 132.231 436.909 130.135L380.659 112.318Z" stroke="url(#paint66_linear_13_776)" stroke-opacity="0.5" stroke-width="4"/>
<path opacity="0.971014" d="M376.973 116.623C370.254 114.139 362.762 114.926 356.707 118.753L307.508 149.849C301.623 153.568 297.739 159.754 296.946 166.671L290.064 226.695C289.283 233.504 291.58 240.308 296.329 245.25L337.507 288.107C342.427 293.227 349.435 295.788 356.496 295.046L413.832 289.019C420.894 288.277 427.216 284.315 430.964 278.284L462.332 227.803C465.95 221.981 466.782 214.849 464.602 208.35L445.39 151.068C443.176 144.468 438.091 139.225 431.561 136.81L376.973 116.623Z" stroke="url(#paint67_linear_13_776)" stroke-opacity="0.5" stroke-width="4"/>
<path opacity="0.985507" d="M373.08 121.185C366.561 118.417 359.131 118.807 352.937 122.241L302.733 150.078C296.628 153.463 292.391 159.438 291.215 166.319L281.36 224.001C280.193 230.827 282.165 237.816 286.728 243.026L324.952 286.679C329.597 291.983 336.419 294.864 343.46 294.495L400.511 291.505C407.552 291.136 414.034 287.558 418.099 281.797L451.552 234.388C455.545 228.73 456.775 221.573 454.902 214.906L439.071 158.57C437.182 151.85 432.344 146.351 425.918 143.622L373.08 121.185Z" stroke="url(#paint68_linear_13_776)" stroke-opacity="0.5" stroke-width="4"/>
<path d="M368.966 125.988C362.66 122.951 355.314 122.951 349.008 125.988L298.002 150.552C291.695 153.589 287.115 159.332 285.558 166.156L272.96 221.349C271.403 228.173 273.037 235.335 277.401 240.807L312.699 285.069C317.063 290.541 323.681 293.728 330.681 293.728H387.293C394.293 293.728 400.911 290.541 405.275 285.069L440.573 240.807C444.937 235.335 446.571 228.173 445.014 221.349L432.416 166.156C430.859 159.332 426.279 153.589 419.972 150.552L368.966 125.988Z" stroke="url(#paint69_linear_13_776)" stroke-opacity="0.5" stroke-width="4"/>
<path d="M525.358 108H523.511L528.852 93.4545H530.67L536.011 108H534.165L529.818 95.7557H529.705L525.358 108ZM526.04 102.318H533.483V103.881H526.04V102.318ZM538.277 108V93.4545H539.953V98.8239H540.095C540.218 98.6345 540.389 98.393 540.607 98.0994C540.829 97.8011 541.146 97.536 541.558 97.304C541.975 97.0672 542.538 96.9489 543.249 96.9489C544.167 96.9489 544.977 97.1785 545.678 97.6378C546.378 98.0971 546.925 98.7481 547.318 99.5909C547.711 100.434 547.908 101.428 547.908 102.574C547.908 103.729 547.711 104.731 547.318 105.578C546.925 106.421 546.381 107.074 545.685 107.538C544.989 107.998 544.186 108.227 543.277 108.227C542.576 108.227 542.015 108.111 541.594 107.879C541.172 107.643 540.848 107.375 540.621 107.077C540.393 106.774 540.218 106.523 540.095 106.324H539.896V108H538.277ZM539.925 102.545C539.925 103.369 540.045 104.096 540.287 104.726C540.528 105.351 540.881 105.841 541.345 106.196C541.809 106.546 542.377 106.722 543.05 106.722C543.75 106.722 544.335 106.537 544.804 106.168C545.277 105.794 545.633 105.292 545.869 104.662C546.111 104.027 546.232 103.322 546.232 102.545C546.232 101.778 546.113 101.087 545.876 100.472C545.644 99.8513 545.292 99.3613 544.818 99.0014C544.349 98.6368 543.76 98.4545 543.05 98.4545C542.368 98.4545 541.795 98.6274 541.331 98.973C540.867 99.3139 540.517 99.7921 540.28 100.408C540.043 101.018 539.925 101.731 539.925 102.545ZM554.903 108.227C553.919 108.227 553.054 107.993 552.311 107.524C551.572 107.055 550.995 106.4 550.578 105.557C550.166 104.714 549.96 103.729 549.96 102.602C549.96 101.466 550.166 100.474 550.578 99.6264C550.995 98.7789 551.572 98.1207 552.311 97.652C553.054 97.1832 553.919 96.9489 554.903 96.9489C555.888 96.9489 556.75 97.1832 557.489 97.652C558.232 98.1207 558.81 98.7789 559.222 99.6264C559.638 100.474 559.847 101.466 559.847 102.602C559.847 103.729 559.638 104.714 559.222 105.557C558.81 106.4 558.232 107.055 557.489 107.524C556.75 107.993 555.888 108.227 554.903 108.227ZM554.903 106.722C555.652 106.722 556.267 106.53 556.75 106.146C557.233 105.763 557.59 105.259 557.822 104.634C558.054 104.009 558.17 103.331 558.17 102.602C558.17 101.873 558.054 101.194 557.822 100.564C557.59 99.9342 557.233 99.4252 556.75 99.0369C556.267 98.6487 555.652 98.4545 554.903 98.4545C554.155 98.4545 553.54 98.6487 553.057 99.0369C552.574 99.4252 552.216 99.9342 551.984 100.564C551.752 101.194 551.636 101.873 551.636 102.602C551.636 103.331 551.752 104.009 551.984 104.634C552.216 105.259 552.574 105.763 553.057 106.146C553.54 106.53 554.155 106.722 554.903 106.722ZM569.28 103.54V97.0909H570.956V108H569.28V106.153H569.167C568.911 106.707 568.513 107.179 567.973 107.567C567.434 107.95 566.752 108.142 565.928 108.142C565.246 108.142 564.64 107.993 564.11 107.695C563.579 107.392 563.163 106.937 562.86 106.331C562.557 105.72 562.405 104.951 562.405 104.023V97.0909H564.081V103.909C564.081 104.705 564.304 105.339 564.749 105.812C565.199 106.286 565.772 106.523 566.468 106.523C566.884 106.523 567.308 106.416 567.739 106.203C568.175 105.99 568.539 105.663 568.833 105.223C569.131 104.783 569.28 104.222 569.28 103.54ZM578.771 97.0909V98.5114H573.117V97.0909H578.771ZM574.765 94.4773H576.441V104.875C576.441 105.348 576.51 105.704 576.647 105.94C576.789 106.172 576.969 106.329 577.187 106.409C577.409 106.485 577.644 106.523 577.89 106.523C578.075 106.523 578.226 106.513 578.344 106.494C578.463 106.471 578.558 106.452 578.629 106.438L578.969 107.943C578.856 107.986 578.697 108.028 578.494 108.071C578.29 108.118 578.032 108.142 577.719 108.142C577.246 108.142 576.782 108.04 576.327 107.837C575.878 107.633 575.504 107.323 575.205 106.906C574.912 106.49 574.765 105.964 574.765 105.33V94.4773ZM596.69 93.4545H598.451V103.085C598.451 104.08 598.217 104.967 597.748 105.749C597.284 106.525 596.628 107.138 595.781 107.588C594.933 108.033 593.939 108.256 592.798 108.256C591.656 108.256 590.662 108.033 589.815 107.588C588.967 107.138 588.309 106.525 587.84 105.749C587.376 104.967 587.144 104.08 587.144 103.085V93.4545H588.906V102.943C588.906 103.653 589.062 104.286 589.374 104.839C589.687 105.389 590.132 105.822 590.71 106.139C591.292 106.452 591.988 106.608 592.798 106.608C593.607 106.608 594.303 106.452 594.886 106.139C595.468 105.822 595.913 105.389 596.221 104.839C596.533 104.286 596.69 103.653 596.69 102.943V93.4545ZM609.468 99.5341L607.963 99.9602C607.868 99.7093 607.728 99.4654 607.544 99.2287C607.364 98.9872 607.118 98.7884 606.805 98.6321C606.493 98.4759 606.092 98.3977 605.605 98.3977C604.937 98.3977 604.381 98.5516 603.936 98.8594C603.495 99.1624 603.275 99.5483 603.275 100.017C603.275 100.434 603.427 100.763 603.73 101.004C604.033 101.246 604.506 101.447 605.15 101.608L606.77 102.006C607.745 102.242 608.472 102.605 608.95 103.092C609.428 103.575 609.667 104.198 609.667 104.96C609.667 105.585 609.487 106.144 609.127 106.636C608.772 107.129 608.275 107.517 607.636 107.801C606.997 108.085 606.253 108.227 605.406 108.227C604.293 108.227 603.372 107.986 602.643 107.503C601.914 107.02 601.452 106.314 601.258 105.386L602.849 104.989C603.001 105.576 603.287 106.016 603.708 106.31C604.135 106.603 604.691 106.75 605.377 106.75C606.159 106.75 606.779 106.584 607.238 106.253C607.702 105.917 607.934 105.514 607.934 105.045C607.934 104.667 607.802 104.349 607.537 104.094C607.271 103.833 606.864 103.639 606.315 103.511L604.497 103.085C603.498 102.848 602.764 102.482 602.295 101.984C601.831 101.482 601.599 100.855 601.599 100.102C601.599 99.4867 601.772 98.9422 602.118 98.4688C602.468 97.9953 602.944 97.6236 603.545 97.3537C604.151 97.0838 604.838 96.9489 605.605 96.9489C606.684 96.9489 607.532 97.1856 608.147 97.6591C608.768 98.1326 609.208 98.7576 609.468 99.5341Z" fill="white"/>
<path d="M199.892 179L189.903 144.091H197.966L203.744 168.347H204.034L210.409 144.091H217.312L223.67 168.398H223.977L229.756 144.091H237.818L227.83 179H220.636L213.989 156.176H213.716L207.085 179H199.892ZM250.751 179.511C248.058 179.511 245.74 178.966 243.797 177.875C241.865 176.773 240.376 175.216 239.331 173.205C238.286 171.182 237.763 168.79 237.763 166.028C237.763 163.335 238.286 160.972 239.331 158.938C240.376 156.903 241.848 155.318 243.746 154.182C245.655 153.045 247.893 152.477 250.462 152.477C252.189 152.477 253.797 152.756 255.286 153.312C256.786 153.858 258.092 154.682 259.206 155.784C260.331 156.886 261.206 158.273 261.831 159.943C262.456 161.602 262.768 163.545 262.768 165.773V167.767H240.661V163.267H255.933C255.933 162.222 255.706 161.295 255.251 160.489C254.797 159.682 254.166 159.051 253.359 158.597C252.564 158.131 251.638 157.898 250.581 157.898C249.479 157.898 248.501 158.153 247.649 158.665C246.808 159.165 246.149 159.841 245.672 160.693C245.195 161.534 244.95 162.472 244.939 163.506V167.784C244.939 169.08 245.178 170.199 245.655 171.142C246.143 172.085 246.831 172.812 247.717 173.324C248.604 173.835 249.655 174.091 250.871 174.091C251.678 174.091 252.416 173.977 253.087 173.75C253.757 173.523 254.331 173.182 254.808 172.727C255.286 172.273 255.649 171.716 255.899 171.057L262.615 171.5C262.274 173.114 261.575 174.523 260.518 175.727C259.473 176.92 258.121 177.852 256.462 178.523C254.814 179.182 252.911 179.511 250.751 179.511ZM278.753 179V144.091H292.73C295.298 144.091 297.44 144.472 299.156 145.233C300.872 145.994 302.162 147.051 303.026 148.403C303.889 149.744 304.321 151.29 304.321 153.04C304.321 154.403 304.048 155.602 303.503 156.636C302.957 157.659 302.207 158.5 301.253 159.159C300.31 159.807 299.23 160.267 298.014 160.54V160.881C299.344 160.937 300.588 161.312 301.747 162.006C302.918 162.699 303.866 163.67 304.594 164.92C305.321 166.159 305.685 167.636 305.685 169.352C305.685 171.205 305.224 172.858 304.304 174.312C303.395 175.756 302.048 176.898 300.264 177.739C298.48 178.58 296.281 179 293.668 179H278.753ZM286.134 172.966H292.151C294.207 172.966 295.707 172.574 296.651 171.79C297.594 170.994 298.065 169.937 298.065 168.619C298.065 167.653 297.832 166.801 297.366 166.062C296.901 165.324 296.236 164.744 295.372 164.324C294.52 163.903 293.503 163.693 292.321 163.693H286.134V172.966ZM286.134 158.699H291.605C292.616 158.699 293.514 158.523 294.298 158.17C295.094 157.807 295.719 157.295 296.173 156.636C296.639 155.977 296.872 155.188 296.872 154.267C296.872 153.006 296.423 151.989 295.526 151.216C294.639 150.443 293.378 150.057 291.741 150.057H286.134V158.699ZM327.141 167.852V152.818H334.402V179H327.43V174.244H327.158C326.567 175.778 325.584 177.011 324.209 177.943C322.845 178.875 321.18 179.341 319.214 179.341C317.464 179.341 315.925 178.943 314.595 178.148C313.266 177.352 312.226 176.222 311.476 174.756C310.737 173.29 310.362 171.534 310.351 169.489V152.818H317.612V168.193C317.624 169.739 318.038 170.96 318.857 171.858C319.675 172.756 320.771 173.205 322.146 173.205C323.021 173.205 323.839 173.006 324.601 172.608C325.362 172.199 325.976 171.597 326.442 170.801C326.919 170.006 327.152 169.023 327.141 167.852ZM340.21 179V152.818H347.472V179H340.21ZM343.858 149.443C342.778 149.443 341.852 149.085 341.08 148.369C340.318 147.642 339.938 146.773 339.938 145.761C339.938 144.761 340.318 143.903 341.08 143.188C341.852 142.46 342.778 142.097 343.858 142.097C344.938 142.097 345.858 142.46 346.619 143.188C347.392 143.903 347.778 144.761 347.778 145.761C347.778 146.773 347.392 147.642 346.619 148.369C345.858 149.085 344.938 149.443 343.858 149.443ZM360.55 144.091V179H353.288V144.091H360.55ZM376.014 179.426C374.026 179.426 372.224 178.915 370.611 177.892C369.009 176.858 367.736 175.341 366.793 173.341C365.861 171.33 365.395 168.864 365.395 165.943C365.395 162.943 365.878 160.449 366.844 158.46C367.81 156.46 369.094 154.966 370.696 153.977C372.31 152.977 374.077 152.477 375.997 152.477C377.463 152.477 378.685 152.727 379.662 153.227C380.651 153.716 381.446 154.33 382.048 155.068C382.662 155.795 383.128 156.511 383.446 157.216H383.668V144.091H390.912V179H383.753V174.807H383.446C383.105 175.534 382.622 176.256 381.997 176.972C381.384 177.676 380.582 178.261 379.594 178.727C378.616 179.193 377.423 179.426 376.014 179.426ZM378.315 173.648C379.486 173.648 380.474 173.33 381.281 172.693C382.099 172.045 382.724 171.142 383.156 169.983C383.599 168.824 383.821 167.466 383.821 165.909C383.821 164.352 383.605 163 383.173 161.852C382.741 160.705 382.116 159.818 381.298 159.193C380.48 158.568 379.486 158.256 378.315 158.256C377.122 158.256 376.116 158.58 375.298 159.227C374.48 159.875 373.861 160.773 373.44 161.92C373.02 163.068 372.81 164.398 372.81 165.909C372.81 167.432 373.02 168.778 373.44 169.949C373.872 171.108 374.491 172.017 375.298 172.676C376.116 173.324 377.122 173.648 378.315 173.648ZM414.145 179H406.236L418.287 144.091H427.798L439.832 179H431.923L423.179 152.068H422.906L414.145 179ZM413.651 165.278H432.332V171.04H413.651V165.278ZM451.159 163.864V179H443.898V152.818H450.818V157.438H451.125C451.705 155.915 452.676 154.71 454.04 153.824C455.403 152.926 457.057 152.477 459 152.477C460.818 152.477 462.403 152.875 463.756 153.67C465.108 154.466 466.159 155.602 466.909 157.08C467.659 158.545 468.034 160.295 468.034 162.33V179H460.773V163.625C460.784 162.023 460.375 160.773 459.545 159.875C458.716 158.966 457.574 158.511 456.119 158.511C455.142 158.511 454.278 158.722 453.528 159.142C452.79 159.562 452.21 160.176 451.79 160.983C451.381 161.778 451.17 162.739 451.159 163.864ZM491.02 179H483.111L495.162 144.091H504.673L516.707 179H508.798L500.054 152.068H499.781L491.02 179ZM490.526 165.278H509.207V171.04H490.526V165.278ZM522.656 179L515.531 152.818H522.878L526.935 170.409H527.173L531.401 152.818H538.611L542.906 170.307H543.128L547.116 152.818H554.446L547.338 179H539.651L535.151 162.534H534.827L530.327 179H522.656ZM569.595 179.511C566.902 179.511 564.584 178.966 562.641 177.875C560.709 176.773 559.22 175.216 558.175 173.205C557.129 171.182 556.607 168.79 556.607 166.028C556.607 163.335 557.129 160.972 558.175 158.938C559.22 156.903 560.692 155.318 562.589 154.182C564.499 153.045 566.737 152.477 569.305 152.477C571.033 152.477 572.641 152.756 574.129 153.312C575.629 153.858 576.936 154.682 578.05 155.784C579.175 156.886 580.05 158.273 580.675 159.943C581.3 161.602 581.612 163.545 581.612 165.773V167.767H559.504V163.267H574.777C574.777 162.222 574.55 161.295 574.095 160.489C573.641 159.682 573.01 159.051 572.203 158.597C571.408 158.131 570.482 157.898 569.425 157.898C568.322 157.898 567.345 158.153 566.493 158.665C565.652 159.165 564.993 159.841 564.516 160.693C564.038 161.534 563.794 162.472 563.783 163.506V167.784C563.783 169.08 564.021 170.199 564.499 171.142C564.987 172.085 565.675 172.812 566.561 173.324C567.447 173.835 568.499 174.091 569.714 174.091C570.521 174.091 571.26 173.977 571.93 173.75C572.601 173.523 573.175 173.182 573.652 172.727C574.129 172.273 574.493 171.716 574.743 171.057L581.459 171.5C581.118 173.114 580.419 174.523 579.362 175.727C578.317 176.92 576.964 177.852 575.305 178.523C573.658 179.182 571.754 179.511 569.595 179.511ZM608.135 160.284L601.487 160.693C601.374 160.125 601.129 159.614 600.754 159.159C600.379 158.693 599.885 158.324 599.271 158.051C598.669 157.767 597.947 157.625 597.107 157.625C595.982 157.625 595.033 157.864 594.26 158.341C593.487 158.807 593.101 159.432 593.101 160.216C593.101 160.841 593.351 161.369 593.851 161.801C594.351 162.233 595.209 162.58 596.425 162.841L601.163 163.795C603.709 164.318 605.607 165.159 606.857 166.318C608.107 167.477 608.732 169 608.732 170.886C608.732 172.602 608.226 174.108 607.214 175.403C606.214 176.699 604.839 177.71 603.089 178.438C601.351 179.153 599.345 179.511 597.072 179.511C593.607 179.511 590.845 178.79 588.788 177.347C586.743 175.892 585.544 173.915 585.192 171.415L592.334 171.04C592.55 172.097 593.072 172.903 593.902 173.46C594.732 174.006 595.794 174.278 597.089 174.278C598.362 174.278 599.385 174.034 600.158 173.545C600.942 173.045 601.339 172.403 601.351 171.619C601.339 170.96 601.061 170.42 600.516 170C599.97 169.568 599.129 169.239 597.993 169.011L593.459 168.108C590.902 167.597 588.999 166.71 587.749 165.449C586.51 164.187 585.891 162.58 585.891 160.625C585.891 158.943 586.345 157.494 587.254 156.278C588.175 155.062 589.464 154.125 591.124 153.466C592.794 152.807 594.749 152.477 596.987 152.477C600.294 152.477 602.896 153.176 604.794 154.574C606.703 155.972 607.817 157.875 608.135 160.284ZM625.134 179.511C622.486 179.511 620.196 178.949 618.264 177.824C616.344 176.687 614.861 175.108 613.815 173.085C612.77 171.051 612.247 168.693 612.247 166.011C612.247 163.307 612.77 160.943 613.815 158.92C614.861 156.886 616.344 155.307 618.264 154.182C620.196 153.045 622.486 152.477 625.134 152.477C627.781 152.477 630.065 153.045 631.986 154.182C633.918 155.307 635.406 156.886 636.452 158.92C637.497 160.943 638.02 163.307 638.02 166.011C638.02 168.693 637.497 171.051 636.452 173.085C635.406 175.108 633.918 176.687 631.986 177.824C630.065 178.949 627.781 179.511 625.134 179.511ZM625.168 173.886C626.372 173.886 627.378 173.545 628.185 172.864C628.991 172.17 629.599 171.227 630.009 170.034C630.429 168.841 630.639 167.483 630.639 165.96C630.639 164.438 630.429 163.08 630.009 161.886C629.599 160.693 628.991 159.75 628.185 159.057C627.378 158.364 626.372 158.017 625.168 158.017C623.952 158.017 622.929 158.364 622.099 159.057C621.281 159.75 620.662 160.693 620.241 161.886C619.832 163.08 619.628 164.438 619.628 165.96C619.628 167.483 619.832 168.841 620.241 170.034C620.662 171.227 621.281 172.17 622.099 172.864C622.929 173.545 623.952 173.886 625.168 173.886ZM642.741 179V152.818H649.662V157.438H649.969C650.514 155.903 651.423 154.693 652.696 153.807C653.969 152.92 655.491 152.477 657.264 152.477C659.06 152.477 660.588 152.926 661.849 153.824C663.111 154.71 663.952 155.915 664.372 157.438H664.645C665.179 155.938 666.145 154.739 667.543 153.841C668.952 152.932 670.616 152.477 672.537 152.477C674.98 152.477 676.963 153.256 678.486 154.812C680.02 156.358 680.787 158.551 680.787 161.392V179H673.543V162.824C673.543 161.369 673.156 160.278 672.384 159.551C671.611 158.824 670.645 158.46 669.486 158.46C668.168 158.46 667.139 158.881 666.401 159.722C665.662 160.551 665.293 161.648 665.293 163.011V179H658.253V162.67C658.253 161.386 657.884 160.364 657.145 159.602C656.418 158.841 655.457 158.46 654.264 158.46C653.457 158.46 652.73 158.665 652.082 159.074C651.446 159.472 650.94 160.034 650.565 160.761C650.19 161.477 650.003 162.318 650.003 163.284V179H642.741ZM698.455 179.511C695.761 179.511 693.443 178.966 691.5 177.875C689.568 176.773 688.08 175.216 687.034 173.205C685.989 171.182 685.466 168.79 685.466 166.028C685.466 163.335 685.989 160.972 687.034 158.938C688.08 156.903 689.551 155.318 691.449 154.182C693.358 153.045 695.597 152.477 698.165 152.477C699.892 152.477 701.5 152.756 702.989 153.312C704.489 153.858 705.795 154.682 706.909 155.784C708.034 156.886 708.909 158.273 709.534 159.943C710.159 161.602 710.472 163.545 710.472 165.773V167.767H688.364V163.267H703.636C703.636 162.222 703.409 161.295 702.955 160.489C702.5 159.682 701.869 159.051 701.062 158.597C700.267 158.131 699.341 157.898 698.284 157.898C697.182 157.898 696.205 158.153 695.352 158.665C694.511 159.165 693.852 159.841 693.375 160.693C692.898 161.534 692.653 162.472 692.642 163.506V167.784C692.642 169.08 692.881 170.199 693.358 171.142C693.847 172.085 694.534 172.812 695.42 173.324C696.307 173.835 697.358 174.091 698.574 174.091C699.381 174.091 700.119 173.977 700.79 173.75C701.46 173.523 702.034 173.182 702.511 172.727C702.989 172.273 703.352 171.716 703.602 171.057L710.318 171.5C709.977 173.114 709.278 174.523 708.222 175.727C707.176 176.92 705.824 177.852 704.165 178.523C702.517 179.182 700.614 179.511 698.455 179.511ZM745.393 154.131C745.257 152.756 744.672 151.687 743.638 150.926C742.604 150.165 741.2 149.784 739.428 149.784C738.223 149.784 737.206 149.955 736.376 150.295C735.547 150.625 734.911 151.085 734.467 151.676C734.036 152.267 733.82 152.938 733.82 153.688C733.797 154.312 733.928 154.858 734.212 155.324C734.507 155.79 734.911 156.193 735.422 156.534C735.933 156.864 736.524 157.153 737.195 157.403C737.865 157.642 738.581 157.847 739.342 158.017L742.479 158.767C744.001 159.108 745.399 159.562 746.672 160.131C747.945 160.699 749.047 161.398 749.979 162.227C750.911 163.057 751.632 164.034 752.143 165.159C752.666 166.284 752.933 167.574 752.945 169.028C752.933 171.165 752.388 173.017 751.308 174.585C750.24 176.142 748.695 177.352 746.672 178.216C744.661 179.068 742.234 179.494 739.393 179.494C736.575 179.494 734.121 179.062 732.03 178.199C729.95 177.335 728.325 176.057 727.155 174.364C725.996 172.659 725.388 170.551 725.331 168.04H732.473C732.553 169.21 732.888 170.187 733.479 170.972C734.081 171.744 734.882 172.33 735.882 172.727C736.893 173.114 738.036 173.307 739.308 173.307C740.558 173.307 741.643 173.125 742.564 172.761C743.496 172.398 744.217 171.892 744.729 171.244C745.24 170.597 745.496 169.852 745.496 169.011C745.496 168.227 745.263 167.568 744.797 167.034C744.342 166.5 743.672 166.045 742.786 165.67C741.911 165.295 740.837 164.955 739.564 164.648L735.763 163.693C732.82 162.977 730.496 161.858 728.791 160.335C727.087 158.812 726.24 156.761 726.251 154.182C726.24 152.068 726.803 150.222 727.939 148.642C729.087 147.062 730.661 145.83 732.661 144.943C734.661 144.057 736.933 143.614 739.479 143.614C742.07 143.614 744.331 144.057 746.263 144.943C748.206 145.83 749.717 147.062 750.797 148.642C751.876 150.222 752.433 152.051 752.467 154.131H745.393ZM769.602 179.511C766.955 179.511 764.665 178.949 762.733 177.824C760.813 176.687 759.33 175.108 758.284 173.085C757.239 171.051 756.716 168.693 756.716 166.011C756.716 163.307 757.239 160.943 758.284 158.92C759.33 156.886 760.813 155.307 762.733 154.182C764.665 153.045 766.955 152.477 769.602 152.477C772.25 152.477 774.534 153.045 776.455 154.182C778.386 155.307 779.875 156.886 780.92 158.92C781.966 160.943 782.489 163.307 782.489 166.011C782.489 168.693 781.966 171.051 780.92 173.085C779.875 175.108 778.386 176.687 776.455 177.824C774.534 178.949 772.25 179.511 769.602 179.511ZM769.636 173.886C770.841 173.886 771.847 173.545 772.653 172.864C773.46 172.17 774.068 171.227 774.477 170.034C774.898 168.841 775.108 167.483 775.108 165.96C775.108 164.438 774.898 163.08 774.477 161.886C774.068 160.693 773.46 159.75 772.653 159.057C771.847 158.364 770.841 158.017 769.636 158.017C768.42 158.017 767.398 158.364 766.568 159.057C765.75 159.75 765.131 160.693 764.71 161.886C764.301 163.08 764.097 164.438 764.097 165.96C764.097 167.483 764.301 168.841 764.71 170.034C765.131 171.227 765.75 172.17 766.568 172.864C767.398 173.545 768.42 173.886 769.636 173.886ZM801.29 152.818V158.273H785.131V152.818H801.29ZM788.83 179V150.926C788.83 149.028 789.199 147.455 789.938 146.205C790.688 144.955 791.71 144.017 793.006 143.392C794.301 142.767 795.773 142.455 797.42 142.455C798.534 142.455 799.551 142.54 800.472 142.71C801.403 142.881 802.097 143.034 802.551 143.17L801.256 148.625C800.972 148.534 800.619 148.449 800.199 148.369C799.79 148.29 799.369 148.25 798.938 148.25C797.869 148.25 797.125 148.5 796.705 149C796.284 149.489 796.074 150.176 796.074 151.062V179H788.83ZM819.652 152.818V158.273H803.885V152.818H819.652ZM807.464 146.545H814.726V170.955C814.726 171.625 814.828 172.148 815.033 172.523C815.237 172.886 815.521 173.142 815.885 173.29C816.26 173.437 816.692 173.511 817.18 173.511C817.521 173.511 817.862 173.483 818.203 173.426C818.544 173.358 818.805 173.307 818.987 173.273L820.129 178.676C819.766 178.79 819.254 178.92 818.595 179.068C817.936 179.227 817.135 179.324 816.192 179.358C814.442 179.426 812.908 179.193 811.589 178.659C810.283 178.125 809.266 177.295 808.538 176.17C807.811 175.045 807.453 173.625 807.464 171.909V146.545ZM829.547 179L822.422 152.818H829.768L833.825 170.409H834.064L838.291 152.818H845.501L849.797 170.307H850.018L854.007 152.818H861.337L854.229 179H846.541L842.041 162.534H841.717L837.217 179H829.547ZM872.676 179.494C871.006 179.494 869.517 179.205 868.21 178.625C866.903 178.034 865.869 177.165 865.108 176.017C864.358 174.858 863.983 173.415 863.983 171.688C863.983 170.233 864.25 169.011 864.784 168.023C865.318 167.034 866.045 166.239 866.966 165.636C867.886 165.034 868.932 164.58 870.102 164.273C871.284 163.966 872.523 163.75 873.818 163.625C875.341 163.466 876.568 163.318 877.5 163.182C878.432 163.034 879.108 162.818 879.528 162.534C879.949 162.25 880.159 161.83 880.159 161.273V161.17C880.159 160.091 879.818 159.256 879.136 158.665C878.466 158.074 877.511 157.778 876.273 157.778C874.966 157.778 873.926 158.068 873.153 158.648C872.381 159.216 871.869 159.932 871.619 160.795L864.903 160.25C865.244 158.659 865.915 157.284 866.915 156.125C867.915 154.955 869.205 154.057 870.784 153.432C872.375 152.795 874.216 152.477 876.307 152.477C877.761 152.477 879.153 152.648 880.483 152.989C881.824 153.33 883.011 153.858 884.045 154.574C885.091 155.29 885.915 156.21 886.517 157.335C887.119 158.449 887.42 159.784 887.42 161.341V179H880.534V175.369H880.33C879.909 176.188 879.347 176.909 878.642 177.534C877.938 178.148 877.091 178.631 876.102 178.983C875.114 179.324 873.972 179.494 872.676 179.494ZM874.756 174.483C875.824 174.483 876.767 174.273 877.585 173.852C878.403 173.42 879.045 172.841 879.511 172.114C879.977 171.386 880.21 170.562 880.21 169.642V166.864C879.983 167.011 879.67 167.148 879.273 167.273C878.886 167.386 878.449 167.494 877.96 167.597C877.472 167.687 876.983 167.773 876.494 167.852C876.006 167.92 875.562 167.983 875.165 168.04C874.313 168.165 873.568 168.364 872.932 168.636C872.295 168.909 871.801 169.278 871.449 169.744C871.097 170.199 870.92 170.767 870.92 171.449C870.92 172.438 871.278 173.193 871.994 173.716C872.722 174.227 873.642 174.483 874.756 174.483ZM893.054 179V152.818H900.094V157.386H900.366C900.844 155.761 901.645 154.534 902.77 153.705C903.895 152.864 905.19 152.443 906.656 152.443C907.02 152.443 907.412 152.466 907.832 152.511C908.253 152.557 908.622 152.619 908.94 152.699V159.142C908.599 159.04 908.128 158.949 907.526 158.869C906.923 158.79 906.372 158.75 905.872 158.75C904.804 158.75 903.849 158.983 903.009 159.449C902.179 159.903 901.52 160.54 901.031 161.358C900.554 162.176 900.315 163.119 900.315 164.188V179H893.054ZM923.408 179.511C920.714 179.511 918.396 178.966 916.453 177.875C914.521 176.773 913.033 175.216 911.987 173.205C910.942 171.182 910.419 168.79 910.419 166.028C910.419 163.335 910.942 160.972 911.987 158.938C913.033 156.903 914.504 155.318 916.402 154.182C918.311 153.045 920.55 152.477 923.118 152.477C924.845 152.477 926.453 152.756 927.942 153.312C929.442 153.858 930.749 154.682 931.862 155.784C932.987 156.886 933.862 158.273 934.487 159.943C935.112 161.602 935.425 163.545 935.425 165.773V167.767H913.317V163.267H928.589C928.589 162.222 928.362 161.295 927.908 160.489C927.453 159.682 926.822 159.051 926.016 158.597C925.22 158.131 924.294 157.898 923.237 157.898C922.135 157.898 921.158 158.153 920.305 158.665C919.464 159.165 918.805 159.841 918.328 160.693C917.851 161.534 917.607 162.472 917.595 163.506V167.784C917.595 169.08 917.834 170.199 918.311 171.142C918.8 172.085 919.487 172.812 920.374 173.324C921.26 173.835 922.311 174.091 923.527 174.091C924.334 174.091 925.072 173.977 925.743 173.75C926.413 173.523 926.987 173.182 927.464 172.727C927.942 172.273 928.305 171.716 928.555 171.057L935.271 171.5C934.93 173.114 934.232 174.523 933.175 175.727C932.129 176.92 930.777 177.852 929.118 178.523C927.47 179.182 925.567 179.511 923.408 179.511Z" fill="white"/>
</g>
<defs>
<linearGradient id="paint0_linear_13_776" x1="579.5" y1="464" x2="566.5" y2="2.78426e-05" gradientUnits="userSpaceOnUse">
<stop stop-color="#0F58A8"/>
<stop offset="1" stop-color="#0A151B"/>
</linearGradient>
<linearGradient id="paint1_linear_13_776" x1="1039.83" y1="256.914" x2="843.548" y2="-183.949" gradientUnits="userSpaceOnUse">
<stop stop-color="#3B53A4"/>
<stop offset="0.465" stop-color="#2047CE"/>
<stop offset="1" stop-color="#00F0FF"/>
</linearGradient>
<linearGradient id="paint2_linear_13_776" x1="1019.23" y1="262.12" x2="847.81" y2="-184.434" gradientUnits="userSpaceOnUse">
<stop stop-color="#3B53A4"/>
<stop offset="0.465" stop-color="#2047CE"/>
<stop offset="1" stop-color="#00F0FF"/>
</linearGradient>
<linearGradient id="paint3_linear_13_776" x1="998.594" y1="266.66" x2="852.1" y2="-184.203" gradientUnits="userSpaceOnUse">
<stop stop-color="#3B53A4"/>
<stop offset="0.465" stop-color="#2047CE"/>
<stop offset="1" stop-color="#00F0FF"/>
</linearGradient>
<linearGradient id="paint4_linear_13_776" x1="977.973" y1="270.537" x2="856.379" y2="-183.26" gradientUnits="userSpaceOnUse">
<stop stop-color="#3B53A4"/>
<stop offset="0.465" stop-color="#2047CE"/>
<stop offset="1" stop-color="#00F0FF"/>
</linearGradient>
<linearGradient id="paint5_linear_13_776" x1="957.399" y1="273.76" x2="860.606" y2="-181.613" gradientUnits="userSpaceOnUse">
<stop stop-color="#3B53A4"/>
<stop offset="0.465" stop-color="#2047CE"/>
<stop offset="1" stop-color="#00F0FF"/>
</linearGradient>
<linearGradient id="paint6_linear_13_776" x1="936.907" y1="276.336" x2="864.746" y2="-179.272" gradientUnits="userSpaceOnUse">
<stop stop-color="#3B53A4"/>
<stop offset="0.465" stop-color="#2047CE"/>
<stop offset="1" stop-color="#00F0FF"/>
</linearGradient>
<linearGradient id="paint7_linear_13_776" x1="916.532" y1="278.277" x2="868.76" y2="-176.247" gradientUnits="userSpaceOnUse">
<stop stop-color="#3B53A4"/>
<stop offset="0.465" stop-color="#2047CE"/>
<stop offset="1" stop-color="#00F0FF"/>
</linearGradient>
<linearGradient id="paint8_linear_13_776" x1="896.307" y1="279.595" x2="872.611" y2="-172.553" gradientUnits="userSpaceOnUse">
<stop stop-color="#3B53A4"/>
<stop offset="0.465" stop-color="#2047CE"/>
<stop offset="1" stop-color="#00F0FF"/>
</linearGradient>
<linearGradient id="paint9_linear_13_776" x1="876.266" y1="280.305" x2="876.266" y2="-168.204" gradientUnits="userSpaceOnUse">
<stop stop-color="#3B53A4"/>
<stop offset="0.465" stop-color="#2047CE"/>
<stop offset="1" stop-color="#00F0FF"/>
</linearGradient>
<linearGradient id="paint10_linear_13_776" x1="856.44" y1="280.422" x2="879.69" y2="-163.219" gradientUnits="userSpaceOnUse">
<stop stop-color="#3B53A4"/>
<stop offset="0.465" stop-color="#2047CE"/>
<stop offset="1" stop-color="#00F0FF"/>
</linearGradient>
<linearGradient id="paint11_linear_13_776" x1="836.859" y1="279.964" x2="882.851" y2="-157.616" gradientUnits="userSpaceOnUse">
<stop stop-color="#3B53A4"/>
<stop offset="0.465" stop-color="#2047CE"/>
<stop offset="1" stop-color="#00F0FF"/>
</linearGradient>
<linearGradient id="paint12_linear_13_776" x1="817.553" y1="278.951" x2="885.716" y2="-151.415" gradientUnits="userSpaceOnUse">
<stop stop-color="#3B53A4"/>
<stop offset="0.465" stop-color="#2047CE"/>
<stop offset="1" stop-color="#00F0FF"/>
</linearGradient>
<linearGradient id="paint13_linear_13_776" x1="798.548" y1="277.403" x2="888.256" y2="-144.64" gradientUnits="userSpaceOnUse">
<stop stop-color="#3B53A4"/>
<stop offset="0.465" stop-color="#2047CE"/>
<stop offset="1" stop-color="#00F0FF"/>
</linearGradient>
<linearGradient id="paint14_linear_13_776" x1="779.873" y1="275.342" x2="890.443" y2="-137.313" gradientUnits="userSpaceOnUse">
<stop stop-color="#3B53A4"/>
<stop offset="0.465" stop-color="#2047CE"/>
<stop offset="1" stop-color="#00F0FF"/>
</linearGradient>
<linearGradient id="paint15_linear_13_776" x1="761.551" y1="272.792" x2="892.251" y2="-129.461" gradientUnits="userSpaceOnUse">
<stop stop-color="#3B53A4"/>
<stop offset="0.465" stop-color="#2047CE"/>
<stop offset="1" stop-color="#00F0FF"/>
</linearGradient>
<linearGradient id="paint16_linear_13_776" x1="743.606" y1="269.776" x2="893.652" y2="-121.108" gradientUnits="userSpaceOnUse">
<stop stop-color="#3B53A4"/>
<stop offset="0.465" stop-color="#2047CE"/>
<stop offset="1" stop-color="#00F0FF"/>
</linearGradient>
<linearGradient id="paint17_linear_13_776" x1="726.06" y1="266.322" x2="894.625" y2="-112.283" gradientUnits="userSpaceOnUse">
<stop stop-color="#3B53A4"/>
<stop offset="0.465" stop-color="#2047CE"/>
<stop offset="1" stop-color="#00F0FF"/>
</linearGradient>
<linearGradient id="paint18_linear_13_776" x1="708.932" y1="262.454" x2="895.148" y2="-103.014" gradientUnits="userSpaceOnUse">
<stop stop-color="#3B53A4"/>
<stop offset="0.465" stop-color="#2047CE"/>
<stop offset="1" stop-color="#00F0FF"/>
</linearGradient>
<linearGradient id="paint19_linear_13_776" x1="692.242" y1="258.202" x2="895.2" y2="-93.3314" gradientUnits="userSpaceOnUse">
<stop stop-color="#3B53A4"/>
<stop offset="0.465" stop-color="#2047CE"/>
<stop offset="1" stop-color="#00F0FF"/>
</linearGradient>
<linearGradient id="paint20_linear_13_776" x1="676.006" y1="253.592" x2="894.764" y2="-83.265" gradientUnits="userSpaceOnUse">
<stop stop-color="#3B53A4"/>
<stop offset="0.465" stop-color="#2047CE"/>
<stop offset="1" stop-color="#00F0FF"/>
</linearGradient>
<linearGradient id="paint21_linear_13_776" x1="660.24" y1="248.655" x2="893.824" y2="-72.846" gradientUnits="userSpaceOnUse">
<stop stop-color="#3B53A4"/>
<stop offset="0.465" stop-color="#2047CE"/>
<stop offset="1" stop-color="#00F0FF"/>
</linearGradient>
<linearGradient id="paint22_linear_13_776" x1="644.956" y1="243.419" x2="892.365" y2="-62.1063" gradientUnits="userSpaceOnUse">
<stop stop-color="#3B53A4"/>
<stop offset="0.465" stop-color="#2047CE"/>
<stop offset="1" stop-color="#00F0FF"/>
</linearGradient>
<linearGradient id="paint23_linear_13_776" x1="630.165" y1="237.915" x2="890.376" y2="-51.0782" gradientUnits="userSpaceOnUse">
<stop stop-color="#3B53A4"/>
<stop offset="0.465" stop-color="#2047CE"/>
<stop offset="1" stop-color="#00F0FF"/>
</linearGradient>
<linearGradient id="paint24_linear_13_776" x1="615.878" y1="232.172" x2="887.845" y2="-39.7941" gradientUnits="userSpaceOnUse">
<stop stop-color="#3B53A4"/>
<stop offset="0.465" stop-color="#2047CE"/>
<stop offset="1" stop-color="#00F0FF"/>
</linearGradient>
<linearGradient id="paint25_linear_13_776" x1="602.103" y1="226.223" x2="884.765" y2="-28.2871" gradientUnits="userSpaceOnUse">
<stop stop-color="#3B53A4"/>
<stop offset="0.465" stop-color="#2047CE"/>
<stop offset="1" stop-color="#00F0FF"/>
</linearGradient>
<linearGradient id="paint26_linear_13_776" x1="588.844" y1="220.097" x2="881.129" y2="-16.5905" gradientUnits="userSpaceOnUse">
<stop stop-color="#3B53A4"/>
<stop offset="0.465" stop-color="#2047CE"/>
<stop offset="1" stop-color="#00F0FF"/>
</linearGradient>
<linearGradient id="paint27_linear_13_776" x1="576.107" y1="213.825" x2="876.932" y2="-4.73714" gradientUnits="userSpaceOnUse">
<stop stop-color="#3B53A4"/>
<stop offset="0.465" stop-color="#2047CE"/>
<stop offset="1" stop-color="#00F0FF"/>
</linearGradient>
<linearGradient id="paint28_linear_13_776" x1="563.893" y1="207.439" x2="872.173" y2="7.23956" gradientUnits="userSpaceOnUse">
<stop stop-color="#3B53A4"/>
<stop offset="0.465" stop-color="#2047CE"/>
<stop offset="1" stop-color="#00F0FF"/>
</linearGradient>
<linearGradient id="paint29_linear_13_776" x1="552.203" y1="200.968" x2="866.849" y2="19.3069" gradientUnits="userSpaceOnUse">
<stop stop-color="#3B53A4"/>
<stop offset="0.465" stop-color="#2047CE"/>
<stop offset="1" stop-color="#00F0FF"/>
</linearGradient>
<linearGradient id="paint30_linear_13_776" x1="541.037" y1="194.443" x2="860.964" y2="31.4322" gradientUnits="userSpaceOnUse">
<stop stop-color="#3B53A4"/>
<stop offset="0.465" stop-color="#2047CE"/>
<stop offset="1" stop-color="#00F0FF"/>
</linearGradient>
<linearGradient id="paint31_linear_13_776" x1="530.391" y1="187.895" x2="854.52" y2="43.5831" gradientUnits="userSpaceOnUse">
<stop stop-color="#3B53A4"/>
<stop offset="0.465" stop-color="#2047CE"/>
<stop offset="1" stop-color="#00F0FF"/>
</linearGradient>
<linearGradient id="paint32_linear_13_776" x1="520.26" y1="181.352" x2="847.521" y2="55.728" gradientUnits="userSpaceOnUse">
<stop stop-color="#3B53A4"/>
<stop offset="0.465" stop-color="#2047CE"/>
<stop offset="1" stop-color="#00F0FF"/>
</linearGradient>
<linearGradient id="paint33_linear_13_776" x1="510.638" y1="174.843" x2="839.975" y2="67.8356" gradientUnits="userSpaceOnUse">
<stop stop-color="#3B53A4"/>
<stop offset="0.465" stop-color="#2047CE"/>
<stop offset="1" stop-color="#00F0FF"/>
</linearGradient>
<linearGradient id="paint34_linear_13_776" x1="501.518" y1="168.398" x2="831.89" y2="79.8754" gradientUnits="userSpaceOnUse">
<stop stop-color="#3B53A4"/>
<stop offset="0.465" stop-color="#2047CE"/>
<stop offset="1" stop-color="#00F0FF"/>
</linearGradient>
<linearGradient id="paint35_linear_13_776" x1="492.89" y1="162.043" x2="823.275" y2="91.818" gradientUnits="userSpaceOnUse">
<stop stop-color="#3B53A4"/>
<stop offset="0.465" stop-color="#2047CE"/>
<stop offset="1" stop-color="#00F0FF"/>
</linearGradient>
<linearGradient id="paint36_linear_13_776" x1="484.744" y1="155.806" x2="814.144" y2="103.634" gradientUnits="userSpaceOnUse">
<stop stop-color="#3B53A4"/>
<stop offset="0.465" stop-color="#2047CE"/>
<stop offset="1" stop-color="#00F0FF"/>
</linearGradient>
<linearGradient id="paint37_linear_13_776" x1="477.065" y1="149.712" x2="804.509" y2="115.296" gradientUnits="userSpaceOnUse">
<stop stop-color="#3B53A4"/>
<stop offset="0.465" stop-color="#2047CE"/>
<stop offset="1" stop-color="#00F0FF"/>
</linearGradient>
<linearGradient id="paint38_linear_13_776" x1="469.842" y1="143.786" x2="794.384" y2="126.778" gradientUnits="userSpaceOnUse">
<stop stop-color="#3B53A4"/>
<stop offset="0.465" stop-color="#2047CE"/>
<stop offset="1" stop-color="#00F0FF"/>
</linearGradient>
<linearGradient id="paint39_linear_13_776" x1="463.059" y1="138.053" x2="783.787" y2="138.053" gradientUnits="userSpaceOnUse">
<stop stop-color="#3B53A4"/>
<stop offset="0.465" stop-color="#2047CE"/>
<stop offset="1" stop-color="#00F0FF"/>
</linearGradient>
<linearGradient id="paint40_linear_13_776" x1="456.699" y1="132.534" x2="772.735" y2="149.097" gradientUnits="userSpaceOnUse">
<stop stop-color="#3B53A4"/>
<stop offset="0.465" stop-color="#2047CE"/>
<stop offset="1" stop-color="#00F0FF"/>
</linearGradient>
<linearGradient id="paint41_linear_13_776" x1="450.746" y1="127.252" x2="761.245" y2="159.886" gradientUnits="userSpaceOnUse">
<stop stop-color="#3B53A4"/>
<stop offset="0.465" stop-color="#2047CE"/>
<stop offset="1" stop-color="#00F0FF"/>
</linearGradient>
<linearGradient id="paint42_linear_13_776" x1="445.18" y1="122.226" x2="749.34" y2="170.4" gradientUnits="userSpaceOnUse">
<stop stop-color="#3B53A4"/>
<stop offset="0.465" stop-color="#2047CE"/>
<stop offset="1" stop-color="#00F0FF"/>
</linearGradient>
<linearGradient id="paint43_linear_13_776" x1="439.983" y1="117.476" x2="737.038" y2="180.617" gradientUnits="userSpaceOnUse">
<stop stop-color="#3B53A4"/>
<stop offset="0.465" stop-color="#2047CE"/>
<stop offset="1" stop-color="#00F0FF"/>
</linearGradient>
<linearGradient id="paint44_linear_13_776" x1="435.133" y1="113.02" x2="724.362" y2="190.519" gradientUnits="userSpaceOnUse">
<stop stop-color="#3B53A4"/>
<stop offset="0.465" stop-color="#2047CE"/>
<stop offset="1" stop-color="#00F0FF"/>
</linearGradient>
<linearGradient id="paint45_linear_13_776" x1="430.61" y1="108.874" x2="711.335" y2="200.087" gradientUnits="userSpaceOnUse">
<stop stop-color="#3B53A4"/>
<stop offset="0.465" stop-color="#2047CE"/>
<stop offset="1" stop-color="#00F0FF"/>
</linearGradient>
<linearGradient id="paint46_linear_13_776" x1="426.39" y1="105.053" x2="697.981" y2="209.307" gradientUnits="userSpaceOnUse">
<stop stop-color="#3B53A4"/>
<stop offset="0.465" stop-color="#2047CE"/>
<stop offset="1" stop-color="#00F0FF"/>
</linearGradient>
<linearGradient id="paint47_linear_13_776" x1="422.453" y1="101.569" x2="684.324" y2="218.162" gradientUnits="userSpaceOnUse">
<stop stop-color="#3B53A4"/>
<stop offset="0.465" stop-color="#2047CE"/>
<stop offset="1" stop-color="#00F0FF"/>
</linearGradient>
<linearGradient id="paint48_linear_13_776" x1="418.775" y1="98.4366" x2="670.39" y2="226.641" gradientUnits="userSpaceOnUse">
<stop stop-color="#3B53A4"/>
<stop offset="0.465" stop-color="#2047CE"/>
<stop offset="1" stop-color="#00F0FF"/>
</linearGradient>
<linearGradient id="paint49_linear_13_776" x1="415.331" y1="95.6646" x2="656.203" y2="234.732" gradientUnits="userSpaceOnUse">
<stop stop-color="#3B53A4"/>
<stop offset="0.465" stop-color="#2047CE"/>
<stop offset="1" stop-color="#00F0FF"/>
</linearGradient>
<linearGradient id="paint50_linear_13_776" x1="412.098" y1="93.2623" x2="641.789" y2="242.426" gradientUnits="userSpaceOnUse">
<stop stop-color="#3B53A4"/>
<stop offset="0.465" stop-color="#2047CE"/>
<stop offset="1" stop-color="#00F0FF"/>
</linearGradient>
<linearGradient id="paint51_linear_13_776" x1="409.051" y1="91.2373" x2="627.175" y2="249.714" gradientUnits="userSpaceOnUse">
<stop stop-color="#3B53A4"/>
<stop offset="0.465" stop-color="#2047CE"/>
<stop offset="1" stop-color="#00F0FF"/>
</linearGradient>
<linearGradient id="paint52_linear_13_776" x1="406.166" y1="89.5955" x2="612.387" y2="256.59" gradientUnits="userSpaceOnUse">
<stop stop-color="#3B53A4"/>
<stop offset="0.465" stop-color="#2047CE"/>
<stop offset="1" stop-color="#00F0FF"/>
</linearGradient>
<linearGradient id="paint53_linear_13_776" x1="403.418" y1="88.3411" x2="597.452" y2="263.05" gradientUnits="userSpaceOnUse">
<stop stop-color="#3B53A4"/>
<stop offset="0.465" stop-color="#2047CE"/>
<stop offset="1" stop-color="#00F0FF"/>
</linearGradient>
<linearGradient id="paint54_linear_13_776" x1="400.783" y1="87.4773" x2="582.395" y2="269.09" gradientUnits="userSpaceOnUse">
<stop stop-color="#3B53A4"/>
<stop offset="0.465" stop-color="#2047CE"/>
<stop offset="1" stop-color="#00F0FF"/>
</linearGradient>
<linearGradient id="paint55_linear_13_776" x1="398.236" y1="87.0053" x2="567.244" y2="274.708" gradientUnits="userSpaceOnUse">
<stop stop-color="#3B53A4"/>
<stop offset="0.465" stop-color="#2047CE"/>
<stop offset="1" stop-color="#00F0FF"/>
</linearGradient>
<linearGradient id="paint56_linear_13_776" x1="395.752" y1="86.925" x2="552.025" y2="279.906" gradientUnits="userSpaceOnUse">
<stop stop-color="#3B53A4"/>
<stop offset="0.465" stop-color="#2047CE"/>
<stop offset="1" stop-color="#00F0FF"/>
</linearGradient>
<linearGradient id="paint57_linear_13_776" x1="393.308" y1="87.2349" x2="536.763" y2="284.684" gradientUnits="userSpaceOnUse">
<stop stop-color="#3B53A4"/>
<stop offset="0.465" stop-color="#2047CE"/>
<stop offset="1" stop-color="#00F0FF"/>
</linearGradient>
<linearGradient id="paint58_linear_13_776" x1="390.88" y1="87.9318" x2="521.485" y2="289.046" gradientUnits="userSpaceOnUse">
<stop stop-color="#3B53A4"/>
<stop offset="0.465" stop-color="#2047CE"/>
<stop offset="1" stop-color="#00F0FF"/>
</linearGradient>
<linearGradient id="paint59_linear_13_776" x1="388.444" y1="89.0114" x2="506.214" y2="292.997" gradientUnits="userSpaceOnUse">
<stop stop-color="#3B53A4"/>
<stop offset="0.465" stop-color="#2047CE"/>
<stop offset="1" stop-color="#00F0FF"/>
</linearGradient>
<linearGradient id="paint60_linear_13_776" x1="385.977" y1="90.4678" x2="490.977" y2="296.542" gradientUnits="userSpaceOnUse">
<stop stop-color="#3B53A4"/>
<stop offset="0.465" stop-color="#2047CE"/>
<stop offset="1" stop-color="#00F0FF"/>
</linearGradient>
<linearGradient id="paint61_linear_13_776" x1="383.457" y1="92.2941" x2="475.796" y2="299.69" gradientUnits="userSpaceOnUse">
<stop stop-color="#3B53A4"/>
<stop offset="0.465" stop-color="#2047CE"/>
<stop offset="1" stop-color="#00F0FF"/>
</linearGradient>
<linearGradient id="paint62_linear_13_776" x1="380.863" y1="94.4817" x2="460.695" y2="302.45" gradientUnits="userSpaceOnUse">
<stop stop-color="#3B53A4"/>
<stop offset="0.465" stop-color="#2047CE"/>
<stop offset="1" stop-color="#00F0FF"/>
</linearGradient>
<linearGradient id="paint63_linear_13_776" x1="378.175" y1="97.021" x2="445.696" y2="304.831" gradientUnits="userSpaceOnUse">
<stop stop-color="#3B53A4"/>
<stop offset="0.465" stop-color="#2047CE"/>
<stop offset="1" stop-color="#00F0FF"/>
</linearGradient>
<linearGradient id="paint64_linear_13_776" x1="375.371" y1="99.9012" x2="430.821" y2="306.846" gradientUnits="userSpaceOnUse">
<stop stop-color="#3B53A4"/>
<stop offset="0.465" stop-color="#2047CE"/>
<stop offset="1" stop-color="#00F0FF"/>
</linearGradient>
<linearGradient id="paint65_linear_13_776" x1="372.432" y1="103.11" x2="416.091" y2="308.507" gradientUnits="userSpaceOnUse">
<stop stop-color="#3B53A4"/>
<stop offset="0.465" stop-color="#2047CE"/>
<stop offset="1" stop-color="#00F0FF"/>
</linearGradient>
<linearGradient id="paint66_linear_13_776" x1="369.341" y1="106.636" x2="401.524" y2="309.829" gradientUnits="userSpaceOnUse">
<stop stop-color="#3B53A4"/>
<stop offset="0.465" stop-color="#2047CE"/>
<stop offset="1" stop-color="#00F0FF"/>
</linearGradient>
<linearGradient id="paint67_linear_13_776" x1="366.081" y1="110.463" x2="387.14" y2="310.826" gradientUnits="userSpaceOnUse">
<stop stop-color="#3B53A4"/>
<stop offset="0.465" stop-color="#2047CE"/>
<stop offset="1" stop-color="#00F0FF"/>
</linearGradient>
<linearGradient id="paint68_linear_13_776" x1="362.634" y1="114.577" x2="372.955" y2="311.514" gradientUnits="userSpaceOnUse">
<stop stop-color="#3B53A4"/>
<stop offset="0.465" stop-color="#2047CE"/>
<stop offset="1" stop-color="#00F0FF"/>
</linearGradient>
<linearGradient id="paint69_linear_13_776" x1="358.987" y1="118.963" x2="358.987" y2="311.911" gradientUnits="userSpaceOnUse">
<stop stop-color="#3B53A4"/>
<stop offset="0.465" stop-color="#2047CE"/>
<stop offset="1" stop-color="#00F0FF"/>
</linearGradient>
<clipPath id="clip0_13_776">
<rect width="1133" height="280" rx="32" fill="white"/>
</clipPath>
</defs>
</svg>
